G75*
%MOIN*%
%OFA0B0*%
%FSLAX25Y25*%
%IPPOS*%
%LPD*%
%AMOC8*
5,1,8,0,0,1.08239X$1,22.5*
%
%ADD10C,0.00800*%
%ADD11C,0.00000*%
D10*
X0032683Y0073933D02*
X0222683Y0073933D01*
X0232683Y0083933D01*
X0232683Y0298933D01*
X0222683Y0298933D01*
X0212683Y0308933D01*
X0082683Y0308933D01*
X0072683Y0298933D01*
X0027683Y0298933D01*
X0022683Y0293933D01*
X0022683Y0083933D01*
X0032683Y0073933D01*
D11*
X0026183Y0098933D02*
X0026185Y0099094D01*
X0026191Y0099254D01*
X0026201Y0099415D01*
X0026215Y0099575D01*
X0026233Y0099735D01*
X0026254Y0099894D01*
X0026280Y0100053D01*
X0026310Y0100211D01*
X0026343Y0100368D01*
X0026381Y0100525D01*
X0026422Y0100680D01*
X0026467Y0100834D01*
X0026516Y0100987D01*
X0026569Y0101139D01*
X0026625Y0101290D01*
X0026686Y0101439D01*
X0026749Y0101587D01*
X0026817Y0101733D01*
X0026888Y0101877D01*
X0026962Y0102019D01*
X0027040Y0102160D01*
X0027122Y0102298D01*
X0027207Y0102435D01*
X0027295Y0102569D01*
X0027387Y0102701D01*
X0027482Y0102831D01*
X0027580Y0102959D01*
X0027681Y0103084D01*
X0027785Y0103206D01*
X0027892Y0103326D01*
X0028002Y0103443D01*
X0028115Y0103558D01*
X0028231Y0103669D01*
X0028350Y0103778D01*
X0028471Y0103883D01*
X0028595Y0103986D01*
X0028721Y0104086D01*
X0028849Y0104182D01*
X0028980Y0104275D01*
X0029114Y0104365D01*
X0029249Y0104452D01*
X0029387Y0104535D01*
X0029526Y0104615D01*
X0029668Y0104691D01*
X0029811Y0104764D01*
X0029956Y0104833D01*
X0030103Y0104899D01*
X0030251Y0104961D01*
X0030401Y0105019D01*
X0030552Y0105074D01*
X0030705Y0105125D01*
X0030859Y0105172D01*
X0031014Y0105215D01*
X0031170Y0105254D01*
X0031326Y0105290D01*
X0031484Y0105321D01*
X0031642Y0105349D01*
X0031801Y0105373D01*
X0031961Y0105393D01*
X0032121Y0105409D01*
X0032281Y0105421D01*
X0032442Y0105429D01*
X0032603Y0105433D01*
X0032763Y0105433D01*
X0032924Y0105429D01*
X0033085Y0105421D01*
X0033245Y0105409D01*
X0033405Y0105393D01*
X0033565Y0105373D01*
X0033724Y0105349D01*
X0033882Y0105321D01*
X0034040Y0105290D01*
X0034196Y0105254D01*
X0034352Y0105215D01*
X0034507Y0105172D01*
X0034661Y0105125D01*
X0034814Y0105074D01*
X0034965Y0105019D01*
X0035115Y0104961D01*
X0035263Y0104899D01*
X0035410Y0104833D01*
X0035555Y0104764D01*
X0035698Y0104691D01*
X0035840Y0104615D01*
X0035979Y0104535D01*
X0036117Y0104452D01*
X0036252Y0104365D01*
X0036386Y0104275D01*
X0036517Y0104182D01*
X0036645Y0104086D01*
X0036771Y0103986D01*
X0036895Y0103883D01*
X0037016Y0103778D01*
X0037135Y0103669D01*
X0037251Y0103558D01*
X0037364Y0103443D01*
X0037474Y0103326D01*
X0037581Y0103206D01*
X0037685Y0103084D01*
X0037786Y0102959D01*
X0037884Y0102831D01*
X0037979Y0102701D01*
X0038071Y0102569D01*
X0038159Y0102435D01*
X0038244Y0102298D01*
X0038326Y0102160D01*
X0038404Y0102019D01*
X0038478Y0101877D01*
X0038549Y0101733D01*
X0038617Y0101587D01*
X0038680Y0101439D01*
X0038741Y0101290D01*
X0038797Y0101139D01*
X0038850Y0100987D01*
X0038899Y0100834D01*
X0038944Y0100680D01*
X0038985Y0100525D01*
X0039023Y0100368D01*
X0039056Y0100211D01*
X0039086Y0100053D01*
X0039112Y0099894D01*
X0039133Y0099735D01*
X0039151Y0099575D01*
X0039165Y0099415D01*
X0039175Y0099254D01*
X0039181Y0099094D01*
X0039183Y0098933D01*
X0039181Y0098772D01*
X0039175Y0098612D01*
X0039165Y0098451D01*
X0039151Y0098291D01*
X0039133Y0098131D01*
X0039112Y0097972D01*
X0039086Y0097813D01*
X0039056Y0097655D01*
X0039023Y0097498D01*
X0038985Y0097341D01*
X0038944Y0097186D01*
X0038899Y0097032D01*
X0038850Y0096879D01*
X0038797Y0096727D01*
X0038741Y0096576D01*
X0038680Y0096427D01*
X0038617Y0096279D01*
X0038549Y0096133D01*
X0038478Y0095989D01*
X0038404Y0095847D01*
X0038326Y0095706D01*
X0038244Y0095568D01*
X0038159Y0095431D01*
X0038071Y0095297D01*
X0037979Y0095165D01*
X0037884Y0095035D01*
X0037786Y0094907D01*
X0037685Y0094782D01*
X0037581Y0094660D01*
X0037474Y0094540D01*
X0037364Y0094423D01*
X0037251Y0094308D01*
X0037135Y0094197D01*
X0037016Y0094088D01*
X0036895Y0093983D01*
X0036771Y0093880D01*
X0036645Y0093780D01*
X0036517Y0093684D01*
X0036386Y0093591D01*
X0036252Y0093501D01*
X0036117Y0093414D01*
X0035979Y0093331D01*
X0035840Y0093251D01*
X0035698Y0093175D01*
X0035555Y0093102D01*
X0035410Y0093033D01*
X0035263Y0092967D01*
X0035115Y0092905D01*
X0034965Y0092847D01*
X0034814Y0092792D01*
X0034661Y0092741D01*
X0034507Y0092694D01*
X0034352Y0092651D01*
X0034196Y0092612D01*
X0034040Y0092576D01*
X0033882Y0092545D01*
X0033724Y0092517D01*
X0033565Y0092493D01*
X0033405Y0092473D01*
X0033245Y0092457D01*
X0033085Y0092445D01*
X0032924Y0092437D01*
X0032763Y0092433D01*
X0032603Y0092433D01*
X0032442Y0092437D01*
X0032281Y0092445D01*
X0032121Y0092457D01*
X0031961Y0092473D01*
X0031801Y0092493D01*
X0031642Y0092517D01*
X0031484Y0092545D01*
X0031326Y0092576D01*
X0031170Y0092612D01*
X0031014Y0092651D01*
X0030859Y0092694D01*
X0030705Y0092741D01*
X0030552Y0092792D01*
X0030401Y0092847D01*
X0030251Y0092905D01*
X0030103Y0092967D01*
X0029956Y0093033D01*
X0029811Y0093102D01*
X0029668Y0093175D01*
X0029526Y0093251D01*
X0029387Y0093331D01*
X0029249Y0093414D01*
X0029114Y0093501D01*
X0028980Y0093591D01*
X0028849Y0093684D01*
X0028721Y0093780D01*
X0028595Y0093880D01*
X0028471Y0093983D01*
X0028350Y0094088D01*
X0028231Y0094197D01*
X0028115Y0094308D01*
X0028002Y0094423D01*
X0027892Y0094540D01*
X0027785Y0094660D01*
X0027681Y0094782D01*
X0027580Y0094907D01*
X0027482Y0095035D01*
X0027387Y0095165D01*
X0027295Y0095297D01*
X0027207Y0095431D01*
X0027122Y0095568D01*
X0027040Y0095706D01*
X0026962Y0095847D01*
X0026888Y0095989D01*
X0026817Y0096133D01*
X0026749Y0096279D01*
X0026686Y0096427D01*
X0026625Y0096576D01*
X0026569Y0096727D01*
X0026516Y0096879D01*
X0026467Y0097032D01*
X0026422Y0097186D01*
X0026381Y0097341D01*
X0026343Y0097498D01*
X0026310Y0097655D01*
X0026280Y0097813D01*
X0026254Y0097972D01*
X0026233Y0098131D01*
X0026215Y0098291D01*
X0026201Y0098451D01*
X0026191Y0098612D01*
X0026185Y0098772D01*
X0026183Y0098933D01*
X0081183Y0298933D02*
X0081185Y0299094D01*
X0081191Y0299254D01*
X0081201Y0299415D01*
X0081215Y0299575D01*
X0081233Y0299735D01*
X0081254Y0299894D01*
X0081280Y0300053D01*
X0081310Y0300211D01*
X0081343Y0300368D01*
X0081381Y0300525D01*
X0081422Y0300680D01*
X0081467Y0300834D01*
X0081516Y0300987D01*
X0081569Y0301139D01*
X0081625Y0301290D01*
X0081686Y0301439D01*
X0081749Y0301587D01*
X0081817Y0301733D01*
X0081888Y0301877D01*
X0081962Y0302019D01*
X0082040Y0302160D01*
X0082122Y0302298D01*
X0082207Y0302435D01*
X0082295Y0302569D01*
X0082387Y0302701D01*
X0082482Y0302831D01*
X0082580Y0302959D01*
X0082681Y0303084D01*
X0082785Y0303206D01*
X0082892Y0303326D01*
X0083002Y0303443D01*
X0083115Y0303558D01*
X0083231Y0303669D01*
X0083350Y0303778D01*
X0083471Y0303883D01*
X0083595Y0303986D01*
X0083721Y0304086D01*
X0083849Y0304182D01*
X0083980Y0304275D01*
X0084114Y0304365D01*
X0084249Y0304452D01*
X0084387Y0304535D01*
X0084526Y0304615D01*
X0084668Y0304691D01*
X0084811Y0304764D01*
X0084956Y0304833D01*
X0085103Y0304899D01*
X0085251Y0304961D01*
X0085401Y0305019D01*
X0085552Y0305074D01*
X0085705Y0305125D01*
X0085859Y0305172D01*
X0086014Y0305215D01*
X0086170Y0305254D01*
X0086326Y0305290D01*
X0086484Y0305321D01*
X0086642Y0305349D01*
X0086801Y0305373D01*
X0086961Y0305393D01*
X0087121Y0305409D01*
X0087281Y0305421D01*
X0087442Y0305429D01*
X0087603Y0305433D01*
X0087763Y0305433D01*
X0087924Y0305429D01*
X0088085Y0305421D01*
X0088245Y0305409D01*
X0088405Y0305393D01*
X0088565Y0305373D01*
X0088724Y0305349D01*
X0088882Y0305321D01*
X0089040Y0305290D01*
X0089196Y0305254D01*
X0089352Y0305215D01*
X0089507Y0305172D01*
X0089661Y0305125D01*
X0089814Y0305074D01*
X0089965Y0305019D01*
X0090115Y0304961D01*
X0090263Y0304899D01*
X0090410Y0304833D01*
X0090555Y0304764D01*
X0090698Y0304691D01*
X0090840Y0304615D01*
X0090979Y0304535D01*
X0091117Y0304452D01*
X0091252Y0304365D01*
X0091386Y0304275D01*
X0091517Y0304182D01*
X0091645Y0304086D01*
X0091771Y0303986D01*
X0091895Y0303883D01*
X0092016Y0303778D01*
X0092135Y0303669D01*
X0092251Y0303558D01*
X0092364Y0303443D01*
X0092474Y0303326D01*
X0092581Y0303206D01*
X0092685Y0303084D01*
X0092786Y0302959D01*
X0092884Y0302831D01*
X0092979Y0302701D01*
X0093071Y0302569D01*
X0093159Y0302435D01*
X0093244Y0302298D01*
X0093326Y0302160D01*
X0093404Y0302019D01*
X0093478Y0301877D01*
X0093549Y0301733D01*
X0093617Y0301587D01*
X0093680Y0301439D01*
X0093741Y0301290D01*
X0093797Y0301139D01*
X0093850Y0300987D01*
X0093899Y0300834D01*
X0093944Y0300680D01*
X0093985Y0300525D01*
X0094023Y0300368D01*
X0094056Y0300211D01*
X0094086Y0300053D01*
X0094112Y0299894D01*
X0094133Y0299735D01*
X0094151Y0299575D01*
X0094165Y0299415D01*
X0094175Y0299254D01*
X0094181Y0299094D01*
X0094183Y0298933D01*
X0094181Y0298772D01*
X0094175Y0298612D01*
X0094165Y0298451D01*
X0094151Y0298291D01*
X0094133Y0298131D01*
X0094112Y0297972D01*
X0094086Y0297813D01*
X0094056Y0297655D01*
X0094023Y0297498D01*
X0093985Y0297341D01*
X0093944Y0297186D01*
X0093899Y0297032D01*
X0093850Y0296879D01*
X0093797Y0296727D01*
X0093741Y0296576D01*
X0093680Y0296427D01*
X0093617Y0296279D01*
X0093549Y0296133D01*
X0093478Y0295989D01*
X0093404Y0295847D01*
X0093326Y0295706D01*
X0093244Y0295568D01*
X0093159Y0295431D01*
X0093071Y0295297D01*
X0092979Y0295165D01*
X0092884Y0295035D01*
X0092786Y0294907D01*
X0092685Y0294782D01*
X0092581Y0294660D01*
X0092474Y0294540D01*
X0092364Y0294423D01*
X0092251Y0294308D01*
X0092135Y0294197D01*
X0092016Y0294088D01*
X0091895Y0293983D01*
X0091771Y0293880D01*
X0091645Y0293780D01*
X0091517Y0293684D01*
X0091386Y0293591D01*
X0091252Y0293501D01*
X0091117Y0293414D01*
X0090979Y0293331D01*
X0090840Y0293251D01*
X0090698Y0293175D01*
X0090555Y0293102D01*
X0090410Y0293033D01*
X0090263Y0292967D01*
X0090115Y0292905D01*
X0089965Y0292847D01*
X0089814Y0292792D01*
X0089661Y0292741D01*
X0089507Y0292694D01*
X0089352Y0292651D01*
X0089196Y0292612D01*
X0089040Y0292576D01*
X0088882Y0292545D01*
X0088724Y0292517D01*
X0088565Y0292493D01*
X0088405Y0292473D01*
X0088245Y0292457D01*
X0088085Y0292445D01*
X0087924Y0292437D01*
X0087763Y0292433D01*
X0087603Y0292433D01*
X0087442Y0292437D01*
X0087281Y0292445D01*
X0087121Y0292457D01*
X0086961Y0292473D01*
X0086801Y0292493D01*
X0086642Y0292517D01*
X0086484Y0292545D01*
X0086326Y0292576D01*
X0086170Y0292612D01*
X0086014Y0292651D01*
X0085859Y0292694D01*
X0085705Y0292741D01*
X0085552Y0292792D01*
X0085401Y0292847D01*
X0085251Y0292905D01*
X0085103Y0292967D01*
X0084956Y0293033D01*
X0084811Y0293102D01*
X0084668Y0293175D01*
X0084526Y0293251D01*
X0084387Y0293331D01*
X0084249Y0293414D01*
X0084114Y0293501D01*
X0083980Y0293591D01*
X0083849Y0293684D01*
X0083721Y0293780D01*
X0083595Y0293880D01*
X0083471Y0293983D01*
X0083350Y0294088D01*
X0083231Y0294197D01*
X0083115Y0294308D01*
X0083002Y0294423D01*
X0082892Y0294540D01*
X0082785Y0294660D01*
X0082681Y0294782D01*
X0082580Y0294907D01*
X0082482Y0295035D01*
X0082387Y0295165D01*
X0082295Y0295297D01*
X0082207Y0295431D01*
X0082122Y0295568D01*
X0082040Y0295706D01*
X0081962Y0295847D01*
X0081888Y0295989D01*
X0081817Y0296133D01*
X0081749Y0296279D01*
X0081686Y0296427D01*
X0081625Y0296576D01*
X0081569Y0296727D01*
X0081516Y0296879D01*
X0081467Y0297032D01*
X0081422Y0297186D01*
X0081381Y0297341D01*
X0081343Y0297498D01*
X0081310Y0297655D01*
X0081280Y0297813D01*
X0081254Y0297972D01*
X0081233Y0298131D01*
X0081215Y0298291D01*
X0081201Y0298451D01*
X0081191Y0298612D01*
X0081185Y0298772D01*
X0081183Y0298933D01*
X0201183Y0298933D02*
X0201185Y0299094D01*
X0201191Y0299254D01*
X0201201Y0299415D01*
X0201215Y0299575D01*
X0201233Y0299735D01*
X0201254Y0299894D01*
X0201280Y0300053D01*
X0201310Y0300211D01*
X0201343Y0300368D01*
X0201381Y0300525D01*
X0201422Y0300680D01*
X0201467Y0300834D01*
X0201516Y0300987D01*
X0201569Y0301139D01*
X0201625Y0301290D01*
X0201686Y0301439D01*
X0201749Y0301587D01*
X0201817Y0301733D01*
X0201888Y0301877D01*
X0201962Y0302019D01*
X0202040Y0302160D01*
X0202122Y0302298D01*
X0202207Y0302435D01*
X0202295Y0302569D01*
X0202387Y0302701D01*
X0202482Y0302831D01*
X0202580Y0302959D01*
X0202681Y0303084D01*
X0202785Y0303206D01*
X0202892Y0303326D01*
X0203002Y0303443D01*
X0203115Y0303558D01*
X0203231Y0303669D01*
X0203350Y0303778D01*
X0203471Y0303883D01*
X0203595Y0303986D01*
X0203721Y0304086D01*
X0203849Y0304182D01*
X0203980Y0304275D01*
X0204114Y0304365D01*
X0204249Y0304452D01*
X0204387Y0304535D01*
X0204526Y0304615D01*
X0204668Y0304691D01*
X0204811Y0304764D01*
X0204956Y0304833D01*
X0205103Y0304899D01*
X0205251Y0304961D01*
X0205401Y0305019D01*
X0205552Y0305074D01*
X0205705Y0305125D01*
X0205859Y0305172D01*
X0206014Y0305215D01*
X0206170Y0305254D01*
X0206326Y0305290D01*
X0206484Y0305321D01*
X0206642Y0305349D01*
X0206801Y0305373D01*
X0206961Y0305393D01*
X0207121Y0305409D01*
X0207281Y0305421D01*
X0207442Y0305429D01*
X0207603Y0305433D01*
X0207763Y0305433D01*
X0207924Y0305429D01*
X0208085Y0305421D01*
X0208245Y0305409D01*
X0208405Y0305393D01*
X0208565Y0305373D01*
X0208724Y0305349D01*
X0208882Y0305321D01*
X0209040Y0305290D01*
X0209196Y0305254D01*
X0209352Y0305215D01*
X0209507Y0305172D01*
X0209661Y0305125D01*
X0209814Y0305074D01*
X0209965Y0305019D01*
X0210115Y0304961D01*
X0210263Y0304899D01*
X0210410Y0304833D01*
X0210555Y0304764D01*
X0210698Y0304691D01*
X0210840Y0304615D01*
X0210979Y0304535D01*
X0211117Y0304452D01*
X0211252Y0304365D01*
X0211386Y0304275D01*
X0211517Y0304182D01*
X0211645Y0304086D01*
X0211771Y0303986D01*
X0211895Y0303883D01*
X0212016Y0303778D01*
X0212135Y0303669D01*
X0212251Y0303558D01*
X0212364Y0303443D01*
X0212474Y0303326D01*
X0212581Y0303206D01*
X0212685Y0303084D01*
X0212786Y0302959D01*
X0212884Y0302831D01*
X0212979Y0302701D01*
X0213071Y0302569D01*
X0213159Y0302435D01*
X0213244Y0302298D01*
X0213326Y0302160D01*
X0213404Y0302019D01*
X0213478Y0301877D01*
X0213549Y0301733D01*
X0213617Y0301587D01*
X0213680Y0301439D01*
X0213741Y0301290D01*
X0213797Y0301139D01*
X0213850Y0300987D01*
X0213899Y0300834D01*
X0213944Y0300680D01*
X0213985Y0300525D01*
X0214023Y0300368D01*
X0214056Y0300211D01*
X0214086Y0300053D01*
X0214112Y0299894D01*
X0214133Y0299735D01*
X0214151Y0299575D01*
X0214165Y0299415D01*
X0214175Y0299254D01*
X0214181Y0299094D01*
X0214183Y0298933D01*
X0214181Y0298772D01*
X0214175Y0298612D01*
X0214165Y0298451D01*
X0214151Y0298291D01*
X0214133Y0298131D01*
X0214112Y0297972D01*
X0214086Y0297813D01*
X0214056Y0297655D01*
X0214023Y0297498D01*
X0213985Y0297341D01*
X0213944Y0297186D01*
X0213899Y0297032D01*
X0213850Y0296879D01*
X0213797Y0296727D01*
X0213741Y0296576D01*
X0213680Y0296427D01*
X0213617Y0296279D01*
X0213549Y0296133D01*
X0213478Y0295989D01*
X0213404Y0295847D01*
X0213326Y0295706D01*
X0213244Y0295568D01*
X0213159Y0295431D01*
X0213071Y0295297D01*
X0212979Y0295165D01*
X0212884Y0295035D01*
X0212786Y0294907D01*
X0212685Y0294782D01*
X0212581Y0294660D01*
X0212474Y0294540D01*
X0212364Y0294423D01*
X0212251Y0294308D01*
X0212135Y0294197D01*
X0212016Y0294088D01*
X0211895Y0293983D01*
X0211771Y0293880D01*
X0211645Y0293780D01*
X0211517Y0293684D01*
X0211386Y0293591D01*
X0211252Y0293501D01*
X0211117Y0293414D01*
X0210979Y0293331D01*
X0210840Y0293251D01*
X0210698Y0293175D01*
X0210555Y0293102D01*
X0210410Y0293033D01*
X0210263Y0292967D01*
X0210115Y0292905D01*
X0209965Y0292847D01*
X0209814Y0292792D01*
X0209661Y0292741D01*
X0209507Y0292694D01*
X0209352Y0292651D01*
X0209196Y0292612D01*
X0209040Y0292576D01*
X0208882Y0292545D01*
X0208724Y0292517D01*
X0208565Y0292493D01*
X0208405Y0292473D01*
X0208245Y0292457D01*
X0208085Y0292445D01*
X0207924Y0292437D01*
X0207763Y0292433D01*
X0207603Y0292433D01*
X0207442Y0292437D01*
X0207281Y0292445D01*
X0207121Y0292457D01*
X0206961Y0292473D01*
X0206801Y0292493D01*
X0206642Y0292517D01*
X0206484Y0292545D01*
X0206326Y0292576D01*
X0206170Y0292612D01*
X0206014Y0292651D01*
X0205859Y0292694D01*
X0205705Y0292741D01*
X0205552Y0292792D01*
X0205401Y0292847D01*
X0205251Y0292905D01*
X0205103Y0292967D01*
X0204956Y0293033D01*
X0204811Y0293102D01*
X0204668Y0293175D01*
X0204526Y0293251D01*
X0204387Y0293331D01*
X0204249Y0293414D01*
X0204114Y0293501D01*
X0203980Y0293591D01*
X0203849Y0293684D01*
X0203721Y0293780D01*
X0203595Y0293880D01*
X0203471Y0293983D01*
X0203350Y0294088D01*
X0203231Y0294197D01*
X0203115Y0294308D01*
X0203002Y0294423D01*
X0202892Y0294540D01*
X0202785Y0294660D01*
X0202681Y0294782D01*
X0202580Y0294907D01*
X0202482Y0295035D01*
X0202387Y0295165D01*
X0202295Y0295297D01*
X0202207Y0295431D01*
X0202122Y0295568D01*
X0202040Y0295706D01*
X0201962Y0295847D01*
X0201888Y0295989D01*
X0201817Y0296133D01*
X0201749Y0296279D01*
X0201686Y0296427D01*
X0201625Y0296576D01*
X0201569Y0296727D01*
X0201516Y0296879D01*
X0201467Y0297032D01*
X0201422Y0297186D01*
X0201381Y0297341D01*
X0201343Y0297498D01*
X0201310Y0297655D01*
X0201280Y0297813D01*
X0201254Y0297972D01*
X0201233Y0298131D01*
X0201215Y0298291D01*
X0201201Y0298451D01*
X0201191Y0298612D01*
X0201185Y0298772D01*
X0201183Y0298933D01*
M02*
