G75*
%MOIN*%
%OFA0B0*%
%FSLAX25Y25*%
%IPPOS*%
%LPD*%
%AMOC8*
5,1,8,0,0,1.08239X$1,22.5*
%
%ADD10C,0.08200*%
%ADD11C,0.13800*%
%ADD12OC8,0.08200*%
%ADD13R,0.03300X0.05800*%
%ADD14R,0.03162X0.09461*%
%ADD15R,0.09816X0.09816*%
%ADD16R,0.08800X0.08800*%
%ADD17C,0.08800*%
%ADD18R,0.04737X0.05131*%
%ADD19R,0.05131X0.04737*%
%ADD20R,0.05524X0.08674*%
%ADD21R,0.09461X0.07887*%
%ADD22R,0.07099X0.07887*%
%ADD23R,0.04737X0.11233*%
%ADD24R,0.07887X0.09461*%
%ADD25R,0.09461X0.07493*%
%ADD26R,0.02965X0.05524*%
D10*
X0071183Y0085933D03*
X0071183Y0095933D03*
X0071183Y0105933D03*
X0071183Y0115933D03*
X0071183Y0125933D03*
X0071183Y0135933D03*
X0071183Y0145933D03*
X0071183Y0155933D03*
X0071183Y0165933D03*
X0071183Y0175933D03*
X0071183Y0185933D03*
X0071183Y0195933D03*
X0071183Y0205933D03*
X0071183Y0215933D03*
X0081183Y0215933D03*
X0091183Y0215933D03*
X0101183Y0215933D03*
X0111183Y0215933D03*
X0121183Y0215933D03*
X0131183Y0215933D03*
X0131183Y0205933D03*
X0131183Y0195933D03*
X0131183Y0185933D03*
X0131183Y0175933D03*
X0131183Y0165933D03*
X0131183Y0155933D03*
X0131183Y0145933D03*
X0131183Y0135933D03*
X0131183Y0125933D03*
X0131183Y0115933D03*
X0131183Y0105933D03*
X0131183Y0095933D03*
X0131183Y0085933D03*
X0081183Y0095933D03*
X0081183Y0115933D03*
X0081183Y0125933D03*
X0081183Y0135933D03*
X0032683Y0133933D03*
X0032683Y0143933D03*
X0032683Y0153933D03*
X0032683Y0163933D03*
X0032683Y0173933D03*
X0032683Y0183933D03*
X0032683Y0193933D03*
X0032683Y0203933D03*
X0032683Y0218933D03*
X0032683Y0228933D03*
X0032683Y0238933D03*
X0032683Y0248933D03*
X0032683Y0258933D03*
X0032683Y0268933D03*
X0032683Y0278933D03*
X0032683Y0288933D03*
X0063683Y0233933D03*
X0073683Y0233933D03*
X0171683Y0248933D03*
X0171683Y0258933D03*
X0171683Y0268933D03*
X0185183Y0214933D03*
X0195183Y0214933D03*
X0222683Y0218933D03*
X0222683Y0208933D03*
X0222683Y0198933D03*
X0222683Y0188933D03*
X0222683Y0178933D03*
X0222683Y0168933D03*
X0222683Y0158933D03*
X0222683Y0148933D03*
X0219683Y0126933D03*
X0209683Y0126933D03*
X0199683Y0126933D03*
X0222683Y0238933D03*
X0222683Y0248933D03*
X0222683Y0258933D03*
X0222683Y0268933D03*
X0222683Y0278933D03*
X0222683Y0288933D03*
X0032683Y0123933D03*
X0032683Y0113933D03*
D11*
X0032683Y0098933D03*
X0087683Y0298933D03*
X0207683Y0298933D03*
D12*
X0132683Y0298933D03*
X0132683Y0288933D03*
X0122683Y0288933D03*
X0122683Y0298933D03*
X0112683Y0298933D03*
X0112683Y0288933D03*
D13*
X0191983Y0282933D03*
X0195183Y0282933D03*
X0198383Y0282933D03*
X0198383Y0273683D03*
X0195183Y0273683D03*
X0191983Y0273683D03*
D14*
X0191183Y0171760D03*
X0196183Y0171760D03*
X0201183Y0171760D03*
X0186183Y0171760D03*
X0186183Y0150106D03*
X0191183Y0150106D03*
X0196183Y0150106D03*
X0201183Y0150106D03*
D15*
X0193683Y0160933D03*
D16*
X0197683Y0096933D03*
X0165683Y0292933D03*
D17*
X0179463Y0292933D03*
X0183904Y0096933D03*
D18*
X0209683Y0142587D03*
X0209683Y0149280D03*
X0209683Y0155587D03*
X0209683Y0162280D03*
D19*
X0207030Y0183933D03*
X0200337Y0183933D03*
X0193030Y0183933D03*
X0186337Y0183933D03*
X0180030Y0151933D03*
X0173337Y0151933D03*
D20*
X0174982Y0194933D03*
X0183384Y0194933D03*
X0195982Y0194933D03*
X0162384Y0194933D03*
D21*
X0164683Y0149972D03*
X0164683Y0129894D03*
D22*
X0181171Y0139933D03*
X0192195Y0139933D03*
D23*
X0148242Y0245173D03*
X0140368Y0245173D03*
X0132494Y0245173D03*
X0124620Y0245173D03*
X0116746Y0245173D03*
X0108872Y0245173D03*
X0100998Y0245173D03*
X0093124Y0245173D03*
X0093124Y0262299D03*
X0100998Y0262299D03*
X0108872Y0262299D03*
X0116746Y0262299D03*
X0124620Y0262299D03*
X0132494Y0262299D03*
X0140368Y0262299D03*
X0148242Y0262299D03*
D24*
X0153644Y0119933D03*
X0173722Y0119933D03*
D25*
X0169683Y0159500D03*
X0169683Y0180366D03*
D26*
X0152423Y0286815D03*
X0148683Y0286815D03*
X0144943Y0286815D03*
X0144943Y0297051D03*
X0148683Y0297051D03*
X0152423Y0297051D03*
M02*
