G75*
%MOIN*%
%OFA0B0*%
%FSLAX25Y25*%
%IPPOS*%
%LPD*%
%AMOC8*
5,1,8,0,0,1.08239X$1,22.5*
%
%ADD10C,0.07400*%
%ADD11OC8,0.07400*%
%ADD12R,0.02500X0.05000*%
%ADD13R,0.02362X0.08661*%
%ADD14R,0.09016X0.09016*%
%ADD15R,0.08000X0.08000*%
%ADD16C,0.08000*%
%ADD17R,0.03937X0.04331*%
%ADD18R,0.04331X0.03937*%
%ADD19R,0.04724X0.07874*%
%ADD20R,0.08661X0.07087*%
%ADD21R,0.06299X0.07087*%
%ADD22R,0.03937X0.10433*%
%ADD23R,0.07087X0.08661*%
%ADD24R,0.08661X0.06693*%
%ADD25R,0.02165X0.04724*%
%ADD26C,0.01200*%
%ADD27C,0.03000*%
%ADD28C,0.03200*%
%ADD29C,0.01400*%
%ADD30C,0.04000*%
%ADD31C,0.02400*%
%ADD32C,0.01600*%
%ADD33C,0.02000*%
D10*
X0071183Y0085933D03*
X0071183Y0095933D03*
X0071183Y0105933D03*
X0071183Y0115933D03*
X0071183Y0125933D03*
X0071183Y0135933D03*
X0071183Y0145933D03*
X0071183Y0155933D03*
X0071183Y0165933D03*
X0071183Y0175933D03*
X0071183Y0185933D03*
X0071183Y0195933D03*
X0071183Y0205933D03*
X0071183Y0215933D03*
X0081183Y0215933D03*
X0091183Y0215933D03*
X0101183Y0215933D03*
X0111183Y0215933D03*
X0121183Y0215933D03*
X0131183Y0215933D03*
X0131183Y0205933D03*
X0131183Y0195933D03*
X0131183Y0185933D03*
X0131183Y0175933D03*
X0131183Y0165933D03*
X0131183Y0155933D03*
X0131183Y0145933D03*
X0131183Y0135933D03*
X0131183Y0125933D03*
X0131183Y0115933D03*
X0131183Y0105933D03*
X0131183Y0095933D03*
X0131183Y0085933D03*
X0081183Y0095933D03*
X0081183Y0115933D03*
X0081183Y0125933D03*
X0081183Y0135933D03*
X0032683Y0133933D03*
X0032683Y0143933D03*
X0032683Y0153933D03*
X0032683Y0163933D03*
X0032683Y0173933D03*
X0032683Y0183933D03*
X0032683Y0193933D03*
X0032683Y0203933D03*
X0032683Y0218933D03*
X0032683Y0228933D03*
X0032683Y0238933D03*
X0032683Y0248933D03*
X0032683Y0258933D03*
X0032683Y0268933D03*
X0032683Y0278933D03*
X0032683Y0288933D03*
X0063683Y0233933D03*
X0073683Y0233933D03*
X0171683Y0248933D03*
X0171683Y0258933D03*
X0171683Y0268933D03*
X0185183Y0214933D03*
X0195183Y0214933D03*
X0222683Y0218933D03*
X0222683Y0208933D03*
X0222683Y0198933D03*
X0222683Y0188933D03*
X0222683Y0178933D03*
X0222683Y0168933D03*
X0222683Y0158933D03*
X0222683Y0148933D03*
X0219683Y0126933D03*
X0209683Y0126933D03*
X0199683Y0126933D03*
X0222683Y0238933D03*
X0222683Y0248933D03*
X0222683Y0258933D03*
X0222683Y0268933D03*
X0222683Y0278933D03*
X0222683Y0288933D03*
X0032683Y0123933D03*
X0032683Y0113933D03*
D11*
X0112683Y0288933D03*
X0112683Y0298933D03*
X0122683Y0298933D03*
X0122683Y0288933D03*
X0132683Y0288933D03*
X0132683Y0298933D03*
D12*
X0191983Y0282933D03*
X0195183Y0282933D03*
X0198383Y0282933D03*
X0198383Y0273683D03*
X0195183Y0273683D03*
X0191983Y0273683D03*
D13*
X0191183Y0171760D03*
X0196183Y0171760D03*
X0201183Y0171760D03*
X0186183Y0171760D03*
X0186183Y0150106D03*
X0191183Y0150106D03*
X0196183Y0150106D03*
X0201183Y0150106D03*
D14*
X0193683Y0160933D03*
D15*
X0197683Y0096933D03*
X0165683Y0292933D03*
D16*
X0179463Y0292933D03*
X0183904Y0096933D03*
D17*
X0209683Y0142587D03*
X0209683Y0149280D03*
X0209683Y0155587D03*
X0209683Y0162280D03*
D18*
X0207030Y0183933D03*
X0200337Y0183933D03*
X0193030Y0183933D03*
X0186337Y0183933D03*
X0180030Y0151933D03*
X0173337Y0151933D03*
D19*
X0174982Y0194933D03*
X0183384Y0194933D03*
X0195982Y0194933D03*
X0162384Y0194933D03*
D20*
X0164683Y0149972D03*
X0164683Y0129894D03*
D21*
X0181171Y0139933D03*
X0192195Y0139933D03*
D22*
X0148242Y0245173D03*
X0140368Y0245173D03*
X0132494Y0245173D03*
X0124620Y0245173D03*
X0116746Y0245173D03*
X0108872Y0245173D03*
X0100998Y0245173D03*
X0093124Y0245173D03*
X0093124Y0262299D03*
X0100998Y0262299D03*
X0108872Y0262299D03*
X0116746Y0262299D03*
X0124620Y0262299D03*
X0132494Y0262299D03*
X0140368Y0262299D03*
X0148242Y0262299D03*
D23*
X0153644Y0119933D03*
X0173722Y0119933D03*
D24*
X0169683Y0159500D03*
X0169683Y0180366D03*
D25*
X0152423Y0286815D03*
X0148683Y0286815D03*
X0144943Y0286815D03*
X0144943Y0297051D03*
X0148683Y0297051D03*
X0152423Y0297051D03*
D26*
X0148683Y0297051D02*
X0148683Y0297033D01*
X0148583Y0296933D01*
X0150683Y0291933D02*
X0141683Y0291933D01*
X0139683Y0293933D01*
X0139683Y0303933D01*
X0137683Y0305933D01*
X0108683Y0305933D01*
X0104683Y0301933D01*
X0104683Y0293933D01*
X0091683Y0280933D01*
X0057683Y0280933D01*
X0049683Y0272933D01*
X0049683Y0224933D01*
X0047683Y0222933D01*
X0047683Y0218933D01*
X0032683Y0218933D01*
X0032683Y0228933D02*
X0046683Y0228933D01*
X0045683Y0238933D02*
X0047683Y0240933D01*
X0047683Y0274933D01*
X0049683Y0276933D01*
X0041683Y0258933D02*
X0032683Y0258933D01*
X0032683Y0248933D02*
X0043683Y0248933D01*
X0045683Y0238933D02*
X0032683Y0238933D01*
X0032683Y0203933D02*
X0051683Y0203933D01*
X0051683Y0193933D02*
X0032683Y0193933D01*
X0032683Y0183933D02*
X0051683Y0183933D01*
X0051683Y0173933D02*
X0032683Y0173933D01*
X0029683Y0168933D02*
X0059683Y0168933D01*
X0061683Y0170933D01*
X0061683Y0208433D01*
X0069183Y0215933D01*
X0071183Y0215933D01*
X0066683Y0223933D02*
X0063683Y0226933D01*
X0063683Y0233933D01*
X0073683Y0233933D02*
X0073683Y0227933D01*
X0075683Y0225933D01*
X0086683Y0225933D01*
X0091183Y0221433D01*
X0091183Y0215933D01*
X0096183Y0220933D02*
X0096183Y0209933D01*
X0110183Y0195933D01*
X0131183Y0195933D01*
X0140683Y0190933D02*
X0076183Y0190933D01*
X0071183Y0185933D01*
X0067683Y0180933D02*
X0065683Y0182933D01*
X0065683Y0193933D01*
X0067683Y0195933D01*
X0071183Y0195933D01*
X0063683Y0202933D02*
X0066683Y0205933D01*
X0071183Y0205933D01*
X0063683Y0202933D02*
X0063683Y0175933D01*
X0068683Y0170933D01*
X0142683Y0170933D01*
X0148683Y0176933D01*
X0148683Y0201933D01*
X0185683Y0238933D01*
X0222683Y0238933D01*
X0224683Y0232933D02*
X0219683Y0232933D01*
X0215683Y0236933D01*
X0186683Y0236933D01*
X0150683Y0200933D01*
X0150683Y0173933D01*
X0137683Y0160933D01*
X0093683Y0160933D01*
X0087683Y0166933D01*
X0090683Y0155933D02*
X0087683Y0152933D01*
X0081683Y0152933D01*
X0073683Y0160933D01*
X0067683Y0160933D01*
X0065683Y0158933D01*
X0065683Y0152933D01*
X0064683Y0151933D01*
X0059683Y0151933D01*
X0058683Y0152933D01*
X0058683Y0159933D01*
X0058683Y0163933D02*
X0032683Y0163933D01*
X0027683Y0166933D02*
X0029683Y0168933D01*
X0027683Y0166933D02*
X0027683Y0155933D01*
X0029683Y0153933D01*
X0032683Y0153933D01*
X0029683Y0148933D02*
X0066683Y0148933D01*
X0071183Y0153433D01*
X0071183Y0155933D01*
X0071183Y0155433D01*
X0080683Y0145933D01*
X0085683Y0140933D02*
X0066683Y0140933D01*
X0065183Y0139433D01*
X0065183Y0122433D01*
X0063683Y0120933D01*
X0059683Y0120933D01*
X0071183Y0135933D02*
X0071683Y0135933D01*
X0076683Y0130933D01*
X0137683Y0130933D01*
X0154683Y0147933D01*
X0154683Y0198933D01*
X0186683Y0230933D01*
X0193683Y0230933D01*
X0195683Y0232933D01*
X0191683Y0233933D02*
X0186683Y0233933D01*
X0152683Y0199933D01*
X0152683Y0152933D01*
X0140683Y0140933D01*
X0125683Y0140933D01*
X0122683Y0137933D01*
X0119683Y0137933D01*
X0131183Y0155933D02*
X0090683Y0155933D01*
X0090683Y0150933D02*
X0090683Y0145933D01*
X0085683Y0140933D01*
X0083683Y0155933D02*
X0073683Y0165933D01*
X0071183Y0165933D01*
X0064683Y0169933D02*
X0062683Y0167933D01*
X0062683Y0154933D01*
X0067683Y0180933D02*
X0141683Y0180933D01*
X0146683Y0185933D01*
X0146683Y0202933D01*
X0192683Y0248933D01*
X0222683Y0248933D01*
X0222683Y0258933D02*
X0199683Y0258933D01*
X0144683Y0203933D01*
X0144683Y0194933D01*
X0140683Y0190933D01*
X0158683Y0185933D02*
X0158683Y0170933D01*
X0177683Y0170933D01*
X0177683Y0179933D01*
X0188683Y0179933D01*
X0188683Y0198933D01*
X0168683Y0198933D01*
X0168683Y0185933D01*
X0158683Y0185933D01*
X0158683Y0185114D02*
X0188683Y0185114D01*
X0188683Y0183916D02*
X0158683Y0183916D01*
X0158683Y0182717D02*
X0188683Y0182717D01*
X0188683Y0181519D02*
X0158683Y0181519D01*
X0158683Y0180320D02*
X0188683Y0180320D01*
X0187183Y0177933D02*
X0187183Y0156933D01*
X0175683Y0156933D01*
X0175683Y0143933D01*
X0158683Y0143933D01*
X0158683Y0168933D01*
X0179683Y0168933D01*
X0179683Y0177933D01*
X0187183Y0177933D01*
X0187183Y0177923D02*
X0179683Y0177923D01*
X0179683Y0176725D02*
X0187183Y0176725D01*
X0187183Y0175526D02*
X0179683Y0175526D01*
X0179683Y0174328D02*
X0187183Y0174328D01*
X0187183Y0173129D02*
X0179683Y0173129D01*
X0179683Y0171931D02*
X0187183Y0171931D01*
X0187183Y0170732D02*
X0179683Y0170732D01*
X0179683Y0169534D02*
X0187183Y0169534D01*
X0187183Y0168335D02*
X0158683Y0168335D01*
X0158683Y0167137D02*
X0187183Y0167137D01*
X0187183Y0165938D02*
X0158683Y0165938D01*
X0158683Y0164740D02*
X0187183Y0164740D01*
X0187183Y0163541D02*
X0158683Y0163541D01*
X0158683Y0162343D02*
X0187183Y0162343D01*
X0187183Y0161144D02*
X0158683Y0161144D01*
X0158683Y0159945D02*
X0187183Y0159945D01*
X0187183Y0158747D02*
X0158683Y0158747D01*
X0158683Y0157548D02*
X0187183Y0157548D01*
X0188683Y0153933D02*
X0193683Y0153933D01*
X0193683Y0144933D01*
X0196683Y0141933D01*
X0206683Y0141933D01*
X0207683Y0142933D01*
X0212483Y0142933D01*
X0212483Y0130297D01*
X0212970Y0129120D01*
X0213683Y0128408D01*
X0213683Y0121933D01*
X0205683Y0121933D01*
X0205683Y0137933D01*
X0195683Y0137933D01*
X0195683Y0135933D01*
X0188683Y0135933D01*
X0188683Y0153933D01*
X0188683Y0152754D02*
X0193683Y0152754D01*
X0193683Y0151556D02*
X0188683Y0151556D01*
X0188683Y0150357D02*
X0193683Y0150357D01*
X0193683Y0149159D02*
X0188683Y0149159D01*
X0188683Y0147960D02*
X0193683Y0147960D01*
X0193683Y0146762D02*
X0188683Y0146762D01*
X0188683Y0145563D02*
X0193683Y0145563D01*
X0194251Y0144365D02*
X0188683Y0144365D01*
X0188683Y0143166D02*
X0195450Y0143166D01*
X0196648Y0141968D02*
X0188683Y0141968D01*
X0188683Y0140769D02*
X0212483Y0140769D01*
X0212483Y0139571D02*
X0188683Y0139571D01*
X0188683Y0138372D02*
X0212483Y0138372D01*
X0212483Y0137174D02*
X0205683Y0137174D01*
X0205683Y0135975D02*
X0212483Y0135975D01*
X0212483Y0134777D02*
X0205683Y0134777D01*
X0205683Y0133578D02*
X0212483Y0133578D01*
X0212483Y0132380D02*
X0205683Y0132380D01*
X0205683Y0131181D02*
X0212483Y0131181D01*
X0212613Y0129983D02*
X0205683Y0129983D01*
X0205683Y0128784D02*
X0213306Y0128784D01*
X0213683Y0127586D02*
X0205683Y0127586D01*
X0205683Y0126387D02*
X0213683Y0126387D01*
X0213683Y0125189D02*
X0205683Y0125189D01*
X0205683Y0123990D02*
X0213683Y0123990D01*
X0213683Y0122792D02*
X0205683Y0122792D01*
X0195683Y0135975D02*
X0188683Y0135975D01*
X0188683Y0137174D02*
X0195683Y0137174D01*
X0206718Y0141968D02*
X0212483Y0141968D01*
X0186183Y0150106D02*
X0185683Y0150606D01*
X0185683Y0151933D01*
X0175683Y0151556D02*
X0158683Y0151556D01*
X0158683Y0152754D02*
X0175683Y0152754D01*
X0175683Y0153953D02*
X0158683Y0153953D01*
X0158683Y0155151D02*
X0175683Y0155151D01*
X0175683Y0156350D02*
X0158683Y0156350D01*
X0158683Y0150357D02*
X0175683Y0150357D01*
X0175683Y0149159D02*
X0158683Y0149159D01*
X0158683Y0147960D02*
X0175683Y0147960D01*
X0175683Y0146762D02*
X0158683Y0146762D01*
X0158683Y0145563D02*
X0175683Y0145563D01*
X0175683Y0144365D02*
X0158683Y0144365D01*
X0158683Y0171931D02*
X0177683Y0171931D01*
X0177683Y0173129D02*
X0158683Y0173129D01*
X0158683Y0174328D02*
X0177683Y0174328D01*
X0177683Y0175526D02*
X0158683Y0175526D01*
X0158683Y0176725D02*
X0177683Y0176725D01*
X0177683Y0177923D02*
X0158683Y0177923D01*
X0158683Y0179122D02*
X0177683Y0179122D01*
X0168683Y0186313D02*
X0188683Y0186313D01*
X0188683Y0187511D02*
X0168683Y0187511D01*
X0168683Y0188710D02*
X0188683Y0188710D01*
X0188683Y0189908D02*
X0168683Y0189908D01*
X0168683Y0191107D02*
X0188683Y0191107D01*
X0188683Y0192305D02*
X0168683Y0192305D01*
X0168683Y0193504D02*
X0188683Y0193504D01*
X0188683Y0194702D02*
X0168683Y0194702D01*
X0168683Y0195901D02*
X0188683Y0195901D01*
X0188683Y0197099D02*
X0168683Y0197099D01*
X0168683Y0198298D02*
X0188683Y0198298D01*
X0179549Y0209299D02*
X0185183Y0214933D01*
X0179549Y0209299D02*
X0179498Y0209251D01*
X0179444Y0209206D01*
X0179388Y0209164D01*
X0179330Y0209125D01*
X0179270Y0209089D01*
X0179207Y0209057D01*
X0179143Y0209028D01*
X0179078Y0209003D01*
X0179011Y0208982D01*
X0178943Y0208964D01*
X0178874Y0208951D01*
X0178805Y0208941D01*
X0178735Y0208935D01*
X0178665Y0208933D01*
X0170683Y0208933D01*
X0155683Y0220933D02*
X0188683Y0253933D01*
X0188683Y0279933D01*
X0191683Y0282933D01*
X0191983Y0282933D01*
X0195183Y0282933D02*
X0195183Y0285433D01*
X0196683Y0286933D01*
X0211683Y0286933D01*
X0219683Y0294933D01*
X0225683Y0294933D01*
X0228683Y0291933D01*
X0228683Y0281933D01*
X0225683Y0278933D01*
X0222683Y0278933D01*
X0222683Y0268933D02*
X0227683Y0268933D01*
X0228683Y0267933D01*
X0228683Y0236933D01*
X0224683Y0232933D01*
X0195683Y0259933D02*
X0198383Y0262633D01*
X0198383Y0273683D01*
X0195183Y0273683D02*
X0195183Y0276433D01*
X0196683Y0277933D01*
X0211683Y0277933D01*
X0222683Y0288933D01*
X0209683Y0281933D02*
X0208683Y0282933D01*
X0198383Y0282933D01*
X0191983Y0273683D02*
X0191683Y0271383D01*
X0191683Y0253933D01*
X0154683Y0216933D01*
X0152683Y0216933D01*
X0151683Y0220933D02*
X0155683Y0220933D01*
X0151683Y0220933D02*
X0147683Y0216933D01*
X0136683Y0226933D02*
X0136683Y0230933D01*
X0135683Y0231933D01*
X0136683Y0226933D02*
X0131183Y0221433D01*
X0131183Y0215933D01*
X0112683Y0228933D02*
X0112683Y0251933D01*
X0108683Y0255933D01*
X0108683Y0262110D01*
X0108872Y0262299D01*
X0108683Y0262488D01*
X0108683Y0272933D01*
X0107683Y0273933D01*
X0107683Y0280933D01*
X0101183Y0283933D02*
X0101183Y0262484D01*
X0100998Y0262299D01*
X0100998Y0255618D01*
X0104683Y0251933D01*
X0104683Y0235933D01*
X0108683Y0231933D01*
X0101183Y0225933D02*
X0101183Y0244988D01*
X0100998Y0245173D01*
X0097183Y0251433D02*
X0097183Y0230433D01*
X0096683Y0229933D01*
X0093183Y0232433D02*
X0093183Y0245114D01*
X0093124Y0245173D01*
X0097183Y0251433D02*
X0093183Y0255433D01*
X0093183Y0262240D01*
X0093124Y0262299D01*
X0093124Y0279374D01*
X0106683Y0292933D01*
X0106683Y0300933D01*
X0109683Y0303933D01*
X0115683Y0303933D01*
X0117683Y0301933D01*
X0117683Y0295933D01*
X0122683Y0290933D01*
X0122683Y0288933D01*
X0117683Y0291933D02*
X0117683Y0284451D01*
X0118049Y0283567D02*
X0119683Y0281933D01*
X0129683Y0281933D01*
X0118049Y0283567D02*
X0118001Y0283618D01*
X0117956Y0283672D01*
X0117914Y0283728D01*
X0117875Y0283786D01*
X0117839Y0283846D01*
X0117807Y0283909D01*
X0117778Y0283973D01*
X0117753Y0284038D01*
X0117732Y0284105D01*
X0117714Y0284173D01*
X0117701Y0284242D01*
X0117691Y0284311D01*
X0117685Y0284381D01*
X0117683Y0284451D01*
X0112683Y0288933D02*
X0106183Y0288933D01*
X0101183Y0283933D01*
X0112683Y0296933D02*
X0117683Y0291933D01*
X0112683Y0296933D02*
X0112683Y0298933D01*
X0140183Y0273933D02*
X0140183Y0262484D01*
X0140368Y0262299D01*
X0148183Y0262358D02*
X0148183Y0272933D01*
X0153683Y0269933D02*
X0153683Y0246933D01*
X0151683Y0244933D01*
X0148482Y0244933D01*
X0148242Y0245173D01*
X0144183Y0246433D02*
X0142923Y0245173D01*
X0140368Y0245173D01*
X0140183Y0245358D01*
X0144183Y0246433D02*
X0144183Y0277933D01*
X0144683Y0278433D01*
X0144883Y0283933D02*
X0145801Y0283933D01*
X0148683Y0286815D01*
X0144943Y0286815D02*
X0144883Y0286755D01*
X0144883Y0283933D01*
X0152423Y0290193D02*
X0150683Y0291933D01*
X0152423Y0290193D02*
X0152423Y0286815D01*
X0148183Y0262358D02*
X0148242Y0262299D01*
X0101183Y0225933D02*
X0096183Y0220933D01*
X0081183Y0221433D02*
X0081183Y0215933D01*
X0081183Y0221433D02*
X0078683Y0223933D01*
X0066683Y0223933D01*
X0025183Y0281433D02*
X0025183Y0108933D01*
X0026183Y0107933D01*
X0041683Y0107933D01*
X0032683Y0113933D02*
X0027683Y0118933D01*
X0027683Y0146933D01*
X0029683Y0148933D01*
X0025183Y0281433D02*
X0032683Y0288933D01*
X0193030Y0183933D02*
X0200337Y0183933D01*
X0200337Y0181280D01*
X0201183Y0180433D01*
X0201183Y0171760D01*
X0222683Y0168933D02*
X0226683Y0168933D01*
X0228683Y0170933D01*
X0228683Y0193933D01*
D27*
X0228683Y0193933D03*
X0200683Y0193933D03*
X0200683Y0197933D03*
X0200683Y0201933D03*
X0191683Y0205933D03*
X0187683Y0205933D03*
X0183683Y0205933D03*
X0170683Y0203933D03*
X0165683Y0203933D03*
X0170683Y0208933D03*
X0152683Y0216933D03*
X0147683Y0216933D03*
X0135683Y0231933D03*
X0124683Y0235933D03*
X0120683Y0235933D03*
X0116683Y0235933D03*
X0118683Y0228933D03*
X0112683Y0228933D03*
X0108683Y0231933D03*
X0096683Y0229933D03*
X0093183Y0232433D03*
X0117683Y0253933D03*
X0121683Y0253933D03*
X0125683Y0253933D03*
X0140183Y0273933D03*
X0144683Y0278433D03*
X0148183Y0272933D03*
X0153683Y0269933D03*
X0129683Y0281933D03*
X0107683Y0280933D03*
X0049683Y0276933D03*
X0041683Y0258933D03*
X0043683Y0248933D03*
X0045683Y0238933D03*
X0046683Y0228933D03*
X0047683Y0218933D03*
X0051683Y0203933D03*
X0051683Y0193933D03*
X0051683Y0183933D03*
X0051683Y0173933D03*
X0058683Y0163933D03*
X0058683Y0159933D03*
X0062683Y0154933D03*
X0064683Y0169933D03*
X0083683Y0155933D03*
X0090683Y0150933D03*
X0080683Y0145933D03*
X0087683Y0166933D03*
X0119683Y0137933D03*
X0153683Y0128933D03*
X0176683Y0183933D03*
X0176683Y0187933D03*
X0181683Y0187933D03*
X0181683Y0183933D03*
X0195683Y0232933D03*
X0191683Y0233933D03*
X0195683Y0259933D03*
X0209683Y0281933D03*
X0059683Y0120933D03*
X0041683Y0107933D03*
D28*
X0111183Y0215933D02*
X0111183Y0221433D01*
X0113683Y0223933D01*
X0121683Y0223933D01*
X0133683Y0235933D01*
X0158683Y0235933D01*
X0171683Y0248933D01*
X0171683Y0258933D02*
X0175683Y0258933D01*
X0178683Y0261933D01*
X0178683Y0280933D01*
X0173183Y0286433D01*
X0173183Y0300933D01*
X0170683Y0303433D01*
X0147183Y0303433D01*
X0146683Y0302933D01*
X0146683Y0299933D01*
X0110872Y0216244D02*
X0111183Y0215933D01*
X0153683Y0128933D02*
X0153644Y0128894D01*
X0153644Y0119933D01*
D29*
X0033760Y0076533D02*
X0025283Y0085010D01*
X0025283Y0094064D01*
X0025308Y0094005D01*
X0027755Y0091558D01*
X0030953Y0090233D01*
X0034414Y0090233D01*
X0037611Y0091558D01*
X0040059Y0094005D01*
X0041383Y0097203D01*
X0041383Y0100664D01*
X0040059Y0103861D01*
X0037887Y0106033D01*
X0039623Y0106033D01*
X0040097Y0105559D01*
X0041126Y0105133D01*
X0042240Y0105133D01*
X0043269Y0105559D01*
X0044057Y0106347D01*
X0044483Y0107376D01*
X0044483Y0108490D01*
X0044057Y0109519D01*
X0043269Y0110307D01*
X0042240Y0110733D01*
X0041126Y0110733D01*
X0040097Y0110307D01*
X0039623Y0109833D01*
X0035654Y0109833D01*
X0036922Y0111101D01*
X0037683Y0112938D01*
X0037683Y0114928D01*
X0036922Y0116765D01*
X0035515Y0118172D01*
X0033678Y0118933D01*
X0035515Y0119694D01*
X0036922Y0121101D01*
X0037683Y0122938D01*
X0037683Y0124928D01*
X0036922Y0126765D01*
X0035515Y0128172D01*
X0033678Y0128933D01*
X0035515Y0129694D01*
X0036922Y0131101D01*
X0037683Y0132938D01*
X0037683Y0134928D01*
X0036922Y0136765D01*
X0035515Y0138172D01*
X0033678Y0138933D01*
X0031688Y0138933D01*
X0029851Y0138172D01*
X0029583Y0137904D01*
X0029583Y0146146D01*
X0030470Y0147033D01*
X0066227Y0147033D01*
X0066183Y0146928D01*
X0066183Y0144938D01*
X0066944Y0143101D01*
X0067212Y0142833D01*
X0065896Y0142833D01*
X0064396Y0141333D01*
X0063283Y0140220D01*
X0063283Y0123220D01*
X0062896Y0122833D01*
X0061743Y0122833D01*
X0061269Y0123307D01*
X0060240Y0123733D01*
X0059126Y0123733D01*
X0058097Y0123307D01*
X0057309Y0122519D01*
X0056883Y0121490D01*
X0056883Y0120376D01*
X0057309Y0119347D01*
X0058097Y0118559D01*
X0059126Y0118133D01*
X0060240Y0118133D01*
X0061269Y0118559D01*
X0061743Y0119033D01*
X0064470Y0119033D01*
X0065583Y0120146D01*
X0067083Y0121646D01*
X0067083Y0122962D01*
X0068351Y0121694D01*
X0070188Y0120933D01*
X0068351Y0120172D01*
X0066944Y0118765D01*
X0066183Y0116928D01*
X0066183Y0114938D01*
X0066944Y0113101D01*
X0068351Y0111694D01*
X0070188Y0110933D01*
X0072178Y0110933D01*
X0074015Y0111694D01*
X0075422Y0113101D01*
X0076183Y0114938D01*
X0076183Y0116928D01*
X0075422Y0118765D01*
X0074015Y0120172D01*
X0072178Y0120933D01*
X0070188Y0120933D01*
X0072178Y0120933D01*
X0074015Y0121694D01*
X0075422Y0123101D01*
X0076183Y0124938D01*
X0076944Y0123101D01*
X0078351Y0121694D01*
X0080188Y0120933D01*
X0078351Y0120172D01*
X0076944Y0118765D01*
X0076183Y0116928D01*
X0076183Y0114938D01*
X0076944Y0113101D01*
X0078351Y0111694D01*
X0080188Y0110933D01*
X0082178Y0110933D01*
X0084015Y0111694D01*
X0085422Y0113101D01*
X0086183Y0114938D01*
X0086183Y0116928D01*
X0085422Y0118765D01*
X0084015Y0120172D01*
X0082178Y0120933D01*
X0080188Y0120933D01*
X0082178Y0120933D01*
X0084015Y0121694D01*
X0085422Y0123101D01*
X0086183Y0124938D01*
X0086183Y0126928D01*
X0085422Y0128765D01*
X0085154Y0129033D01*
X0127212Y0129033D01*
X0126944Y0128765D01*
X0126183Y0126928D01*
X0126183Y0124938D01*
X0126944Y0123101D01*
X0128351Y0121694D01*
X0130188Y0120933D01*
X0128351Y0120172D01*
X0126944Y0118765D01*
X0126183Y0116928D01*
X0126183Y0114938D01*
X0126944Y0113101D01*
X0128351Y0111694D01*
X0130188Y0110933D01*
X0132178Y0110933D01*
X0134015Y0111694D01*
X0135422Y0113101D01*
X0136183Y0114938D01*
X0136183Y0116928D01*
X0135422Y0118765D01*
X0134015Y0120172D01*
X0132178Y0120933D01*
X0130188Y0120933D01*
X0132178Y0120933D01*
X0134015Y0121694D01*
X0135422Y0123101D01*
X0136183Y0124938D01*
X0136183Y0126928D01*
X0135422Y0128765D01*
X0135154Y0129033D01*
X0138470Y0129033D01*
X0155470Y0146033D01*
X0156583Y0147146D01*
X0156583Y0198146D01*
X0167883Y0209446D01*
X0167883Y0208376D01*
X0168309Y0207347D01*
X0169097Y0206559D01*
X0170126Y0206133D01*
X0171240Y0206133D01*
X0172269Y0206559D01*
X0172743Y0207033D01*
X0179452Y0207033D01*
X0179566Y0207147D01*
X0180176Y0207399D01*
X0180336Y0207399D01*
X0183256Y0210319D01*
X0184188Y0209933D01*
X0186178Y0209933D01*
X0188015Y0210694D01*
X0189422Y0212101D01*
X0190183Y0213938D01*
X0190183Y0215928D01*
X0189422Y0217765D01*
X0188015Y0219172D01*
X0186178Y0219933D01*
X0184188Y0219933D01*
X0182351Y0219172D01*
X0180944Y0217765D01*
X0180183Y0215928D01*
X0180183Y0213938D01*
X0180569Y0213006D01*
X0178762Y0211199D01*
X0178396Y0210833D01*
X0172743Y0210833D01*
X0172269Y0211307D01*
X0171240Y0211733D01*
X0170170Y0211733D01*
X0187470Y0229033D01*
X0194470Y0229033D01*
X0195570Y0230133D01*
X0196240Y0230133D01*
X0197269Y0230559D01*
X0198057Y0231347D01*
X0198483Y0232376D01*
X0198483Y0233490D01*
X0198057Y0234519D01*
X0197543Y0235033D01*
X0214896Y0235033D01*
X0218896Y0231033D01*
X0225470Y0231033D01*
X0226583Y0232146D01*
X0230083Y0235646D01*
X0230083Y0196384D01*
X0229240Y0196733D01*
X0228126Y0196733D01*
X0227097Y0196307D01*
X0226309Y0195519D01*
X0225883Y0194490D01*
X0225883Y0193376D01*
X0226288Y0192400D01*
X0225515Y0193172D01*
X0223678Y0193933D01*
X0221688Y0193933D01*
X0219851Y0193172D01*
X0218983Y0192304D01*
X0218983Y0214566D01*
X0219481Y0215064D01*
X0219851Y0214694D01*
X0221688Y0213933D01*
X0223678Y0213933D01*
X0225515Y0214694D01*
X0226922Y0216101D01*
X0227683Y0217938D01*
X0227683Y0219928D01*
X0226922Y0221765D01*
X0225515Y0223172D01*
X0223678Y0223933D01*
X0221688Y0223933D01*
X0219851Y0223172D01*
X0218912Y0222233D01*
X0218027Y0222233D01*
X0216814Y0221731D01*
X0213814Y0218731D01*
X0212885Y0217802D01*
X0212383Y0216589D01*
X0212383Y0158859D01*
X0212190Y0159052D01*
X0207176Y0159052D01*
X0206415Y0158290D01*
X0206415Y0152883D01*
X0206864Y0152433D01*
X0206415Y0151983D01*
X0206415Y0151380D01*
X0206160Y0151380D01*
X0204813Y0150033D01*
X0203664Y0148884D01*
X0203664Y0154975D01*
X0202903Y0155737D01*
X0199463Y0155737D01*
X0198702Y0154975D01*
X0198702Y0146033D01*
X0198664Y0146033D01*
X0198664Y0154975D01*
X0197903Y0155737D01*
X0194566Y0155737D01*
X0194470Y0155833D01*
X0188770Y0155833D01*
X0189083Y0156146D01*
X0189083Y0178033D01*
X0189470Y0178033D01*
X0190583Y0179146D01*
X0190583Y0180665D01*
X0195733Y0180665D01*
X0196495Y0181426D01*
X0196495Y0182033D01*
X0196871Y0182033D01*
X0196871Y0181426D01*
X0197633Y0180665D01*
X0198437Y0180665D01*
X0198437Y0180493D01*
X0199283Y0179646D01*
X0199283Y0177210D01*
X0198702Y0176629D01*
X0198702Y0166891D01*
X0199463Y0166129D01*
X0202903Y0166129D01*
X0203664Y0166891D01*
X0203664Y0176629D01*
X0203083Y0177210D01*
X0203083Y0180707D01*
X0203802Y0181426D01*
X0203802Y0186440D01*
X0203040Y0187202D01*
X0197633Y0187202D01*
X0196871Y0186440D01*
X0196871Y0185833D01*
X0196495Y0185833D01*
X0196495Y0186440D01*
X0195733Y0187202D01*
X0190583Y0187202D01*
X0190583Y0199720D01*
X0189470Y0200833D01*
X0167896Y0200833D01*
X0166783Y0199720D01*
X0166783Y0187833D01*
X0157896Y0187833D01*
X0156783Y0186720D01*
X0156783Y0170146D01*
X0156996Y0169933D01*
X0156783Y0169720D01*
X0156783Y0143146D01*
X0157896Y0142033D01*
X0176470Y0142033D01*
X0177583Y0143146D01*
X0177583Y0148665D01*
X0182733Y0148665D01*
X0183495Y0149426D01*
X0183495Y0149433D01*
X0183702Y0149433D01*
X0183702Y0145237D01*
X0184463Y0144476D01*
X0186783Y0144476D01*
X0186783Y0135146D01*
X0187896Y0134033D01*
X0196470Y0134033D01*
X0197583Y0135146D01*
X0197583Y0136033D01*
X0203783Y0136033D01*
X0203783Y0129904D01*
X0202515Y0131172D01*
X0200678Y0131933D01*
X0198688Y0131933D01*
X0196851Y0131172D01*
X0195444Y0129765D01*
X0194683Y0127928D01*
X0194683Y0126600D01*
X0191316Y0123233D01*
X0178566Y0123233D01*
X0178566Y0124802D01*
X0177804Y0125564D01*
X0169641Y0125564D01*
X0168879Y0124802D01*
X0168879Y0115064D01*
X0169641Y0114302D01*
X0177804Y0114302D01*
X0178566Y0115064D01*
X0178566Y0116633D01*
X0193339Y0116633D01*
X0194552Y0117135D01*
X0199350Y0121933D01*
X0200678Y0121933D01*
X0202515Y0122694D01*
X0203783Y0123962D01*
X0203783Y0121146D01*
X0204896Y0120033D01*
X0214470Y0120033D01*
X0215583Y0121146D01*
X0215583Y0123962D01*
X0216383Y0123162D01*
X0216383Y0103300D01*
X0213316Y0100233D01*
X0202983Y0100233D01*
X0202983Y0101472D01*
X0202222Y0102233D01*
X0193145Y0102233D01*
X0192383Y0101472D01*
X0192383Y0092395D01*
X0193145Y0091633D01*
X0202222Y0091633D01*
X0202983Y0092395D01*
X0202983Y0093633D01*
X0215339Y0093633D01*
X0216552Y0094135D01*
X0217481Y0095064D01*
X0221552Y0099135D01*
X0222481Y0100064D01*
X0222983Y0101277D01*
X0222983Y0123162D01*
X0223922Y0124101D01*
X0224683Y0125938D01*
X0224683Y0127928D01*
X0223922Y0129765D01*
X0222515Y0131172D01*
X0220678Y0131933D01*
X0219350Y0131933D01*
X0218983Y0132300D01*
X0218983Y0145562D01*
X0219851Y0144694D01*
X0221688Y0143933D01*
X0223678Y0143933D01*
X0225515Y0144694D01*
X0226922Y0146101D01*
X0227683Y0147938D01*
X0227683Y0149928D01*
X0226922Y0151765D01*
X0225515Y0153172D01*
X0223678Y0153933D01*
X0225515Y0154694D01*
X0226922Y0156101D01*
X0227683Y0157938D01*
X0227683Y0159928D01*
X0226922Y0161765D01*
X0225515Y0163172D01*
X0223678Y0163933D01*
X0225515Y0164694D01*
X0226922Y0166101D01*
X0227308Y0167033D01*
X0227470Y0167033D01*
X0228583Y0168146D01*
X0230083Y0169646D01*
X0230083Y0085010D01*
X0221606Y0076533D01*
X0141950Y0076533D01*
X0145552Y0080135D01*
X0146481Y0081064D01*
X0146983Y0082277D01*
X0146983Y0108606D01*
X0152680Y0114302D01*
X0157725Y0114302D01*
X0158487Y0115064D01*
X0158487Y0124802D01*
X0157725Y0125564D01*
X0156544Y0125564D01*
X0156544Y0128261D01*
X0156583Y0128356D01*
X0156583Y0129510D01*
X0156142Y0130576D01*
X0155326Y0131392D01*
X0154260Y0131833D01*
X0153106Y0131833D01*
X0152040Y0131392D01*
X0151185Y0130536D01*
X0150744Y0129471D01*
X0150744Y0125564D01*
X0149562Y0125564D01*
X0148800Y0124802D01*
X0148800Y0119757D01*
X0140885Y0111842D01*
X0140383Y0110629D01*
X0140383Y0084300D01*
X0137316Y0081233D01*
X0088050Y0081233D01*
X0084483Y0084800D01*
X0084483Y0092162D01*
X0085422Y0093101D01*
X0086183Y0094938D01*
X0086183Y0096928D01*
X0085422Y0098765D01*
X0084015Y0100172D01*
X0082178Y0100933D01*
X0080188Y0100933D01*
X0078351Y0100172D01*
X0076944Y0098765D01*
X0076183Y0096928D01*
X0076183Y0094938D01*
X0076944Y0093101D01*
X0077883Y0092162D01*
X0077883Y0082777D01*
X0078385Y0081564D01*
X0083416Y0076533D01*
X0033760Y0076533D01*
X0032833Y0077460D02*
X0082489Y0077460D01*
X0081091Y0078859D02*
X0031434Y0078859D01*
X0030036Y0080257D02*
X0079692Y0080257D01*
X0078347Y0081656D02*
X0073922Y0081656D01*
X0074015Y0081694D02*
X0075422Y0083101D01*
X0076183Y0084938D01*
X0076183Y0086928D01*
X0075422Y0088765D01*
X0074015Y0090172D01*
X0072178Y0090933D01*
X0070188Y0090933D01*
X0068351Y0090172D01*
X0066944Y0088765D01*
X0066183Y0086928D01*
X0066183Y0084938D01*
X0066944Y0083101D01*
X0068351Y0081694D01*
X0070188Y0080933D01*
X0072178Y0080933D01*
X0074015Y0081694D01*
X0075375Y0083054D02*
X0077883Y0083054D01*
X0077883Y0084453D02*
X0075982Y0084453D01*
X0076183Y0085851D02*
X0077883Y0085851D01*
X0077883Y0087250D02*
X0076050Y0087250D01*
X0075470Y0088648D02*
X0077883Y0088648D01*
X0077883Y0090047D02*
X0074140Y0090047D01*
X0077201Y0092844D02*
X0038897Y0092844D01*
X0040157Y0094242D02*
X0076471Y0094242D01*
X0076183Y0095641D02*
X0040736Y0095641D01*
X0041315Y0097039D02*
X0076229Y0097039D01*
X0076809Y0098438D02*
X0041383Y0098438D01*
X0041383Y0099836D02*
X0078015Y0099836D01*
X0074954Y0102633D02*
X0127412Y0102633D01*
X0126944Y0103101D02*
X0128351Y0101694D01*
X0130188Y0100933D01*
X0132178Y0100933D01*
X0134015Y0101694D01*
X0135422Y0103101D01*
X0136183Y0104938D01*
X0136183Y0106928D01*
X0135422Y0108765D01*
X0134015Y0110172D01*
X0132178Y0110933D01*
X0130188Y0110933D01*
X0128351Y0110172D01*
X0126944Y0108765D01*
X0126183Y0106928D01*
X0126183Y0104938D01*
X0126944Y0103101D01*
X0126559Y0104032D02*
X0075808Y0104032D01*
X0076183Y0104938D02*
X0075422Y0103101D01*
X0074015Y0101694D01*
X0072178Y0100933D01*
X0070188Y0100933D01*
X0068351Y0101694D01*
X0066944Y0103101D01*
X0066183Y0104938D01*
X0066183Y0106928D01*
X0066944Y0108765D01*
X0068351Y0110172D01*
X0070188Y0110933D01*
X0072178Y0110933D01*
X0074015Y0110172D01*
X0075422Y0108765D01*
X0076183Y0106928D01*
X0076183Y0104938D01*
X0076183Y0105430D02*
X0126183Y0105430D01*
X0126183Y0106829D02*
X0076183Y0106829D01*
X0075645Y0108227D02*
X0126721Y0108227D01*
X0127805Y0109626D02*
X0074561Y0109626D01*
X0072398Y0111024D02*
X0079968Y0111024D01*
X0082398Y0111024D02*
X0129968Y0111024D01*
X0132398Y0111024D02*
X0140547Y0111024D01*
X0140383Y0109626D02*
X0134561Y0109626D01*
X0135645Y0108227D02*
X0140383Y0108227D01*
X0140383Y0106829D02*
X0136183Y0106829D01*
X0136183Y0105430D02*
X0140383Y0105430D01*
X0140383Y0104032D02*
X0135808Y0104032D01*
X0134954Y0102633D02*
X0140383Y0102633D01*
X0140383Y0101235D02*
X0132906Y0101235D01*
X0132178Y0100933D02*
X0134015Y0100172D01*
X0135422Y0098765D01*
X0136183Y0096928D01*
X0136183Y0094938D01*
X0135422Y0093101D01*
X0134015Y0091694D01*
X0132178Y0090933D01*
X0130188Y0090933D01*
X0128351Y0091694D01*
X0126944Y0093101D01*
X0126183Y0094938D01*
X0126183Y0096928D01*
X0126944Y0098765D01*
X0128351Y0100172D01*
X0130188Y0100933D01*
X0132178Y0100933D01*
X0134351Y0099836D02*
X0140383Y0099836D01*
X0140383Y0098438D02*
X0135558Y0098438D01*
X0136137Y0097039D02*
X0140383Y0097039D01*
X0140383Y0095641D02*
X0136183Y0095641D01*
X0135895Y0094242D02*
X0140383Y0094242D01*
X0140383Y0092844D02*
X0135165Y0092844D01*
X0133414Y0091445D02*
X0140383Y0091445D01*
X0140383Y0090047D02*
X0084483Y0090047D01*
X0084483Y0091445D02*
X0128952Y0091445D01*
X0127201Y0092844D02*
X0085165Y0092844D01*
X0085895Y0094242D02*
X0126471Y0094242D01*
X0126183Y0095641D02*
X0086183Y0095641D01*
X0086137Y0097039D02*
X0126229Y0097039D01*
X0126809Y0098438D02*
X0085558Y0098438D01*
X0084351Y0099836D02*
X0128015Y0099836D01*
X0129460Y0101235D02*
X0072906Y0101235D01*
X0069460Y0101235D02*
X0041146Y0101235D01*
X0040567Y0102633D02*
X0067412Y0102633D01*
X0066559Y0104032D02*
X0039888Y0104032D01*
X0040408Y0105430D02*
X0038489Y0105430D01*
X0042958Y0105430D02*
X0066183Y0105430D01*
X0066183Y0106829D02*
X0044256Y0106829D01*
X0044483Y0108227D02*
X0066721Y0108227D01*
X0067805Y0109626D02*
X0043950Y0109626D01*
X0037469Y0112423D02*
X0067622Y0112423D01*
X0066646Y0113821D02*
X0037683Y0113821D01*
X0037562Y0115220D02*
X0066183Y0115220D01*
X0066183Y0116618D02*
X0036983Y0116618D01*
X0035670Y0118017D02*
X0066634Y0118017D01*
X0067594Y0119415D02*
X0064852Y0119415D01*
X0066251Y0120814D02*
X0069901Y0120814D01*
X0067833Y0122212D02*
X0067083Y0122212D01*
X0063283Y0123611D02*
X0060535Y0123611D01*
X0058831Y0123611D02*
X0037683Y0123611D01*
X0037649Y0125010D02*
X0063283Y0125010D01*
X0063283Y0126408D02*
X0037070Y0126408D01*
X0035881Y0127807D02*
X0063283Y0127807D01*
X0063283Y0129205D02*
X0034334Y0129205D01*
X0033678Y0128933D02*
X0031688Y0128933D01*
X0029851Y0129694D01*
X0029583Y0129962D01*
X0029583Y0127904D01*
X0029851Y0128172D01*
X0031688Y0128933D01*
X0033678Y0128933D01*
X0031032Y0129205D02*
X0029583Y0129205D01*
X0036425Y0130604D02*
X0063283Y0130604D01*
X0063283Y0132002D02*
X0037295Y0132002D01*
X0037683Y0133401D02*
X0063283Y0133401D01*
X0063283Y0134799D02*
X0037683Y0134799D01*
X0037157Y0136198D02*
X0063283Y0136198D01*
X0063283Y0137596D02*
X0036091Y0137596D01*
X0029583Y0138995D02*
X0063283Y0138995D01*
X0063456Y0140393D02*
X0029583Y0140393D01*
X0029583Y0141792D02*
X0064855Y0141792D01*
X0066907Y0143190D02*
X0029583Y0143190D01*
X0029583Y0144589D02*
X0066328Y0144589D01*
X0066183Y0145987D02*
X0029583Y0145987D01*
X0036654Y0150833D02*
X0036922Y0151101D01*
X0037683Y0152938D01*
X0037683Y0154928D01*
X0036922Y0156765D01*
X0035515Y0158172D01*
X0033678Y0158933D01*
X0035515Y0159694D01*
X0036922Y0161101D01*
X0037308Y0162033D01*
X0056623Y0162033D01*
X0056723Y0161933D01*
X0056309Y0161519D01*
X0055883Y0160490D01*
X0055883Y0159376D01*
X0056309Y0158347D01*
X0056783Y0157873D01*
X0056783Y0152146D01*
X0057896Y0151033D01*
X0058096Y0150833D01*
X0036654Y0150833D01*
X0037121Y0151581D02*
X0057348Y0151581D01*
X0056783Y0152980D02*
X0037683Y0152980D01*
X0037683Y0154378D02*
X0056783Y0154378D01*
X0056783Y0155777D02*
X0037331Y0155777D01*
X0036512Y0157175D02*
X0056783Y0157175D01*
X0056215Y0158574D02*
X0034545Y0158574D01*
X0033678Y0158933D02*
X0031688Y0158933D01*
X0033678Y0158933D01*
X0031688Y0158933D02*
X0029851Y0159694D01*
X0029583Y0159962D01*
X0029583Y0157904D01*
X0029851Y0158172D01*
X0031688Y0158933D01*
X0030821Y0158574D02*
X0029583Y0158574D01*
X0035793Y0159972D02*
X0055883Y0159972D01*
X0056248Y0161371D02*
X0037034Y0161371D01*
X0037308Y0165833D02*
X0036922Y0166765D01*
X0036654Y0167033D01*
X0060470Y0167033D01*
X0060783Y0167346D01*
X0060783Y0165793D01*
X0060269Y0166307D01*
X0059240Y0166733D01*
X0058126Y0166733D01*
X0057097Y0166307D01*
X0056623Y0165833D01*
X0037308Y0165833D01*
X0036722Y0166965D02*
X0060783Y0166965D01*
X0058896Y0170833D02*
X0036654Y0170833D01*
X0036922Y0171101D01*
X0037308Y0172033D01*
X0049623Y0172033D01*
X0050097Y0171559D01*
X0051126Y0171133D01*
X0052240Y0171133D01*
X0053269Y0171559D01*
X0054057Y0172347D01*
X0054483Y0173376D01*
X0054483Y0174490D01*
X0054057Y0175519D01*
X0053269Y0176307D01*
X0052240Y0176733D01*
X0051126Y0176733D01*
X0050097Y0176307D01*
X0049623Y0175833D01*
X0037308Y0175833D01*
X0036922Y0176765D01*
X0035515Y0178172D01*
X0033678Y0178933D01*
X0035515Y0179694D01*
X0036922Y0181101D01*
X0037308Y0182033D01*
X0049623Y0182033D01*
X0050097Y0181559D01*
X0051126Y0181133D01*
X0052240Y0181133D01*
X0053269Y0181559D01*
X0054057Y0182347D01*
X0054483Y0183376D01*
X0054483Y0184490D01*
X0054057Y0185519D01*
X0053269Y0186307D01*
X0052240Y0186733D01*
X0051126Y0186733D01*
X0050097Y0186307D01*
X0049623Y0185833D01*
X0037308Y0185833D01*
X0036922Y0186765D01*
X0035515Y0188172D01*
X0033678Y0188933D01*
X0035515Y0189694D01*
X0036922Y0191101D01*
X0037308Y0192033D01*
X0049623Y0192033D01*
X0050097Y0191559D01*
X0051126Y0191133D01*
X0052240Y0191133D01*
X0053269Y0191559D01*
X0054057Y0192347D01*
X0054483Y0193376D01*
X0054483Y0194490D01*
X0054057Y0195519D01*
X0053269Y0196307D01*
X0052240Y0196733D01*
X0051126Y0196733D01*
X0050097Y0196307D01*
X0049623Y0195833D01*
X0037308Y0195833D01*
X0036922Y0196765D01*
X0035515Y0198172D01*
X0033678Y0198933D01*
X0035515Y0199694D01*
X0036922Y0201101D01*
X0037308Y0202033D01*
X0049623Y0202033D01*
X0050097Y0201559D01*
X0051126Y0201133D01*
X0052240Y0201133D01*
X0053269Y0201559D01*
X0054057Y0202347D01*
X0054483Y0203376D01*
X0054483Y0204490D01*
X0054057Y0205519D01*
X0053269Y0206307D01*
X0052240Y0206733D01*
X0051126Y0206733D01*
X0050097Y0206307D01*
X0049623Y0205833D01*
X0037308Y0205833D01*
X0036922Y0206765D01*
X0035515Y0208172D01*
X0033678Y0208933D01*
X0031688Y0208933D01*
X0029851Y0208172D01*
X0028444Y0206765D01*
X0027683Y0204928D01*
X0027683Y0202938D01*
X0028444Y0201101D01*
X0029851Y0199694D01*
X0031688Y0198933D01*
X0033678Y0198933D01*
X0031688Y0198933D01*
X0029851Y0198172D01*
X0028444Y0196765D01*
X0027683Y0194928D01*
X0027683Y0192938D01*
X0028444Y0191101D01*
X0029851Y0189694D01*
X0031688Y0188933D01*
X0033678Y0188933D01*
X0031688Y0188933D01*
X0029851Y0188172D01*
X0028444Y0186765D01*
X0027683Y0184928D01*
X0027683Y0182938D01*
X0028444Y0181101D01*
X0029851Y0179694D01*
X0031688Y0178933D01*
X0033678Y0178933D01*
X0031688Y0178933D01*
X0029851Y0178172D01*
X0028444Y0176765D01*
X0027683Y0174928D01*
X0027683Y0172938D01*
X0028444Y0171101D01*
X0028804Y0170741D01*
X0027783Y0169720D01*
X0027083Y0169020D01*
X0027083Y0280646D01*
X0030756Y0284319D01*
X0031688Y0283933D01*
X0029851Y0283172D01*
X0028444Y0281765D01*
X0027683Y0279928D01*
X0027683Y0277938D01*
X0028444Y0276101D01*
X0029851Y0274694D01*
X0031688Y0273933D01*
X0033678Y0273933D01*
X0035515Y0274694D01*
X0036922Y0276101D01*
X0037683Y0277938D01*
X0037683Y0279928D01*
X0036922Y0281765D01*
X0035515Y0283172D01*
X0033678Y0283933D01*
X0031688Y0283933D01*
X0033678Y0283933D01*
X0035515Y0284694D01*
X0036922Y0286101D01*
X0037683Y0287938D01*
X0037683Y0289928D01*
X0036922Y0291765D01*
X0035515Y0293172D01*
X0033678Y0293933D01*
X0031688Y0293933D01*
X0029851Y0293172D01*
X0028444Y0291765D01*
X0027683Y0289928D01*
X0027683Y0287938D01*
X0028069Y0287006D01*
X0025283Y0284220D01*
X0025283Y0292856D01*
X0028760Y0296333D01*
X0073200Y0296333D01*
X0074156Y0296729D01*
X0074887Y0297460D01*
X0079614Y0302187D01*
X0078983Y0300664D01*
X0078983Y0297203D01*
X0080308Y0294005D01*
X0082755Y0291558D01*
X0085953Y0290233D01*
X0089414Y0290233D01*
X0092611Y0291558D01*
X0095059Y0294005D01*
X0096383Y0297203D01*
X0096383Y0300664D01*
X0095059Y0303861D01*
X0092611Y0306309D01*
X0092552Y0306333D01*
X0106396Y0306333D01*
X0102783Y0302720D01*
X0102783Y0294720D01*
X0090896Y0282833D01*
X0056896Y0282833D01*
X0055783Y0281720D01*
X0052211Y0278148D01*
X0052057Y0278519D01*
X0051269Y0279307D01*
X0050240Y0279733D01*
X0049126Y0279733D01*
X0048097Y0279307D01*
X0047309Y0278519D01*
X0046883Y0277490D01*
X0046883Y0276820D01*
X0045783Y0275720D01*
X0045783Y0250793D01*
X0045269Y0251307D01*
X0044240Y0251733D01*
X0043126Y0251733D01*
X0042097Y0251307D01*
X0041623Y0250833D01*
X0037308Y0250833D01*
X0036922Y0251765D01*
X0035515Y0253172D01*
X0033678Y0253933D01*
X0035515Y0254694D01*
X0036922Y0256101D01*
X0037308Y0257033D01*
X0039623Y0257033D01*
X0040097Y0256559D01*
X0041126Y0256133D01*
X0042240Y0256133D01*
X0043269Y0256559D01*
X0044057Y0257347D01*
X0044483Y0258376D01*
X0044483Y0259490D01*
X0044057Y0260519D01*
X0043269Y0261307D01*
X0042240Y0261733D01*
X0041126Y0261733D01*
X0040097Y0261307D01*
X0039623Y0260833D01*
X0037308Y0260833D01*
X0036922Y0261765D01*
X0035515Y0263172D01*
X0033678Y0263933D01*
X0035515Y0264694D01*
X0036922Y0266101D01*
X0037683Y0267938D01*
X0037683Y0269928D01*
X0036922Y0271765D01*
X0035515Y0273172D01*
X0033678Y0273933D01*
X0031688Y0273933D01*
X0029851Y0273172D01*
X0028444Y0271765D01*
X0027683Y0269928D01*
X0027683Y0267938D01*
X0028444Y0266101D01*
X0029851Y0264694D01*
X0031688Y0263933D01*
X0033678Y0263933D01*
X0031688Y0263933D01*
X0029851Y0263172D01*
X0028444Y0261765D01*
X0027683Y0259928D01*
X0027683Y0257938D01*
X0028444Y0256101D01*
X0029851Y0254694D01*
X0031688Y0253933D01*
X0033678Y0253933D01*
X0031688Y0253933D01*
X0029851Y0253172D01*
X0028444Y0251765D01*
X0027683Y0249928D01*
X0027683Y0247938D01*
X0028444Y0246101D01*
X0029851Y0244694D01*
X0031688Y0243933D01*
X0029851Y0243172D01*
X0028444Y0241765D01*
X0027683Y0239928D01*
X0027683Y0237938D01*
X0028444Y0236101D01*
X0029851Y0234694D01*
X0031688Y0233933D01*
X0029851Y0233172D01*
X0028444Y0231765D01*
X0027683Y0229928D01*
X0027683Y0227938D01*
X0028444Y0226101D01*
X0029851Y0224694D01*
X0031688Y0223933D01*
X0029851Y0223172D01*
X0028444Y0221765D01*
X0027683Y0219928D01*
X0027683Y0217938D01*
X0028444Y0216101D01*
X0029851Y0214694D01*
X0031688Y0213933D01*
X0033678Y0213933D01*
X0035515Y0214694D01*
X0036922Y0216101D01*
X0037308Y0217033D01*
X0045623Y0217033D01*
X0046097Y0216559D01*
X0047126Y0216133D01*
X0048240Y0216133D01*
X0049269Y0216559D01*
X0050057Y0217347D01*
X0050483Y0218376D01*
X0050483Y0219490D01*
X0050057Y0220519D01*
X0049583Y0220993D01*
X0049583Y0222146D01*
X0050470Y0223033D01*
X0051583Y0224146D01*
X0051583Y0272146D01*
X0058470Y0279033D01*
X0091224Y0279033D01*
X0091224Y0268816D01*
X0090617Y0268816D01*
X0089856Y0268054D01*
X0089856Y0256544D01*
X0090617Y0255783D01*
X0091283Y0255783D01*
X0091283Y0254646D01*
X0094239Y0251690D01*
X0090617Y0251690D01*
X0089856Y0250928D01*
X0089856Y0239418D01*
X0090617Y0238657D01*
X0091283Y0238657D01*
X0091283Y0234493D01*
X0090809Y0234019D01*
X0090383Y0232990D01*
X0090383Y0231876D01*
X0090809Y0230847D01*
X0091597Y0230059D01*
X0092626Y0229633D01*
X0093740Y0229633D01*
X0093883Y0229692D01*
X0093883Y0229376D01*
X0094309Y0228347D01*
X0095097Y0227559D01*
X0096126Y0227133D01*
X0097240Y0227133D01*
X0098269Y0227559D01*
X0099057Y0228347D01*
X0099283Y0228893D01*
X0099283Y0226720D01*
X0094283Y0221720D01*
X0094283Y0219904D01*
X0094015Y0220172D01*
X0093083Y0220558D01*
X0093083Y0222220D01*
X0088583Y0226720D01*
X0087470Y0227833D01*
X0076470Y0227833D01*
X0075583Y0228720D01*
X0075583Y0229308D01*
X0076515Y0229694D01*
X0077922Y0231101D01*
X0078683Y0232938D01*
X0078683Y0234928D01*
X0077922Y0236765D01*
X0076515Y0238172D01*
X0074678Y0238933D01*
X0072688Y0238933D01*
X0070851Y0238172D01*
X0069444Y0236765D01*
X0068683Y0234928D01*
X0068683Y0232938D01*
X0067922Y0231101D01*
X0066515Y0229694D01*
X0065583Y0229308D01*
X0065583Y0227720D01*
X0067470Y0225833D01*
X0073096Y0225833D01*
X0072896Y0226033D01*
X0071783Y0227146D01*
X0071783Y0229308D01*
X0070851Y0229694D01*
X0069444Y0231101D01*
X0068683Y0232938D01*
X0068683Y0234928D01*
X0067922Y0236765D01*
X0066515Y0238172D01*
X0064678Y0238933D01*
X0062688Y0238933D01*
X0060851Y0238172D01*
X0059444Y0236765D01*
X0058683Y0234928D01*
X0058683Y0232938D01*
X0059444Y0231101D01*
X0060851Y0229694D01*
X0061783Y0229308D01*
X0061783Y0226146D01*
X0062896Y0225033D01*
X0065896Y0222033D01*
X0077896Y0222033D01*
X0079283Y0220646D01*
X0079283Y0220558D01*
X0078351Y0220172D01*
X0076944Y0218765D01*
X0076183Y0216928D01*
X0075422Y0218765D01*
X0074015Y0220172D01*
X0072178Y0220933D01*
X0070188Y0220933D01*
X0068351Y0220172D01*
X0066944Y0218765D01*
X0066183Y0216928D01*
X0066183Y0215620D01*
X0060896Y0210333D01*
X0059783Y0209220D01*
X0059783Y0171720D01*
X0058896Y0170833D01*
X0059223Y0171160D02*
X0052306Y0171160D01*
X0051060Y0171160D02*
X0036947Y0171160D01*
X0036926Y0176754D02*
X0059783Y0176754D01*
X0059783Y0175356D02*
X0054124Y0175356D01*
X0054483Y0173957D02*
X0059783Y0173957D01*
X0059783Y0172559D02*
X0054145Y0172559D01*
X0059783Y0178153D02*
X0035534Y0178153D01*
X0035171Y0179551D02*
X0059783Y0179551D01*
X0059783Y0180950D02*
X0036771Y0180950D01*
X0037014Y0186544D02*
X0050670Y0186544D01*
X0052696Y0186544D02*
X0059783Y0186544D01*
X0059783Y0185145D02*
X0054212Y0185145D01*
X0054483Y0183747D02*
X0059783Y0183747D01*
X0059783Y0182348D02*
X0054057Y0182348D01*
X0059783Y0187943D02*
X0035745Y0187943D01*
X0034663Y0189341D02*
X0059783Y0189341D01*
X0059783Y0190740D02*
X0036561Y0190740D01*
X0037101Y0196334D02*
X0050162Y0196334D01*
X0053204Y0196334D02*
X0059783Y0196334D01*
X0059783Y0197732D02*
X0035955Y0197732D01*
X0034155Y0199131D02*
X0059783Y0199131D01*
X0059783Y0200529D02*
X0036350Y0200529D01*
X0037264Y0201928D02*
X0049729Y0201928D01*
X0049913Y0206123D02*
X0037188Y0206123D01*
X0036166Y0207522D02*
X0059783Y0207522D01*
X0059783Y0208920D02*
X0033709Y0208920D01*
X0031657Y0208920D02*
X0027083Y0208920D01*
X0027083Y0207522D02*
X0029201Y0207522D01*
X0028178Y0206123D02*
X0027083Y0206123D01*
X0027083Y0204725D02*
X0027683Y0204725D01*
X0027683Y0203326D02*
X0027083Y0203326D01*
X0027083Y0201928D02*
X0028102Y0201928D01*
X0029016Y0200529D02*
X0027083Y0200529D01*
X0027083Y0199131D02*
X0031212Y0199131D01*
X0029411Y0197732D02*
X0027083Y0197732D01*
X0027083Y0196334D02*
X0028265Y0196334D01*
X0027686Y0194935D02*
X0027083Y0194935D01*
X0027083Y0193537D02*
X0027683Y0193537D01*
X0028015Y0192138D02*
X0027083Y0192138D01*
X0027083Y0190740D02*
X0028806Y0190740D01*
X0027083Y0189341D02*
X0030704Y0189341D01*
X0029621Y0187943D02*
X0027083Y0187943D01*
X0027083Y0186544D02*
X0028353Y0186544D01*
X0027773Y0185145D02*
X0027083Y0185145D01*
X0027083Y0183747D02*
X0027683Y0183747D01*
X0027927Y0182348D02*
X0027083Y0182348D01*
X0027083Y0180950D02*
X0028595Y0180950D01*
X0027083Y0179551D02*
X0030196Y0179551D01*
X0029832Y0178153D02*
X0027083Y0178153D01*
X0027083Y0176754D02*
X0028440Y0176754D01*
X0027860Y0175356D02*
X0027083Y0175356D01*
X0027083Y0173957D02*
X0027683Y0173957D01*
X0027840Y0172559D02*
X0027083Y0172559D01*
X0027083Y0171160D02*
X0028420Y0171160D01*
X0027825Y0169762D02*
X0027083Y0169762D01*
X0053848Y0192138D02*
X0059783Y0192138D01*
X0059783Y0193537D02*
X0054483Y0193537D01*
X0054299Y0194935D02*
X0059783Y0194935D01*
X0065583Y0196520D02*
X0065583Y0202146D01*
X0066825Y0203388D01*
X0066944Y0203101D01*
X0068351Y0201694D01*
X0070188Y0200933D01*
X0072178Y0200933D01*
X0074015Y0201694D01*
X0075422Y0203101D01*
X0076183Y0204938D01*
X0076183Y0206928D01*
X0075422Y0208765D01*
X0074015Y0210172D01*
X0072178Y0210933D01*
X0074015Y0211694D01*
X0075422Y0213101D01*
X0076183Y0214938D01*
X0076183Y0216928D01*
X0076183Y0214938D01*
X0076944Y0213101D01*
X0078351Y0211694D01*
X0080188Y0210933D01*
X0082178Y0210933D01*
X0084015Y0211694D01*
X0085422Y0213101D01*
X0086183Y0214938D01*
X0086944Y0213101D01*
X0088351Y0211694D01*
X0090188Y0210933D01*
X0092178Y0210933D01*
X0094015Y0211694D01*
X0094283Y0211962D01*
X0094283Y0209146D01*
X0095396Y0208033D01*
X0095396Y0208033D01*
X0109396Y0194033D01*
X0126558Y0194033D01*
X0126944Y0193101D01*
X0127212Y0192833D01*
X0075396Y0192833D01*
X0073110Y0190547D01*
X0072178Y0190933D01*
X0074015Y0191694D01*
X0075422Y0193101D01*
X0076183Y0194938D01*
X0076183Y0196928D01*
X0075422Y0198765D01*
X0074015Y0200172D01*
X0072178Y0200933D01*
X0070188Y0200933D01*
X0068351Y0200172D01*
X0066944Y0198765D01*
X0066319Y0197256D01*
X0065783Y0196720D01*
X0065583Y0196520D01*
X0065583Y0197732D02*
X0066516Y0197732D01*
X0067310Y0199131D02*
X0065583Y0199131D01*
X0065583Y0200529D02*
X0069213Y0200529D01*
X0068117Y0201928D02*
X0065583Y0201928D01*
X0066763Y0203326D02*
X0066851Y0203326D01*
X0064186Y0206123D02*
X0063583Y0206123D01*
X0063583Y0205520D02*
X0063583Y0207646D01*
X0067991Y0212054D01*
X0068351Y0211694D01*
X0070188Y0210933D01*
X0072178Y0210933D01*
X0070188Y0210933D01*
X0068351Y0210172D01*
X0066944Y0208765D01*
X0066558Y0207833D01*
X0065896Y0207833D01*
X0064783Y0206720D01*
X0063583Y0205520D01*
X0063583Y0207522D02*
X0065585Y0207522D01*
X0064857Y0208920D02*
X0067099Y0208920D01*
X0066256Y0210319D02*
X0068705Y0210319D01*
X0068328Y0211717D02*
X0067654Y0211717D01*
X0065077Y0214514D02*
X0035081Y0214514D01*
X0036734Y0215913D02*
X0066183Y0215913D01*
X0066342Y0217311D02*
X0050021Y0217311D01*
X0050483Y0218710D02*
X0066921Y0218710D01*
X0068287Y0220108D02*
X0050227Y0220108D01*
X0049583Y0221507D02*
X0078422Y0221507D01*
X0078287Y0220108D02*
X0074079Y0220108D01*
X0075445Y0218710D02*
X0076921Y0218710D01*
X0076342Y0217311D02*
X0076024Y0217311D01*
X0076183Y0215913D02*
X0076183Y0215913D01*
X0076007Y0214514D02*
X0076359Y0214514D01*
X0076938Y0213116D02*
X0075428Y0213116D01*
X0074038Y0211717D02*
X0078328Y0211717D01*
X0075267Y0208920D02*
X0094509Y0208920D01*
X0094283Y0210319D02*
X0073661Y0210319D01*
X0075937Y0207522D02*
X0095907Y0207522D01*
X0097306Y0206123D02*
X0076183Y0206123D01*
X0076094Y0204725D02*
X0098704Y0204725D01*
X0100103Y0203326D02*
X0075515Y0203326D01*
X0074249Y0201928D02*
X0101502Y0201928D01*
X0102900Y0200529D02*
X0073153Y0200529D01*
X0075057Y0199131D02*
X0104299Y0199131D01*
X0105697Y0197732D02*
X0075850Y0197732D01*
X0076183Y0196334D02*
X0107096Y0196334D01*
X0108494Y0194935D02*
X0076182Y0194935D01*
X0075602Y0193537D02*
X0126764Y0193537D01*
X0126558Y0197833D02*
X0110970Y0197833D01*
X0098083Y0210720D01*
X0098083Y0220146D01*
X0101970Y0224033D01*
X0103083Y0225146D01*
X0103083Y0234846D01*
X0105883Y0232046D01*
X0105883Y0231376D01*
X0106309Y0230347D01*
X0107097Y0229559D01*
X0108126Y0229133D01*
X0109240Y0229133D01*
X0109883Y0229399D01*
X0109883Y0228376D01*
X0110309Y0227347D01*
X0111097Y0226559D01*
X0111883Y0226234D01*
X0109540Y0223892D01*
X0108725Y0223076D01*
X0108283Y0222010D01*
X0108283Y0220104D01*
X0106944Y0218765D01*
X0106183Y0216928D01*
X0106183Y0214938D01*
X0106944Y0213101D01*
X0108351Y0211694D01*
X0110188Y0210933D01*
X0112178Y0210933D01*
X0114015Y0211694D01*
X0115422Y0213101D01*
X0116183Y0214938D01*
X0116944Y0213101D01*
X0118351Y0211694D01*
X0120188Y0210933D01*
X0122178Y0210933D01*
X0124015Y0211694D01*
X0125422Y0213101D01*
X0126183Y0214938D01*
X0126183Y0216928D01*
X0125422Y0218765D01*
X0124015Y0220172D01*
X0122178Y0220933D01*
X0120188Y0220933D01*
X0118351Y0220172D01*
X0116944Y0218765D01*
X0116183Y0216928D01*
X0116183Y0214938D01*
X0116183Y0216928D01*
X0115422Y0218765D01*
X0114083Y0220104D01*
X0114083Y0220232D01*
X0114884Y0221033D01*
X0122260Y0221033D01*
X0123326Y0221475D01*
X0131814Y0229963D01*
X0132145Y0229633D01*
X0134023Y0229633D01*
X0134097Y0229559D01*
X0134783Y0229275D01*
X0134783Y0227720D01*
X0129283Y0222220D01*
X0129283Y0220558D01*
X0128351Y0220172D01*
X0126944Y0218765D01*
X0126183Y0216928D01*
X0126183Y0214938D01*
X0126944Y0213101D01*
X0128351Y0211694D01*
X0130188Y0210933D01*
X0128351Y0210172D01*
X0126944Y0208765D01*
X0126183Y0206928D01*
X0126183Y0204938D01*
X0126944Y0203101D01*
X0128351Y0201694D01*
X0130188Y0200933D01*
X0132178Y0200933D01*
X0134015Y0201694D01*
X0135422Y0203101D01*
X0136183Y0204938D01*
X0136183Y0206928D01*
X0135422Y0208765D01*
X0134015Y0210172D01*
X0132178Y0210933D01*
X0130188Y0210933D01*
X0132178Y0210933D01*
X0134015Y0211694D01*
X0135422Y0213101D01*
X0136183Y0214938D01*
X0136183Y0216928D01*
X0135422Y0218765D01*
X0134015Y0220172D01*
X0133083Y0220558D01*
X0133083Y0220646D01*
X0137470Y0225033D01*
X0138583Y0226146D01*
X0138583Y0231720D01*
X0138483Y0231820D01*
X0138483Y0232490D01*
X0138258Y0233033D01*
X0159260Y0233033D01*
X0160326Y0233475D01*
X0170784Y0243933D01*
X0172678Y0243933D01*
X0174515Y0244694D01*
X0175922Y0246101D01*
X0176683Y0247938D01*
X0176683Y0249928D01*
X0175922Y0251765D01*
X0174515Y0253172D01*
X0172678Y0253933D01*
X0174515Y0254694D01*
X0175854Y0256033D01*
X0176260Y0256033D01*
X0177326Y0256475D01*
X0180326Y0259475D01*
X0181142Y0260290D01*
X0181583Y0261356D01*
X0181583Y0281510D01*
X0181142Y0282576D01*
X0176083Y0287634D01*
X0176083Y0301510D01*
X0175642Y0302576D01*
X0173142Y0305076D01*
X0172326Y0305892D01*
X0171260Y0306333D01*
X0146606Y0306333D01*
X0145540Y0305892D01*
X0145040Y0305392D01*
X0144225Y0304576D01*
X0143783Y0303510D01*
X0143783Y0302101D01*
X0143667Y0302052D01*
X0142964Y0301349D01*
X0142764Y0300866D01*
X0142543Y0300646D01*
X0142543Y0300595D01*
X0142509Y0300558D01*
X0142543Y0299649D01*
X0142543Y0298740D01*
X0142560Y0298723D01*
X0142560Y0294150D01*
X0142878Y0293833D01*
X0142470Y0293833D01*
X0141583Y0294720D01*
X0141583Y0304720D01*
X0140470Y0305833D01*
X0139970Y0306333D01*
X0202814Y0306333D01*
X0202755Y0306309D01*
X0200308Y0303861D01*
X0198983Y0300664D01*
X0198983Y0297203D01*
X0200308Y0294005D01*
X0202755Y0291558D01*
X0205953Y0290233D01*
X0209414Y0290233D01*
X0212611Y0291558D01*
X0215059Y0294005D01*
X0216383Y0297203D01*
X0216383Y0300664D01*
X0215752Y0302187D01*
X0221106Y0296833D01*
X0218896Y0296833D01*
X0210896Y0288833D01*
X0195896Y0288833D01*
X0194396Y0287333D01*
X0193796Y0286733D01*
X0190195Y0286733D01*
X0189433Y0285972D01*
X0189433Y0283370D01*
X0187896Y0281833D01*
X0186783Y0280720D01*
X0186783Y0254720D01*
X0154896Y0222833D01*
X0150896Y0222833D01*
X0149783Y0221720D01*
X0147796Y0219733D01*
X0147126Y0219733D01*
X0146097Y0219307D01*
X0145309Y0218519D01*
X0144883Y0217490D01*
X0144883Y0216376D01*
X0145309Y0215347D01*
X0146097Y0214559D01*
X0147126Y0214133D01*
X0148240Y0214133D01*
X0149269Y0214559D01*
X0150057Y0215347D01*
X0150183Y0215652D01*
X0150309Y0215347D01*
X0151097Y0214559D01*
X0152126Y0214133D01*
X0152196Y0214133D01*
X0143896Y0205833D01*
X0142783Y0204720D01*
X0142783Y0195720D01*
X0139896Y0192833D01*
X0135154Y0192833D01*
X0135422Y0193101D01*
X0136183Y0194938D01*
X0136183Y0196928D01*
X0135422Y0198765D01*
X0134015Y0200172D01*
X0132178Y0200933D01*
X0130188Y0200933D01*
X0128351Y0200172D01*
X0126944Y0198765D01*
X0126558Y0197833D01*
X0127310Y0199131D02*
X0109673Y0199131D01*
X0108274Y0200529D02*
X0129213Y0200529D01*
X0128117Y0201928D02*
X0106875Y0201928D01*
X0105477Y0203326D02*
X0126851Y0203326D01*
X0126272Y0204725D02*
X0104078Y0204725D01*
X0102680Y0206123D02*
X0126183Y0206123D01*
X0126429Y0207522D02*
X0101281Y0207522D01*
X0099883Y0208920D02*
X0127099Y0208920D01*
X0128705Y0210319D02*
X0098484Y0210319D01*
X0098083Y0211717D02*
X0108328Y0211717D01*
X0106938Y0213116D02*
X0098083Y0213116D01*
X0098083Y0214514D02*
X0106359Y0214514D01*
X0106183Y0215913D02*
X0098083Y0215913D01*
X0098083Y0217311D02*
X0106342Y0217311D01*
X0106921Y0218710D02*
X0098083Y0218710D01*
X0098083Y0220108D02*
X0108283Y0220108D01*
X0108283Y0221507D02*
X0099444Y0221507D01*
X0100842Y0222905D02*
X0108654Y0222905D01*
X0109953Y0224304D02*
X0102241Y0224304D01*
X0103083Y0225702D02*
X0111351Y0225702D01*
X0110555Y0227101D02*
X0103083Y0227101D01*
X0103083Y0228499D02*
X0109883Y0228499D01*
X0106758Y0229898D02*
X0103083Y0229898D01*
X0103083Y0231296D02*
X0105916Y0231296D01*
X0105234Y0232695D02*
X0103083Y0232695D01*
X0103083Y0234093D02*
X0103836Y0234093D01*
X0106583Y0236720D02*
X0108570Y0234733D01*
X0109240Y0234733D01*
X0110269Y0234307D01*
X0110783Y0233793D01*
X0110783Y0238657D01*
X0106583Y0238657D01*
X0106583Y0236720D01*
X0106583Y0236890D02*
X0110783Y0236890D01*
X0110783Y0235492D02*
X0107811Y0235492D01*
X0110483Y0234093D02*
X0110783Y0234093D01*
X0114583Y0234093D02*
X0127742Y0234093D01*
X0126344Y0232695D02*
X0114583Y0232695D01*
X0114583Y0231296D02*
X0124945Y0231296D01*
X0123547Y0229898D02*
X0115314Y0229898D01*
X0115483Y0229490D02*
X0115057Y0230519D01*
X0114583Y0230993D01*
X0114583Y0252720D01*
X0111450Y0255853D01*
X0112141Y0256544D01*
X0112141Y0268054D01*
X0111379Y0268816D01*
X0110583Y0268816D01*
X0110583Y0273720D01*
X0109583Y0274720D01*
X0109583Y0278873D01*
X0110057Y0279347D01*
X0110483Y0280376D01*
X0110483Y0281490D01*
X0110057Y0282519D01*
X0109269Y0283307D01*
X0108240Y0283733D01*
X0107126Y0283733D01*
X0106097Y0283307D01*
X0105309Y0282519D01*
X0104883Y0281490D01*
X0104883Y0280376D01*
X0105309Y0279347D01*
X0105783Y0278873D01*
X0105783Y0273146D01*
X0106783Y0272146D01*
X0106783Y0268816D01*
X0106365Y0268816D01*
X0105604Y0268054D01*
X0105604Y0256544D01*
X0106365Y0255783D01*
X0106783Y0255783D01*
X0106783Y0255146D01*
X0110239Y0251690D01*
X0106583Y0251690D01*
X0106583Y0252720D01*
X0105470Y0253833D01*
X0103513Y0255790D01*
X0104267Y0256544D01*
X0104267Y0268054D01*
X0103505Y0268816D01*
X0103083Y0268816D01*
X0103083Y0283146D01*
X0106970Y0287033D01*
X0107683Y0287033D01*
X0107683Y0286862D01*
X0110612Y0283933D01*
X0114754Y0283933D01*
X0115783Y0284962D01*
X0115783Y0283664D01*
X0115897Y0283550D01*
X0116149Y0282940D01*
X0116149Y0282780D01*
X0117783Y0281146D01*
X0118896Y0280033D01*
X0127623Y0280033D01*
X0128097Y0279559D01*
X0129126Y0279133D01*
X0130240Y0279133D01*
X0131269Y0279559D01*
X0132057Y0280347D01*
X0132483Y0281376D01*
X0132483Y0282490D01*
X0132057Y0283519D01*
X0131643Y0283933D01*
X0134754Y0283933D01*
X0137683Y0286862D01*
X0137683Y0291004D01*
X0134754Y0293933D01*
X0130612Y0293933D01*
X0127683Y0291004D01*
X0124754Y0293933D01*
X0127683Y0296862D01*
X0127683Y0301004D01*
X0124754Y0303933D01*
X0120612Y0303933D01*
X0119491Y0302812D01*
X0118270Y0304033D01*
X0136896Y0304033D01*
X0137783Y0303146D01*
X0137783Y0293146D01*
X0140896Y0290033D01*
X0142878Y0290033D01*
X0142560Y0289716D01*
X0142560Y0288533D01*
X0142327Y0288533D01*
X0141114Y0288031D01*
X0140185Y0287102D01*
X0130625Y0277542D01*
X0129696Y0276613D01*
X0129194Y0275401D01*
X0129194Y0265599D01*
X0127889Y0265599D01*
X0127889Y0268054D01*
X0127127Y0268816D01*
X0122113Y0268816D01*
X0121352Y0268054D01*
X0121352Y0263032D01*
X0121320Y0262956D01*
X0121320Y0261643D01*
X0121352Y0261567D01*
X0121352Y0256544D01*
X0122113Y0255783D01*
X0127127Y0255783D01*
X0127889Y0256544D01*
X0127889Y0258999D01*
X0129194Y0258999D01*
X0129194Y0244517D01*
X0129226Y0244441D01*
X0129226Y0239418D01*
X0129987Y0238657D01*
X0132680Y0238657D01*
X0132040Y0238392D01*
X0131225Y0237576D01*
X0120482Y0226833D01*
X0114543Y0226833D01*
X0115057Y0227347D01*
X0115483Y0228376D01*
X0115483Y0229490D01*
X0115483Y0228499D02*
X0122148Y0228499D01*
X0120750Y0227101D02*
X0114811Y0227101D01*
X0114583Y0235492D02*
X0129141Y0235492D01*
X0130539Y0236890D02*
X0114583Y0236890D01*
X0114583Y0238289D02*
X0131938Y0238289D01*
X0129226Y0239687D02*
X0114583Y0239687D01*
X0114583Y0241086D02*
X0129226Y0241086D01*
X0129226Y0242484D02*
X0114583Y0242484D01*
X0114583Y0243883D02*
X0129226Y0243883D01*
X0129194Y0245281D02*
X0114583Y0245281D01*
X0114583Y0246680D02*
X0129194Y0246680D01*
X0129194Y0248079D02*
X0114583Y0248079D01*
X0114583Y0249477D02*
X0129194Y0249477D01*
X0129194Y0250876D02*
X0114583Y0250876D01*
X0114583Y0252274D02*
X0129194Y0252274D01*
X0129194Y0253673D02*
X0113631Y0253673D01*
X0112232Y0255071D02*
X0129194Y0255071D01*
X0129194Y0256470D02*
X0127814Y0256470D01*
X0127889Y0257868D02*
X0129194Y0257868D01*
X0129194Y0266259D02*
X0127889Y0266259D01*
X0127889Y0267658D02*
X0129194Y0267658D01*
X0129194Y0269056D02*
X0110583Y0269056D01*
X0110583Y0270455D02*
X0129194Y0270455D01*
X0129194Y0271853D02*
X0110583Y0271853D01*
X0110583Y0273252D02*
X0129194Y0273252D01*
X0129194Y0274650D02*
X0109653Y0274650D01*
X0109583Y0276049D02*
X0129463Y0276049D01*
X0130530Y0277447D02*
X0109583Y0277447D01*
X0109583Y0278846D02*
X0131929Y0278846D01*
X0131954Y0280244D02*
X0133327Y0280244D01*
X0132483Y0281643D02*
X0134726Y0281643D01*
X0136124Y0283041D02*
X0132255Y0283041D01*
X0129812Y0284733D02*
X0127683Y0286862D01*
X0127683Y0291004D01*
X0127683Y0286862D01*
X0124754Y0283933D01*
X0120612Y0283933D01*
X0119583Y0284962D01*
X0119583Y0284720D01*
X0119949Y0284354D01*
X0119949Y0284354D01*
X0120470Y0283833D01*
X0127623Y0283833D01*
X0128097Y0284307D01*
X0129126Y0284733D01*
X0129812Y0284733D01*
X0128418Y0284440D02*
X0125261Y0284440D01*
X0126659Y0285838D02*
X0128707Y0285838D01*
X0127683Y0287237D02*
X0127683Y0287237D01*
X0127683Y0288635D02*
X0127683Y0288635D01*
X0127683Y0290034D02*
X0127683Y0290034D01*
X0127255Y0291432D02*
X0128111Y0291432D01*
X0129510Y0292831D02*
X0125856Y0292831D01*
X0124754Y0293933D02*
X0122370Y0293933D01*
X0122370Y0293933D01*
X0124754Y0293933D01*
X0125050Y0294229D02*
X0137783Y0294229D01*
X0137783Y0295628D02*
X0126449Y0295628D01*
X0127683Y0297026D02*
X0137783Y0297026D01*
X0137783Y0298425D02*
X0127683Y0298425D01*
X0127683Y0299823D02*
X0137783Y0299823D01*
X0137783Y0301222D02*
X0127465Y0301222D01*
X0126067Y0302620D02*
X0137783Y0302620D01*
X0136910Y0304019D02*
X0118284Y0304019D01*
X0112996Y0293933D02*
X0110612Y0293933D01*
X0107683Y0291004D01*
X0107683Y0290833D01*
X0107270Y0290833D01*
X0108583Y0292146D01*
X0108583Y0295962D01*
X0110612Y0293933D01*
X0112996Y0293933D01*
X0112996Y0293933D01*
X0110316Y0294229D02*
X0108583Y0294229D01*
X0108583Y0292831D02*
X0109510Y0292831D01*
X0108111Y0291432D02*
X0107869Y0291432D01*
X0108707Y0285838D02*
X0105775Y0285838D01*
X0104377Y0284440D02*
X0110105Y0284440D01*
X0109535Y0283041D02*
X0116107Y0283041D01*
X0115783Y0284440D02*
X0115261Y0284440D01*
X0117286Y0281643D02*
X0110420Y0281643D01*
X0110428Y0280244D02*
X0118685Y0280244D01*
X0119863Y0284440D02*
X0120105Y0284440D01*
X0108917Y0295628D02*
X0108583Y0295628D01*
X0102783Y0295628D02*
X0095731Y0295628D01*
X0096310Y0297026D02*
X0102783Y0297026D01*
X0102783Y0298425D02*
X0096383Y0298425D01*
X0096383Y0299823D02*
X0102783Y0299823D01*
X0102783Y0301222D02*
X0096152Y0301222D01*
X0095573Y0302620D02*
X0102783Y0302620D01*
X0104082Y0304019D02*
X0094901Y0304019D01*
X0093502Y0305417D02*
X0105480Y0305417D01*
X0102292Y0294229D02*
X0095152Y0294229D01*
X0093885Y0292831D02*
X0100894Y0292831D01*
X0099495Y0291432D02*
X0092309Y0291432D01*
X0095300Y0287237D02*
X0037392Y0287237D01*
X0037683Y0288635D02*
X0096698Y0288635D01*
X0098097Y0290034D02*
X0037639Y0290034D01*
X0037060Y0291432D02*
X0083057Y0291432D01*
X0081482Y0292831D02*
X0035856Y0292831D01*
X0029510Y0292831D02*
X0025283Y0292831D01*
X0025283Y0291432D02*
X0028306Y0291432D01*
X0027727Y0290034D02*
X0025283Y0290034D01*
X0025283Y0288635D02*
X0027683Y0288635D01*
X0027974Y0287237D02*
X0025283Y0287237D01*
X0025283Y0285838D02*
X0026901Y0285838D01*
X0025503Y0284440D02*
X0025283Y0284440D01*
X0028080Y0281643D02*
X0028394Y0281643D01*
X0027814Y0280244D02*
X0027083Y0280244D01*
X0027083Y0278846D02*
X0027683Y0278846D01*
X0027887Y0277447D02*
X0027083Y0277447D01*
X0027083Y0276049D02*
X0028496Y0276049D01*
X0027083Y0274650D02*
X0029957Y0274650D01*
X0030044Y0273252D02*
X0027083Y0273252D01*
X0027083Y0271853D02*
X0028532Y0271853D01*
X0027901Y0270455D02*
X0027083Y0270455D01*
X0027083Y0269056D02*
X0027683Y0269056D01*
X0027799Y0267658D02*
X0027083Y0267658D01*
X0027083Y0266259D02*
X0028379Y0266259D01*
X0027083Y0264861D02*
X0029684Y0264861D01*
X0030552Y0263462D02*
X0027083Y0263462D01*
X0027083Y0262064D02*
X0028743Y0262064D01*
X0027989Y0260665D02*
X0027083Y0260665D01*
X0027083Y0259267D02*
X0027683Y0259267D01*
X0027712Y0257868D02*
X0027083Y0257868D01*
X0027083Y0256470D02*
X0028292Y0256470D01*
X0029474Y0255071D02*
X0027083Y0255071D01*
X0027083Y0253673D02*
X0031060Y0253673D01*
X0028953Y0252274D02*
X0027083Y0252274D01*
X0027083Y0250876D02*
X0028076Y0250876D01*
X0027683Y0249477D02*
X0027083Y0249477D01*
X0027083Y0248079D02*
X0027683Y0248079D01*
X0028204Y0246680D02*
X0027083Y0246680D01*
X0027083Y0245281D02*
X0029264Y0245281D01*
X0027083Y0243883D02*
X0031568Y0243883D01*
X0031688Y0243933D02*
X0033678Y0243933D01*
X0035515Y0243172D01*
X0036922Y0241765D01*
X0037308Y0240833D01*
X0043623Y0240833D01*
X0044097Y0241307D01*
X0045126Y0241733D01*
X0045783Y0241733D01*
X0045783Y0247073D01*
X0045269Y0246559D01*
X0044240Y0246133D01*
X0043126Y0246133D01*
X0042097Y0246559D01*
X0041623Y0247033D01*
X0037308Y0247033D01*
X0036922Y0246101D01*
X0035515Y0244694D01*
X0033678Y0243933D01*
X0031688Y0243933D01*
X0033799Y0243883D02*
X0045783Y0243883D01*
X0045783Y0245281D02*
X0036103Y0245281D01*
X0037162Y0246680D02*
X0041976Y0246680D01*
X0045390Y0246680D02*
X0045783Y0246680D01*
X0045783Y0242484D02*
X0036203Y0242484D01*
X0037203Y0241086D02*
X0043876Y0241086D01*
X0043623Y0237033D02*
X0044097Y0236559D01*
X0045126Y0236133D01*
X0046240Y0236133D01*
X0047269Y0236559D01*
X0047783Y0237073D01*
X0047783Y0231508D01*
X0047240Y0231733D01*
X0046126Y0231733D01*
X0045097Y0231307D01*
X0044623Y0230833D01*
X0037308Y0230833D01*
X0036922Y0231765D01*
X0035515Y0233172D01*
X0033678Y0233933D01*
X0031688Y0233933D01*
X0033678Y0233933D01*
X0035515Y0234694D01*
X0036922Y0236101D01*
X0037308Y0237033D01*
X0043623Y0237033D01*
X0043766Y0236890D02*
X0037249Y0236890D01*
X0036313Y0235492D02*
X0047783Y0235492D01*
X0047783Y0236890D02*
X0047600Y0236890D01*
X0047783Y0234093D02*
X0034065Y0234093D01*
X0035992Y0232695D02*
X0047783Y0232695D01*
X0045087Y0231296D02*
X0037116Y0231296D01*
X0037308Y0227033D02*
X0044623Y0227033D01*
X0045097Y0226559D01*
X0046126Y0226133D01*
X0047240Y0226133D01*
X0047783Y0226358D01*
X0047783Y0225720D01*
X0045783Y0223720D01*
X0045783Y0220993D01*
X0045623Y0220833D01*
X0037308Y0220833D01*
X0036922Y0221765D01*
X0035515Y0223172D01*
X0033678Y0223933D01*
X0031688Y0223933D01*
X0033678Y0223933D01*
X0035515Y0224694D01*
X0036922Y0226101D01*
X0037308Y0227033D01*
X0036523Y0225702D02*
X0047765Y0225702D01*
X0046367Y0224304D02*
X0034573Y0224304D01*
X0035782Y0222905D02*
X0045783Y0222905D01*
X0045783Y0221507D02*
X0037029Y0221507D01*
X0030793Y0224304D02*
X0027083Y0224304D01*
X0027083Y0225702D02*
X0028843Y0225702D01*
X0028030Y0227101D02*
X0027083Y0227101D01*
X0027083Y0228499D02*
X0027683Y0228499D01*
X0027683Y0229898D02*
X0027083Y0229898D01*
X0027083Y0231296D02*
X0028250Y0231296D01*
X0029374Y0232695D02*
X0027083Y0232695D01*
X0027083Y0234093D02*
X0031301Y0234093D01*
X0029053Y0235492D02*
X0027083Y0235492D01*
X0027083Y0236890D02*
X0028117Y0236890D01*
X0027683Y0238289D02*
X0027083Y0238289D01*
X0027083Y0239687D02*
X0027683Y0239687D01*
X0028163Y0241086D02*
X0027083Y0241086D01*
X0027083Y0242484D02*
X0029163Y0242484D01*
X0037290Y0250876D02*
X0041666Y0250876D01*
X0045700Y0250876D02*
X0045783Y0250876D01*
X0045783Y0252274D02*
X0036413Y0252274D01*
X0034307Y0253673D02*
X0045783Y0253673D01*
X0045783Y0255071D02*
X0035892Y0255071D01*
X0037075Y0256470D02*
X0040314Y0256470D01*
X0043052Y0256470D02*
X0045783Y0256470D01*
X0045783Y0257868D02*
X0044273Y0257868D01*
X0044483Y0259267D02*
X0045783Y0259267D01*
X0045783Y0260665D02*
X0043911Y0260665D01*
X0045783Y0262064D02*
X0036624Y0262064D01*
X0034815Y0263462D02*
X0045783Y0263462D01*
X0045783Y0264861D02*
X0035682Y0264861D01*
X0036987Y0266259D02*
X0045783Y0266259D01*
X0045783Y0267658D02*
X0037567Y0267658D01*
X0037683Y0269056D02*
X0045783Y0269056D01*
X0045783Y0270455D02*
X0037465Y0270455D01*
X0036834Y0271853D02*
X0045783Y0271853D01*
X0045783Y0273252D02*
X0035323Y0273252D01*
X0035409Y0274650D02*
X0045783Y0274650D01*
X0046112Y0276049D02*
X0036870Y0276049D01*
X0037480Y0277447D02*
X0046883Y0277447D01*
X0047636Y0278846D02*
X0037683Y0278846D01*
X0037552Y0280244D02*
X0054307Y0280244D01*
X0052909Y0278846D02*
X0051730Y0278846D01*
X0054087Y0274650D02*
X0091224Y0274650D01*
X0091224Y0273252D02*
X0052689Y0273252D01*
X0051583Y0271853D02*
X0091224Y0271853D01*
X0091224Y0270455D02*
X0051583Y0270455D01*
X0051583Y0269056D02*
X0091224Y0269056D01*
X0089856Y0267658D02*
X0051583Y0267658D01*
X0051583Y0266259D02*
X0089856Y0266259D01*
X0089856Y0264861D02*
X0051583Y0264861D01*
X0051583Y0263462D02*
X0089856Y0263462D01*
X0089856Y0262064D02*
X0051583Y0262064D01*
X0051583Y0260665D02*
X0089856Y0260665D01*
X0089856Y0259267D02*
X0051583Y0259267D01*
X0051583Y0257868D02*
X0089856Y0257868D01*
X0089930Y0256470D02*
X0051583Y0256470D01*
X0051583Y0255071D02*
X0091283Y0255071D01*
X0092257Y0253673D02*
X0051583Y0253673D01*
X0051583Y0252274D02*
X0093655Y0252274D01*
X0096232Y0255071D02*
X0099098Y0255071D01*
X0099098Y0254831D02*
X0102239Y0251690D01*
X0099083Y0251690D01*
X0099083Y0252220D01*
X0097970Y0253333D01*
X0095520Y0255783D01*
X0095631Y0255783D01*
X0096393Y0256544D01*
X0096393Y0268054D01*
X0095631Y0268816D01*
X0095024Y0268816D01*
X0095024Y0278587D01*
X0099283Y0282846D01*
X0099283Y0268816D01*
X0098491Y0268816D01*
X0097730Y0268054D01*
X0097730Y0256544D01*
X0098491Y0255783D01*
X0099098Y0255783D01*
X0099098Y0254831D01*
X0100257Y0253673D02*
X0097631Y0253673D01*
X0099029Y0252274D02*
X0101655Y0252274D01*
X0104232Y0255071D02*
X0106858Y0255071D01*
X0105678Y0256470D02*
X0104192Y0256470D01*
X0104267Y0257868D02*
X0105604Y0257868D01*
X0105604Y0259267D02*
X0104267Y0259267D01*
X0104267Y0260665D02*
X0105604Y0260665D01*
X0105604Y0262064D02*
X0104267Y0262064D01*
X0104267Y0263462D02*
X0105604Y0263462D01*
X0105604Y0264861D02*
X0104267Y0264861D01*
X0104267Y0266259D02*
X0105604Y0266259D01*
X0105604Y0267658D02*
X0104267Y0267658D01*
X0103083Y0269056D02*
X0106783Y0269056D01*
X0106783Y0270455D02*
X0103083Y0270455D01*
X0103083Y0271853D02*
X0106783Y0271853D01*
X0105783Y0273252D02*
X0103083Y0273252D01*
X0103083Y0274650D02*
X0105783Y0274650D01*
X0105783Y0276049D02*
X0103083Y0276049D01*
X0103083Y0277447D02*
X0105783Y0277447D01*
X0105783Y0278846D02*
X0103083Y0278846D01*
X0103083Y0280244D02*
X0104938Y0280244D01*
X0104946Y0281643D02*
X0103083Y0281643D01*
X0103083Y0283041D02*
X0105831Y0283041D01*
X0099283Y0281643D02*
X0098080Y0281643D01*
X0099283Y0280244D02*
X0096681Y0280244D01*
X0095283Y0278846D02*
X0099283Y0278846D01*
X0099283Y0277447D02*
X0095024Y0277447D01*
X0095024Y0276049D02*
X0099283Y0276049D01*
X0099283Y0274650D02*
X0095024Y0274650D01*
X0095024Y0273252D02*
X0099283Y0273252D01*
X0099283Y0271853D02*
X0095024Y0271853D01*
X0095024Y0270455D02*
X0099283Y0270455D01*
X0099283Y0269056D02*
X0095024Y0269056D01*
X0096393Y0267658D02*
X0097730Y0267658D01*
X0097730Y0266259D02*
X0096393Y0266259D01*
X0096393Y0264861D02*
X0097730Y0264861D01*
X0097730Y0263462D02*
X0096393Y0263462D01*
X0096393Y0262064D02*
X0097730Y0262064D01*
X0097730Y0260665D02*
X0096393Y0260665D01*
X0096393Y0259267D02*
X0097730Y0259267D01*
X0097730Y0257868D02*
X0096393Y0257868D01*
X0096318Y0256470D02*
X0097804Y0256470D01*
X0105631Y0253673D02*
X0108257Y0253673D01*
X0109655Y0252274D02*
X0106583Y0252274D01*
X0112066Y0256470D02*
X0121426Y0256470D01*
X0121352Y0257868D02*
X0112141Y0257868D01*
X0112141Y0259267D02*
X0121352Y0259267D01*
X0121352Y0260665D02*
X0112141Y0260665D01*
X0112141Y0262064D02*
X0121320Y0262064D01*
X0121352Y0263462D02*
X0112141Y0263462D01*
X0112141Y0264861D02*
X0121352Y0264861D01*
X0121352Y0266259D02*
X0112141Y0266259D01*
X0112141Y0267658D02*
X0121352Y0267658D01*
X0135261Y0284440D02*
X0137523Y0284440D01*
X0136659Y0285838D02*
X0138921Y0285838D01*
X0140185Y0287102D02*
X0140185Y0287102D01*
X0140320Y0287237D02*
X0137683Y0287237D01*
X0137683Y0288635D02*
X0142560Y0288635D01*
X0140895Y0290034D02*
X0137683Y0290034D01*
X0137255Y0291432D02*
X0139497Y0291432D01*
X0138098Y0292831D02*
X0135856Y0292831D01*
X0142074Y0294229D02*
X0142560Y0294229D01*
X0142560Y0295628D02*
X0141583Y0295628D01*
X0141583Y0297026D02*
X0142560Y0297026D01*
X0142560Y0298425D02*
X0141583Y0298425D01*
X0141583Y0299823D02*
X0142536Y0299823D01*
X0142911Y0301222D02*
X0141583Y0301222D01*
X0141583Y0302620D02*
X0143783Y0302620D01*
X0143994Y0304019D02*
X0141583Y0304019D01*
X0140886Y0305417D02*
X0145066Y0305417D01*
X0145040Y0305392D02*
X0145040Y0305392D01*
X0151041Y0300533D02*
X0169482Y0300533D01*
X0170283Y0299732D01*
X0170283Y0298172D01*
X0170222Y0298233D01*
X0161145Y0298233D01*
X0160383Y0297472D01*
X0160383Y0288395D01*
X0161145Y0287633D01*
X0162383Y0287633D01*
X0162383Y0283277D01*
X0162885Y0282064D01*
X0163814Y0281135D01*
X0168383Y0276566D01*
X0168383Y0272704D01*
X0167444Y0271765D01*
X0166683Y0269928D01*
X0166683Y0267938D01*
X0167444Y0266101D01*
X0168851Y0264694D01*
X0170688Y0263933D01*
X0168851Y0263172D01*
X0167444Y0261765D01*
X0166683Y0259928D01*
X0166683Y0257938D01*
X0167444Y0256101D01*
X0168851Y0254694D01*
X0170688Y0253933D01*
X0172678Y0253933D01*
X0170688Y0253933D01*
X0168851Y0253172D01*
X0167444Y0251765D01*
X0166683Y0249928D01*
X0166683Y0248034D01*
X0157482Y0238833D01*
X0150925Y0238833D01*
X0151511Y0239418D01*
X0151511Y0243033D01*
X0152470Y0243033D01*
X0153583Y0244146D01*
X0155583Y0246146D01*
X0155583Y0267873D01*
X0156057Y0268347D01*
X0156483Y0269376D01*
X0156483Y0270490D01*
X0156057Y0271519D01*
X0155269Y0272307D01*
X0154240Y0272733D01*
X0153126Y0272733D01*
X0152097Y0272307D01*
X0151309Y0271519D01*
X0150883Y0270490D01*
X0150883Y0269376D01*
X0151309Y0268347D01*
X0151783Y0267873D01*
X0151783Y0247720D01*
X0151511Y0247448D01*
X0151511Y0250928D01*
X0150749Y0251690D01*
X0146083Y0251690D01*
X0146083Y0255783D01*
X0150749Y0255783D01*
X0151511Y0256544D01*
X0151511Y0268054D01*
X0150749Y0268816D01*
X0150083Y0268816D01*
X0150083Y0270873D01*
X0150557Y0271347D01*
X0150983Y0272376D01*
X0150983Y0273490D01*
X0150557Y0274519D01*
X0149769Y0275307D01*
X0148740Y0275733D01*
X0147626Y0275733D01*
X0146597Y0275307D01*
X0146083Y0274793D01*
X0146083Y0275982D01*
X0146269Y0276059D01*
X0147057Y0276847D01*
X0147483Y0277876D01*
X0147483Y0278990D01*
X0147057Y0280019D01*
X0146269Y0280807D01*
X0145240Y0281233D01*
X0144126Y0281233D01*
X0143313Y0280896D01*
X0144050Y0281633D01*
X0149736Y0281633D01*
X0151083Y0282980D01*
X0151083Y0283153D01*
X0154044Y0283153D01*
X0154806Y0283914D01*
X0154806Y0289716D01*
X0154323Y0290198D01*
X0154323Y0290980D01*
X0152583Y0292720D01*
X0151470Y0293833D01*
X0150748Y0293833D01*
X0151066Y0294150D01*
X0151066Y0296394D01*
X0151083Y0296436D01*
X0151083Y0297430D01*
X0151082Y0297433D01*
X0151083Y0297436D01*
X0151083Y0300430D01*
X0151041Y0300533D01*
X0151083Y0299823D02*
X0170191Y0299823D01*
X0170283Y0298425D02*
X0151083Y0298425D01*
X0151083Y0297026D02*
X0160383Y0297026D01*
X0160383Y0295628D02*
X0151066Y0295628D01*
X0151066Y0294229D02*
X0160383Y0294229D01*
X0160383Y0292831D02*
X0152472Y0292831D01*
X0153871Y0291432D02*
X0160383Y0291432D01*
X0160383Y0290034D02*
X0154488Y0290034D01*
X0154806Y0288635D02*
X0160383Y0288635D01*
X0162383Y0287237D02*
X0154806Y0287237D01*
X0154806Y0285838D02*
X0162383Y0285838D01*
X0162383Y0284440D02*
X0154806Y0284440D01*
X0151083Y0283041D02*
X0162481Y0283041D01*
X0163306Y0281643D02*
X0149745Y0281643D01*
X0146832Y0280244D02*
X0164705Y0280244D01*
X0166103Y0278846D02*
X0147483Y0278846D01*
X0147305Y0277447D02*
X0167502Y0277447D01*
X0168383Y0276049D02*
X0146244Y0276049D01*
X0142283Y0276049D02*
X0142027Y0276049D01*
X0142283Y0275793D02*
X0141769Y0276307D01*
X0140740Y0276733D01*
X0139626Y0276733D01*
X0138813Y0276396D01*
X0142220Y0279803D01*
X0141883Y0278990D01*
X0141883Y0277876D01*
X0142283Y0276910D01*
X0142283Y0275793D01*
X0142061Y0277447D02*
X0139864Y0277447D01*
X0141263Y0278846D02*
X0141883Y0278846D01*
X0137720Y0275303D02*
X0137383Y0274490D01*
X0137383Y0273376D01*
X0137809Y0272347D01*
X0138283Y0271873D01*
X0138283Y0268816D01*
X0137861Y0268816D01*
X0137100Y0268054D01*
X0137100Y0256544D01*
X0137861Y0255783D01*
X0142283Y0255783D01*
X0142283Y0251690D01*
X0137861Y0251690D01*
X0137100Y0250928D01*
X0137100Y0239418D01*
X0137685Y0238833D01*
X0135177Y0238833D01*
X0135763Y0239418D01*
X0135763Y0244441D01*
X0135794Y0244517D01*
X0135794Y0262956D01*
X0135794Y0273377D01*
X0137720Y0275303D01*
X0137449Y0274650D02*
X0137067Y0274650D01*
X0137435Y0273252D02*
X0135794Y0273252D01*
X0135794Y0271853D02*
X0138283Y0271853D01*
X0138283Y0270455D02*
X0135794Y0270455D01*
X0135794Y0269056D02*
X0138283Y0269056D01*
X0137100Y0267658D02*
X0135794Y0267658D01*
X0135794Y0266259D02*
X0137100Y0266259D01*
X0137100Y0264861D02*
X0135794Y0264861D01*
X0135794Y0263462D02*
X0137100Y0263462D01*
X0137100Y0262064D02*
X0135794Y0262064D01*
X0135794Y0260665D02*
X0137100Y0260665D01*
X0137100Y0259267D02*
X0135794Y0259267D01*
X0135794Y0257868D02*
X0137100Y0257868D01*
X0137174Y0256470D02*
X0135794Y0256470D01*
X0135794Y0255071D02*
X0142283Y0255071D01*
X0142283Y0253673D02*
X0135794Y0253673D01*
X0135794Y0252274D02*
X0142283Y0252274D01*
X0146083Y0252274D02*
X0151783Y0252274D01*
X0151783Y0250876D02*
X0151511Y0250876D01*
X0151511Y0249477D02*
X0151783Y0249477D01*
X0151783Y0248079D02*
X0151511Y0248079D01*
X0154718Y0245281D02*
X0163930Y0245281D01*
X0162532Y0243883D02*
X0153320Y0243883D01*
X0151511Y0242484D02*
X0161133Y0242484D01*
X0159735Y0241086D02*
X0151511Y0241086D01*
X0151511Y0239687D02*
X0158336Y0239687D01*
X0162343Y0235492D02*
X0167555Y0235492D01*
X0168953Y0236890D02*
X0163742Y0236890D01*
X0165140Y0238289D02*
X0170352Y0238289D01*
X0171750Y0239687D02*
X0166539Y0239687D01*
X0167937Y0241086D02*
X0173149Y0241086D01*
X0174547Y0242484D02*
X0169336Y0242484D01*
X0170734Y0243883D02*
X0175946Y0243883D01*
X0175103Y0245281D02*
X0177344Y0245281D01*
X0176162Y0246680D02*
X0178743Y0246680D01*
X0180142Y0248079D02*
X0176683Y0248079D01*
X0176683Y0249477D02*
X0181540Y0249477D01*
X0182939Y0250876D02*
X0176290Y0250876D01*
X0175413Y0252274D02*
X0184337Y0252274D01*
X0185736Y0253673D02*
X0173307Y0253673D01*
X0174892Y0255071D02*
X0186783Y0255071D01*
X0186783Y0256470D02*
X0177314Y0256470D01*
X0178719Y0257868D02*
X0186783Y0257868D01*
X0186783Y0259267D02*
X0180118Y0259267D01*
X0181297Y0260665D02*
X0186783Y0260665D01*
X0186783Y0262064D02*
X0181583Y0262064D01*
X0181583Y0263462D02*
X0186783Y0263462D01*
X0186783Y0264861D02*
X0181583Y0264861D01*
X0181583Y0266259D02*
X0186783Y0266259D01*
X0186783Y0267658D02*
X0181583Y0267658D01*
X0181583Y0269056D02*
X0186783Y0269056D01*
X0186783Y0270455D02*
X0181583Y0270455D01*
X0181583Y0271853D02*
X0186783Y0271853D01*
X0186783Y0273252D02*
X0181583Y0273252D01*
X0181583Y0274650D02*
X0186783Y0274650D01*
X0186783Y0276049D02*
X0181583Y0276049D01*
X0181583Y0277447D02*
X0186783Y0277447D01*
X0186783Y0278846D02*
X0181583Y0278846D01*
X0181583Y0280244D02*
X0186783Y0280244D01*
X0187706Y0281643D02*
X0181528Y0281643D01*
X0180676Y0283041D02*
X0189104Y0283041D01*
X0189433Y0284440D02*
X0179278Y0284440D01*
X0177879Y0285838D02*
X0189433Y0285838D01*
X0187896Y0281833D02*
X0187896Y0281833D01*
X0190583Y0279133D02*
X0195196Y0279133D01*
X0194396Y0278333D01*
X0193546Y0277483D01*
X0190583Y0277483D01*
X0190583Y0279133D01*
X0190583Y0278846D02*
X0194909Y0278846D01*
X0200872Y0279833D02*
X0200933Y0279895D01*
X0200933Y0281033D01*
X0207025Y0281033D01*
X0207309Y0280347D01*
X0207823Y0279833D01*
X0200872Y0279833D01*
X0200933Y0280244D02*
X0207412Y0280244D01*
X0209570Y0284733D02*
X0209470Y0284833D01*
X0200933Y0284833D01*
X0200933Y0285033D01*
X0212470Y0285033D01*
X0213583Y0286146D01*
X0217908Y0290471D01*
X0217683Y0289928D01*
X0217683Y0287938D01*
X0218069Y0287006D01*
X0212483Y0281420D01*
X0212483Y0282490D01*
X0212057Y0283519D01*
X0211269Y0284307D01*
X0210240Y0284733D01*
X0209570Y0284733D01*
X0210948Y0284440D02*
X0215503Y0284440D01*
X0216901Y0285838D02*
X0213275Y0285838D01*
X0214674Y0287237D02*
X0217974Y0287237D01*
X0217683Y0288635D02*
X0216072Y0288635D01*
X0217471Y0290034D02*
X0217727Y0290034D01*
X0214894Y0292831D02*
X0213885Y0292831D01*
X0213495Y0291432D02*
X0212309Y0291432D01*
X0212097Y0290034D02*
X0176083Y0290034D01*
X0176083Y0291432D02*
X0203057Y0291432D01*
X0201482Y0292831D02*
X0176083Y0292831D01*
X0176083Y0294229D02*
X0200215Y0294229D01*
X0199635Y0295628D02*
X0176083Y0295628D01*
X0176083Y0297026D02*
X0199056Y0297026D01*
X0198983Y0298425D02*
X0176083Y0298425D01*
X0176083Y0299823D02*
X0198983Y0299823D01*
X0199214Y0301222D02*
X0176083Y0301222D01*
X0175597Y0302620D02*
X0199794Y0302620D01*
X0200465Y0304019D02*
X0174198Y0304019D01*
X0172800Y0305417D02*
X0201864Y0305417D01*
X0215731Y0295628D02*
X0217691Y0295628D01*
X0216310Y0297026D02*
X0220913Y0297026D01*
X0219514Y0298425D02*
X0216383Y0298425D01*
X0216383Y0299823D02*
X0218116Y0299823D01*
X0216717Y0301222D02*
X0216152Y0301222D01*
X0216292Y0294229D02*
X0215152Y0294229D01*
X0214104Y0283041D02*
X0212255Y0283041D01*
X0212483Y0281643D02*
X0212706Y0281643D01*
X0215283Y0278846D02*
X0217683Y0278846D01*
X0217683Y0277938D02*
X0218444Y0276101D01*
X0219851Y0274694D01*
X0221688Y0273933D01*
X0223678Y0273933D01*
X0225515Y0274694D01*
X0226922Y0276101D01*
X0227683Y0277938D01*
X0227683Y0278246D01*
X0230083Y0280646D01*
X0230083Y0269220D01*
X0229470Y0269833D01*
X0228470Y0270833D01*
X0227308Y0270833D01*
X0226922Y0271765D01*
X0225515Y0273172D01*
X0223678Y0273933D01*
X0221688Y0273933D01*
X0219851Y0273172D01*
X0218444Y0271765D01*
X0217683Y0269928D01*
X0217683Y0267938D01*
X0218444Y0266101D01*
X0219851Y0264694D01*
X0221688Y0263933D01*
X0219851Y0263172D01*
X0218444Y0261765D01*
X0218058Y0260833D01*
X0199270Y0260833D01*
X0200283Y0261846D01*
X0200283Y0269995D01*
X0200933Y0270645D01*
X0200933Y0276033D01*
X0212470Y0276033D01*
X0213583Y0277146D01*
X0220756Y0284319D01*
X0221688Y0283933D01*
X0219851Y0283172D01*
X0218444Y0281765D01*
X0217683Y0279928D01*
X0217683Y0277938D01*
X0217887Y0277447D02*
X0213884Y0277447D01*
X0212486Y0276049D02*
X0218496Y0276049D01*
X0219957Y0274650D02*
X0200933Y0274650D01*
X0200933Y0273252D02*
X0220044Y0273252D01*
X0218532Y0271853D02*
X0200933Y0271853D01*
X0200743Y0270455D02*
X0217901Y0270455D01*
X0217683Y0269056D02*
X0200283Y0269056D01*
X0200283Y0267658D02*
X0217799Y0267658D01*
X0218379Y0266259D02*
X0200283Y0266259D01*
X0200283Y0264861D02*
X0219684Y0264861D01*
X0220552Y0263462D02*
X0200283Y0263462D01*
X0200283Y0262064D02*
X0218743Y0262064D01*
X0221688Y0263933D02*
X0223678Y0263933D01*
X0225515Y0263172D01*
X0226783Y0261904D01*
X0226783Y0265962D01*
X0225515Y0264694D01*
X0223678Y0263933D01*
X0221688Y0263933D01*
X0224815Y0263462D02*
X0226783Y0263462D01*
X0226783Y0262064D02*
X0226624Y0262064D01*
X0226783Y0264861D02*
X0225682Y0264861D01*
X0228848Y0270455D02*
X0230083Y0270455D01*
X0230083Y0271853D02*
X0226834Y0271853D01*
X0225323Y0273252D02*
X0230083Y0273252D01*
X0230083Y0274650D02*
X0225409Y0274650D01*
X0226870Y0276049D02*
X0230083Y0276049D01*
X0230083Y0277447D02*
X0227480Y0277447D01*
X0228283Y0278846D02*
X0230083Y0278846D01*
X0230083Y0280244D02*
X0229681Y0280244D01*
X0226783Y0282720D02*
X0226783Y0285962D01*
X0225515Y0284694D01*
X0223678Y0283933D01*
X0221688Y0283933D01*
X0223678Y0283933D01*
X0225515Y0283172D01*
X0226375Y0282312D01*
X0226783Y0282720D01*
X0226783Y0283041D02*
X0225646Y0283041D01*
X0224901Y0284440D02*
X0226783Y0284440D01*
X0226783Y0285838D02*
X0226659Y0285838D01*
X0219720Y0283041D02*
X0219478Y0283041D01*
X0218394Y0281643D02*
X0218080Y0281643D01*
X0217814Y0280244D02*
X0216681Y0280244D01*
X0230083Y0293220D02*
X0229470Y0293833D01*
X0226970Y0296333D01*
X0230083Y0296333D01*
X0230083Y0293220D01*
X0230083Y0294229D02*
X0229074Y0294229D01*
X0230083Y0295628D02*
X0227675Y0295628D01*
X0196483Y0269883D02*
X0196483Y0263420D01*
X0195796Y0262733D01*
X0195126Y0262733D01*
X0194097Y0262307D01*
X0193583Y0261793D01*
X0193583Y0269883D01*
X0196483Y0269883D01*
X0196483Y0269056D02*
X0193583Y0269056D01*
X0193583Y0267658D02*
X0196483Y0267658D01*
X0196483Y0266259D02*
X0193583Y0266259D01*
X0193583Y0264861D02*
X0196483Y0264861D01*
X0196483Y0263462D02*
X0193583Y0263462D01*
X0193583Y0262064D02*
X0193854Y0262064D01*
X0193583Y0258073D02*
X0194097Y0257559D01*
X0195126Y0257133D01*
X0195196Y0257133D01*
X0193583Y0255520D01*
X0193583Y0258073D01*
X0193583Y0257868D02*
X0193788Y0257868D01*
X0193583Y0256470D02*
X0194533Y0256470D01*
X0197110Y0253673D02*
X0221060Y0253673D01*
X0221688Y0253933D02*
X0219851Y0253172D01*
X0218444Y0251765D01*
X0218058Y0250833D01*
X0194270Y0250833D01*
X0200470Y0257033D01*
X0218058Y0257033D01*
X0218444Y0256101D01*
X0219851Y0254694D01*
X0221688Y0253933D01*
X0223678Y0253933D01*
X0225515Y0254694D01*
X0226783Y0255962D01*
X0226783Y0251904D01*
X0225515Y0253172D01*
X0223678Y0253933D01*
X0221688Y0253933D01*
X0219474Y0255071D02*
X0198508Y0255071D01*
X0199907Y0256470D02*
X0218292Y0256470D01*
X0218953Y0252274D02*
X0195711Y0252274D01*
X0194313Y0250876D02*
X0218076Y0250876D01*
X0218058Y0247033D02*
X0218444Y0246101D01*
X0219851Y0244694D01*
X0221688Y0243933D01*
X0223678Y0243933D01*
X0225515Y0244694D01*
X0226783Y0245962D01*
X0226783Y0241904D01*
X0225515Y0243172D01*
X0223678Y0243933D01*
X0221688Y0243933D01*
X0219851Y0243172D01*
X0218444Y0241765D01*
X0218058Y0240833D01*
X0187270Y0240833D01*
X0193470Y0247033D01*
X0218058Y0247033D01*
X0218204Y0246680D02*
X0193117Y0246680D01*
X0191718Y0245281D02*
X0219264Y0245281D01*
X0221568Y0243883D02*
X0190320Y0243883D01*
X0188921Y0242484D02*
X0219163Y0242484D01*
X0218163Y0241086D02*
X0187523Y0241086D01*
X0195335Y0229898D02*
X0230083Y0229898D01*
X0230083Y0231296D02*
X0225733Y0231296D01*
X0227132Y0232695D02*
X0230083Y0232695D01*
X0230083Y0234093D02*
X0228530Y0234093D01*
X0229929Y0235492D02*
X0230083Y0235492D01*
X0230083Y0228499D02*
X0186936Y0228499D01*
X0185538Y0227101D02*
X0230083Y0227101D01*
X0230083Y0225702D02*
X0184139Y0225702D01*
X0182741Y0224304D02*
X0230083Y0224304D01*
X0230083Y0222905D02*
X0225782Y0222905D01*
X0227029Y0221507D02*
X0230083Y0221507D01*
X0230083Y0220108D02*
X0227608Y0220108D01*
X0227683Y0218710D02*
X0230083Y0218710D01*
X0230083Y0217311D02*
X0227423Y0217311D01*
X0226734Y0215913D02*
X0230083Y0215913D01*
X0230083Y0214514D02*
X0225081Y0214514D01*
X0220285Y0214514D02*
X0218983Y0214514D01*
X0218983Y0213116D02*
X0230083Y0213116D01*
X0230083Y0211717D02*
X0218983Y0211717D01*
X0218983Y0210319D02*
X0230083Y0210319D01*
X0230083Y0208920D02*
X0218983Y0208920D01*
X0218983Y0207522D02*
X0230083Y0207522D01*
X0230083Y0206123D02*
X0218983Y0206123D01*
X0218983Y0204725D02*
X0230083Y0204725D01*
X0230083Y0203326D02*
X0218983Y0203326D01*
X0218983Y0201928D02*
X0230083Y0201928D01*
X0230083Y0200529D02*
X0218983Y0200529D01*
X0218983Y0199131D02*
X0230083Y0199131D01*
X0230083Y0197732D02*
X0218983Y0197732D01*
X0218983Y0196334D02*
X0227162Y0196334D01*
X0226067Y0194935D02*
X0218983Y0194935D01*
X0218983Y0193537D02*
X0220731Y0193537D01*
X0224635Y0193537D02*
X0225883Y0193537D01*
X0226783Y0185962D02*
X0226783Y0181904D01*
X0225515Y0183172D01*
X0223678Y0183933D01*
X0221688Y0183933D01*
X0219851Y0183172D01*
X0218983Y0182304D01*
X0218983Y0185562D01*
X0219851Y0184694D01*
X0221688Y0183933D01*
X0223678Y0183933D01*
X0225515Y0184694D01*
X0226783Y0185962D01*
X0226783Y0185145D02*
X0225967Y0185145D01*
X0226783Y0183747D02*
X0224127Y0183747D01*
X0226339Y0182348D02*
X0226783Y0182348D01*
X0221239Y0183747D02*
X0218983Y0183747D01*
X0218983Y0185145D02*
X0219400Y0185145D01*
X0219027Y0182348D02*
X0218983Y0182348D01*
X0218983Y0175562D02*
X0219851Y0174694D01*
X0221688Y0173933D01*
X0219851Y0173172D01*
X0218983Y0172304D01*
X0218983Y0175562D01*
X0218983Y0175356D02*
X0219189Y0175356D01*
X0218983Y0173957D02*
X0221630Y0173957D01*
X0221688Y0173933D02*
X0223678Y0173933D01*
X0225515Y0173172D01*
X0226783Y0171904D01*
X0226783Y0175962D01*
X0225515Y0174694D01*
X0223678Y0173933D01*
X0221688Y0173933D01*
X0223736Y0173957D02*
X0226783Y0173957D01*
X0226783Y0172559D02*
X0226128Y0172559D01*
X0226177Y0175356D02*
X0226783Y0175356D01*
X0228800Y0168363D02*
X0230083Y0168363D01*
X0230083Y0166965D02*
X0227280Y0166965D01*
X0226387Y0165566D02*
X0230083Y0165566D01*
X0230083Y0164168D02*
X0224244Y0164168D01*
X0223678Y0163933D02*
X0221688Y0163933D01*
X0219851Y0164694D01*
X0218983Y0165562D01*
X0218983Y0162304D01*
X0219851Y0163172D01*
X0221688Y0163933D01*
X0223678Y0163933D01*
X0225918Y0162769D02*
X0230083Y0162769D01*
X0230083Y0161371D02*
X0227085Y0161371D01*
X0227665Y0159972D02*
X0230083Y0159972D01*
X0230083Y0158574D02*
X0227683Y0158574D01*
X0227367Y0157175D02*
X0230083Y0157175D01*
X0230083Y0155777D02*
X0226598Y0155777D01*
X0224752Y0154378D02*
X0230083Y0154378D01*
X0230083Y0152980D02*
X0225707Y0152980D01*
X0226998Y0151581D02*
X0230083Y0151581D01*
X0230083Y0150183D02*
X0227577Y0150183D01*
X0227683Y0148784D02*
X0230083Y0148784D01*
X0230083Y0147386D02*
X0227454Y0147386D01*
X0226808Y0145987D02*
X0230083Y0145987D01*
X0230083Y0144589D02*
X0225260Y0144589D01*
X0230083Y0143190D02*
X0218983Y0143190D01*
X0218983Y0141792D02*
X0230083Y0141792D01*
X0230083Y0140393D02*
X0218983Y0140393D01*
X0218983Y0138995D02*
X0230083Y0138995D01*
X0230083Y0137596D02*
X0218983Y0137596D01*
X0218983Y0136198D02*
X0230083Y0136198D01*
X0230083Y0134799D02*
X0218983Y0134799D01*
X0218983Y0133401D02*
X0230083Y0133401D01*
X0230083Y0132002D02*
X0219281Y0132002D01*
X0223084Y0130604D02*
X0230083Y0130604D01*
X0230083Y0129205D02*
X0224154Y0129205D01*
X0224683Y0127807D02*
X0230083Y0127807D01*
X0230083Y0126408D02*
X0224683Y0126408D01*
X0224298Y0125010D02*
X0230083Y0125010D01*
X0230083Y0123611D02*
X0223432Y0123611D01*
X0222983Y0122212D02*
X0230083Y0122212D01*
X0230083Y0120814D02*
X0222983Y0120814D01*
X0222983Y0119415D02*
X0230083Y0119415D01*
X0230083Y0118017D02*
X0222983Y0118017D01*
X0222983Y0116618D02*
X0230083Y0116618D01*
X0230083Y0115220D02*
X0222983Y0115220D01*
X0222983Y0113821D02*
X0230083Y0113821D01*
X0230083Y0112423D02*
X0222983Y0112423D01*
X0222983Y0111024D02*
X0230083Y0111024D01*
X0230083Y0109626D02*
X0222983Y0109626D01*
X0222983Y0108227D02*
X0230083Y0108227D01*
X0230083Y0106829D02*
X0222983Y0106829D01*
X0222983Y0105430D02*
X0230083Y0105430D01*
X0230083Y0104032D02*
X0222983Y0104032D01*
X0222983Y0102633D02*
X0230083Y0102633D01*
X0230083Y0101235D02*
X0222966Y0101235D01*
X0222253Y0099836D02*
X0230083Y0099836D01*
X0230083Y0098438D02*
X0220855Y0098438D01*
X0219456Y0097039D02*
X0230083Y0097039D01*
X0230083Y0095641D02*
X0218058Y0095641D01*
X0216659Y0094242D02*
X0230083Y0094242D01*
X0230083Y0092844D02*
X0202983Y0092844D01*
X0202983Y0101235D02*
X0214318Y0101235D01*
X0215716Y0102633D02*
X0146983Y0102633D01*
X0146983Y0101235D02*
X0192383Y0101235D01*
X0192383Y0099836D02*
X0146983Y0099836D01*
X0146983Y0098438D02*
X0192383Y0098438D01*
X0192383Y0097039D02*
X0146983Y0097039D01*
X0146983Y0095641D02*
X0192383Y0095641D01*
X0192383Y0094242D02*
X0146983Y0094242D01*
X0146983Y0092844D02*
X0192383Y0092844D01*
X0195434Y0118017D02*
X0216383Y0118017D01*
X0216383Y0119415D02*
X0196832Y0119415D01*
X0198231Y0120814D02*
X0204115Y0120814D01*
X0203783Y0122212D02*
X0201352Y0122212D01*
X0203432Y0123611D02*
X0203783Y0123611D01*
X0203783Y0130604D02*
X0203084Y0130604D01*
X0203783Y0132002D02*
X0141439Y0132002D01*
X0140041Y0130604D02*
X0151252Y0130604D01*
X0150744Y0129205D02*
X0138642Y0129205D01*
X0135819Y0127807D02*
X0150744Y0127807D01*
X0150744Y0126408D02*
X0136183Y0126408D01*
X0136183Y0125010D02*
X0149008Y0125010D01*
X0148800Y0123611D02*
X0135633Y0123611D01*
X0134534Y0122212D02*
X0148800Y0122212D01*
X0148800Y0120814D02*
X0132465Y0120814D01*
X0129901Y0120814D02*
X0082465Y0120814D01*
X0084534Y0122212D02*
X0127833Y0122212D01*
X0126733Y0123611D02*
X0085633Y0123611D01*
X0086183Y0125010D02*
X0126183Y0125010D01*
X0126183Y0126408D02*
X0086183Y0126408D01*
X0085819Y0127807D02*
X0126547Y0127807D01*
X0127212Y0132833D02*
X0085154Y0132833D01*
X0085422Y0133101D01*
X0086183Y0134938D01*
X0086183Y0136928D01*
X0085422Y0138765D01*
X0085154Y0139033D01*
X0086470Y0139033D01*
X0087583Y0140146D01*
X0092583Y0145146D01*
X0092583Y0148873D01*
X0093057Y0149347D01*
X0093483Y0150376D01*
X0093483Y0151490D01*
X0093057Y0152519D01*
X0092269Y0153307D01*
X0091240Y0153733D01*
X0091170Y0153733D01*
X0091470Y0154033D01*
X0126558Y0154033D01*
X0126944Y0153101D01*
X0128351Y0151694D01*
X0130188Y0150933D01*
X0128351Y0150172D01*
X0126944Y0148765D01*
X0126183Y0146928D01*
X0126183Y0144938D01*
X0126944Y0143101D01*
X0127212Y0142833D01*
X0124896Y0142833D01*
X0121896Y0139833D01*
X0121743Y0139833D01*
X0121269Y0140307D01*
X0120240Y0140733D01*
X0119126Y0140733D01*
X0118097Y0140307D01*
X0117309Y0139519D01*
X0116883Y0138490D01*
X0116883Y0137376D01*
X0117309Y0136347D01*
X0118097Y0135559D01*
X0119126Y0135133D01*
X0120240Y0135133D01*
X0121269Y0135559D01*
X0121743Y0136033D01*
X0123470Y0136033D01*
X0126470Y0139033D01*
X0127212Y0139033D01*
X0126944Y0138765D01*
X0126183Y0136928D01*
X0126183Y0134938D01*
X0126944Y0133101D01*
X0127212Y0132833D01*
X0126820Y0133401D02*
X0085546Y0133401D01*
X0086125Y0134799D02*
X0126241Y0134799D01*
X0126183Y0136198D02*
X0123635Y0136198D01*
X0125033Y0137596D02*
X0126460Y0137596D01*
X0126432Y0138995D02*
X0127174Y0138995D01*
X0123855Y0141792D02*
X0089229Y0141792D01*
X0090627Y0143190D02*
X0126907Y0143190D01*
X0126328Y0144589D02*
X0092026Y0144589D01*
X0092583Y0145987D02*
X0126183Y0145987D01*
X0126373Y0147386D02*
X0092583Y0147386D01*
X0092583Y0148784D02*
X0126963Y0148784D01*
X0128377Y0150183D02*
X0093403Y0150183D01*
X0093445Y0151581D02*
X0128624Y0151581D01*
X0130188Y0150933D02*
X0132178Y0150933D01*
X0134015Y0150172D01*
X0135422Y0148765D01*
X0136183Y0146928D01*
X0136183Y0144938D01*
X0135422Y0143101D01*
X0135154Y0142833D01*
X0139896Y0142833D01*
X0150783Y0153720D01*
X0150783Y0171346D01*
X0139583Y0160146D01*
X0139583Y0160146D01*
X0138470Y0159033D01*
X0135154Y0159033D01*
X0135422Y0158765D01*
X0136183Y0156928D01*
X0136183Y0154938D01*
X0135422Y0153101D01*
X0134015Y0151694D01*
X0132178Y0150933D01*
X0130188Y0150933D01*
X0133742Y0151581D02*
X0148644Y0151581D01*
X0147246Y0150183D02*
X0133989Y0150183D01*
X0135403Y0148784D02*
X0145847Y0148784D01*
X0144449Y0147386D02*
X0135993Y0147386D01*
X0136183Y0145987D02*
X0143050Y0145987D01*
X0141652Y0144589D02*
X0136038Y0144589D01*
X0135459Y0143190D02*
X0140253Y0143190D01*
X0142830Y0140393D02*
X0144456Y0140393D01*
X0144229Y0141792D02*
X0145855Y0141792D01*
X0145627Y0143190D02*
X0147253Y0143190D01*
X0147026Y0144589D02*
X0148652Y0144589D01*
X0148424Y0145987D02*
X0150050Y0145987D01*
X0149823Y0147386D02*
X0151449Y0147386D01*
X0151221Y0148784D02*
X0152783Y0148784D01*
X0152783Y0148720D02*
X0136896Y0132833D01*
X0135154Y0132833D01*
X0135422Y0133101D01*
X0136183Y0134938D01*
X0136183Y0136928D01*
X0135422Y0138765D01*
X0135154Y0139033D01*
X0141470Y0139033D01*
X0152783Y0150346D01*
X0152783Y0148720D01*
X0152783Y0150183D02*
X0152620Y0150183D01*
X0150043Y0152980D02*
X0135301Y0152980D01*
X0135951Y0154378D02*
X0150783Y0154378D01*
X0150783Y0155777D02*
X0136183Y0155777D01*
X0136080Y0157175D02*
X0150783Y0157175D01*
X0150783Y0158574D02*
X0135501Y0158574D01*
X0135154Y0162833D02*
X0135422Y0163101D01*
X0136183Y0164938D01*
X0136183Y0166928D01*
X0135422Y0168765D01*
X0135154Y0169033D01*
X0143096Y0169033D01*
X0136896Y0162833D01*
X0135154Y0162833D01*
X0135864Y0164168D02*
X0138231Y0164168D01*
X0139629Y0165566D02*
X0136183Y0165566D01*
X0136168Y0166965D02*
X0141028Y0166965D01*
X0142426Y0168363D02*
X0135588Y0168363D01*
X0135154Y0172833D02*
X0135422Y0173101D01*
X0136183Y0174938D01*
X0136183Y0176928D01*
X0135422Y0178765D01*
X0135154Y0179033D01*
X0142470Y0179033D01*
X0143583Y0180146D01*
X0146783Y0183346D01*
X0146783Y0177720D01*
X0141896Y0172833D01*
X0135154Y0172833D01*
X0135777Y0173957D02*
X0143020Y0173957D01*
X0144419Y0175356D02*
X0136183Y0175356D01*
X0136183Y0176754D02*
X0145817Y0176754D01*
X0146783Y0178153D02*
X0135676Y0178153D01*
X0135154Y0182833D02*
X0135422Y0183101D01*
X0136183Y0184938D01*
X0136183Y0186928D01*
X0135422Y0188765D01*
X0135154Y0189033D01*
X0141470Y0189033D01*
X0142583Y0190146D01*
X0144783Y0192346D01*
X0144783Y0186720D01*
X0140896Y0182833D01*
X0135154Y0182833D01*
X0135690Y0183747D02*
X0141810Y0183747D01*
X0143209Y0185145D02*
X0136183Y0185145D01*
X0136183Y0186544D02*
X0144607Y0186544D01*
X0144783Y0187943D02*
X0135763Y0187943D01*
X0135602Y0193537D02*
X0140600Y0193537D01*
X0141998Y0194935D02*
X0136182Y0194935D01*
X0136183Y0196334D02*
X0142783Y0196334D01*
X0142783Y0197732D02*
X0135850Y0197732D01*
X0135057Y0199131D02*
X0142783Y0199131D01*
X0142783Y0200529D02*
X0133153Y0200529D01*
X0134249Y0201928D02*
X0142783Y0201928D01*
X0142783Y0203326D02*
X0135515Y0203326D01*
X0136094Y0204725D02*
X0142788Y0204725D01*
X0144186Y0206123D02*
X0136183Y0206123D01*
X0135937Y0207522D02*
X0145585Y0207522D01*
X0146983Y0208920D02*
X0135267Y0208920D01*
X0133661Y0210319D02*
X0148382Y0210319D01*
X0149780Y0211717D02*
X0134038Y0211717D01*
X0135428Y0213116D02*
X0151179Y0213116D01*
X0151206Y0214514D02*
X0149160Y0214514D01*
X0146206Y0214514D02*
X0136007Y0214514D01*
X0136183Y0215913D02*
X0145075Y0215913D01*
X0144883Y0217311D02*
X0136024Y0217311D01*
X0135445Y0218710D02*
X0145500Y0218710D01*
X0148171Y0220108D02*
X0134079Y0220108D01*
X0133944Y0221507D02*
X0149570Y0221507D01*
X0154968Y0222905D02*
X0135342Y0222905D01*
X0136741Y0224304D02*
X0156367Y0224304D01*
X0157765Y0225702D02*
X0138139Y0225702D01*
X0138583Y0227101D02*
X0159164Y0227101D01*
X0160562Y0228499D02*
X0138583Y0228499D01*
X0138583Y0229898D02*
X0161961Y0229898D01*
X0163359Y0231296D02*
X0138583Y0231296D01*
X0138398Y0232695D02*
X0164758Y0232695D01*
X0166156Y0234093D02*
X0160945Y0234093D01*
X0165329Y0246680D02*
X0155583Y0246680D01*
X0155583Y0248079D02*
X0166683Y0248079D01*
X0166683Y0249477D02*
X0155583Y0249477D01*
X0155583Y0250876D02*
X0167076Y0250876D01*
X0167953Y0252274D02*
X0155583Y0252274D01*
X0155583Y0253673D02*
X0170060Y0253673D01*
X0168474Y0255071D02*
X0155583Y0255071D01*
X0155583Y0256470D02*
X0167292Y0256470D01*
X0166712Y0257868D02*
X0155583Y0257868D01*
X0155583Y0259267D02*
X0166683Y0259267D01*
X0166989Y0260665D02*
X0155583Y0260665D01*
X0155583Y0262064D02*
X0167743Y0262064D01*
X0169552Y0263462D02*
X0155583Y0263462D01*
X0155583Y0264861D02*
X0168684Y0264861D01*
X0167379Y0266259D02*
X0155583Y0266259D01*
X0155583Y0267658D02*
X0166799Y0267658D01*
X0166683Y0269056D02*
X0156351Y0269056D01*
X0156483Y0270455D02*
X0166901Y0270455D01*
X0167532Y0271853D02*
X0155723Y0271853D01*
X0151643Y0271853D02*
X0150766Y0271853D01*
X0150883Y0270455D02*
X0150083Y0270455D01*
X0150083Y0269056D02*
X0151016Y0269056D01*
X0151511Y0267658D02*
X0151783Y0267658D01*
X0151783Y0266259D02*
X0151511Y0266259D01*
X0151511Y0264861D02*
X0151783Y0264861D01*
X0151783Y0263462D02*
X0151511Y0263462D01*
X0151511Y0262064D02*
X0151783Y0262064D01*
X0151783Y0260665D02*
X0151511Y0260665D01*
X0151511Y0259267D02*
X0151783Y0259267D01*
X0151783Y0257868D02*
X0151511Y0257868D01*
X0151436Y0256470D02*
X0151783Y0256470D01*
X0151783Y0255071D02*
X0146083Y0255071D01*
X0146083Y0253673D02*
X0151783Y0253673D01*
X0144974Y0244537D02*
X0144974Y0239418D01*
X0145559Y0238833D01*
X0143051Y0238833D01*
X0143637Y0239418D01*
X0143637Y0243273D01*
X0143710Y0243273D01*
X0144823Y0244386D01*
X0144974Y0244537D01*
X0144974Y0243883D02*
X0144320Y0243883D01*
X0144974Y0242484D02*
X0143637Y0242484D01*
X0143637Y0241086D02*
X0144974Y0241086D01*
X0144974Y0239687D02*
X0143637Y0239687D01*
X0137100Y0239687D02*
X0135763Y0239687D01*
X0135763Y0241086D02*
X0137100Y0241086D01*
X0137100Y0242484D02*
X0135763Y0242484D01*
X0135763Y0243883D02*
X0137100Y0243883D01*
X0137100Y0245281D02*
X0135794Y0245281D01*
X0135794Y0246680D02*
X0137100Y0246680D01*
X0137100Y0248079D02*
X0135794Y0248079D01*
X0135794Y0249477D02*
X0137100Y0249477D01*
X0137100Y0250876D02*
X0135794Y0250876D01*
X0142083Y0268816D02*
X0142083Y0271873D01*
X0142283Y0272073D01*
X0142283Y0268816D01*
X0142083Y0268816D01*
X0142083Y0269056D02*
X0142283Y0269056D01*
X0142283Y0270455D02*
X0142083Y0270455D01*
X0142083Y0271853D02*
X0142283Y0271853D01*
X0146083Y0271073D02*
X0146083Y0268816D01*
X0146283Y0268816D01*
X0146283Y0270873D01*
X0146083Y0271073D01*
X0146083Y0270455D02*
X0146283Y0270455D01*
X0146283Y0269056D02*
X0146083Y0269056D01*
X0150983Y0273252D02*
X0168383Y0273252D01*
X0168383Y0274650D02*
X0150426Y0274650D01*
X0168983Y0285300D02*
X0168983Y0287633D01*
X0170222Y0287633D01*
X0170283Y0287695D01*
X0170283Y0285856D01*
X0170725Y0284790D01*
X0171540Y0283975D01*
X0175783Y0279732D01*
X0175783Y0271904D01*
X0174983Y0272704D01*
X0174983Y0278589D01*
X0174481Y0279802D01*
X0168983Y0285300D01*
X0168983Y0285838D02*
X0170290Y0285838D01*
X0170283Y0287237D02*
X0168983Y0287237D01*
X0169843Y0284440D02*
X0171075Y0284440D01*
X0171242Y0283041D02*
X0172474Y0283041D01*
X0172640Y0281643D02*
X0173872Y0281643D01*
X0174039Y0280244D02*
X0175271Y0280244D01*
X0174877Y0278846D02*
X0175783Y0278846D01*
X0175783Y0277447D02*
X0174983Y0277447D01*
X0174983Y0276049D02*
X0175783Y0276049D01*
X0175783Y0274650D02*
X0174983Y0274650D01*
X0174983Y0273252D02*
X0175783Y0273252D01*
X0175783Y0265962D02*
X0175783Y0263134D01*
X0175168Y0262519D01*
X0174515Y0263172D01*
X0172678Y0263933D01*
X0170688Y0263933D01*
X0172678Y0263933D01*
X0174515Y0264694D01*
X0175783Y0265962D01*
X0175783Y0264861D02*
X0174682Y0264861D01*
X0173815Y0263462D02*
X0175783Y0263462D01*
X0176481Y0287237D02*
X0194300Y0287237D01*
X0195698Y0288635D02*
X0176083Y0288635D01*
X0198233Y0234093D02*
X0215836Y0234093D01*
X0217234Y0232695D02*
X0198483Y0232695D01*
X0198006Y0231296D02*
X0218633Y0231296D01*
X0219584Y0222905D02*
X0181342Y0222905D01*
X0179944Y0221507D02*
X0216590Y0221507D01*
X0215191Y0220108D02*
X0178545Y0220108D01*
X0177147Y0218710D02*
X0181889Y0218710D01*
X0180756Y0217311D02*
X0175748Y0217311D01*
X0174350Y0215913D02*
X0180183Y0215913D01*
X0180183Y0214514D02*
X0172951Y0214514D01*
X0171553Y0213116D02*
X0180524Y0213116D01*
X0179280Y0211717D02*
X0171278Y0211717D01*
X0167883Y0208920D02*
X0167357Y0208920D01*
X0168237Y0207522D02*
X0165959Y0207522D01*
X0164560Y0206123D02*
X0212383Y0206123D01*
X0212383Y0204725D02*
X0163162Y0204725D01*
X0161763Y0203326D02*
X0212383Y0203326D01*
X0212383Y0201928D02*
X0160365Y0201928D01*
X0158966Y0200529D02*
X0167592Y0200529D01*
X0166783Y0199131D02*
X0157568Y0199131D01*
X0156583Y0197732D02*
X0166783Y0197732D01*
X0166783Y0196334D02*
X0156583Y0196334D01*
X0156583Y0194935D02*
X0166783Y0194935D01*
X0166783Y0193537D02*
X0156583Y0193537D01*
X0156583Y0192138D02*
X0166783Y0192138D01*
X0166783Y0190740D02*
X0156583Y0190740D01*
X0156583Y0189341D02*
X0166783Y0189341D01*
X0166783Y0187943D02*
X0156583Y0187943D01*
X0156583Y0186544D02*
X0156783Y0186544D01*
X0156783Y0185145D02*
X0156583Y0185145D01*
X0156583Y0183747D02*
X0156783Y0183747D01*
X0156783Y0182348D02*
X0156583Y0182348D01*
X0156583Y0180950D02*
X0156783Y0180950D01*
X0156783Y0179551D02*
X0156583Y0179551D01*
X0156583Y0178153D02*
X0156783Y0178153D01*
X0156783Y0176754D02*
X0156583Y0176754D01*
X0156583Y0175356D02*
X0156783Y0175356D01*
X0156783Y0173957D02*
X0156583Y0173957D01*
X0156583Y0172559D02*
X0156783Y0172559D01*
X0156783Y0171160D02*
X0156583Y0171160D01*
X0156583Y0169762D02*
X0156825Y0169762D01*
X0156783Y0168363D02*
X0156583Y0168363D01*
X0156583Y0166965D02*
X0156783Y0166965D01*
X0156783Y0165566D02*
X0156583Y0165566D01*
X0156583Y0164168D02*
X0156783Y0164168D01*
X0156783Y0162769D02*
X0156583Y0162769D01*
X0156583Y0161371D02*
X0156783Y0161371D01*
X0156783Y0159972D02*
X0156583Y0159972D01*
X0156583Y0158574D02*
X0156783Y0158574D01*
X0156783Y0157175D02*
X0156583Y0157175D01*
X0156583Y0155777D02*
X0156783Y0155777D01*
X0156783Y0154378D02*
X0156583Y0154378D01*
X0156583Y0152980D02*
X0156783Y0152980D01*
X0156783Y0151581D02*
X0156583Y0151581D01*
X0156583Y0150183D02*
X0156783Y0150183D01*
X0156783Y0148784D02*
X0156583Y0148784D01*
X0156583Y0147386D02*
X0156783Y0147386D01*
X0156783Y0145987D02*
X0155424Y0145987D01*
X0156783Y0144589D02*
X0154026Y0144589D01*
X0152627Y0143190D02*
X0156783Y0143190D01*
X0151229Y0141792D02*
X0186783Y0141792D01*
X0186783Y0143190D02*
X0177583Y0143190D01*
X0177583Y0144589D02*
X0184350Y0144589D01*
X0183702Y0145987D02*
X0177583Y0145987D01*
X0177583Y0147386D02*
X0183702Y0147386D01*
X0183702Y0148784D02*
X0182853Y0148784D01*
X0186783Y0140393D02*
X0149830Y0140393D01*
X0148432Y0138995D02*
X0186783Y0138995D01*
X0186783Y0137596D02*
X0147033Y0137596D01*
X0145635Y0136198D02*
X0186783Y0136198D01*
X0187130Y0134799D02*
X0144236Y0134799D01*
X0142838Y0133401D02*
X0203783Y0133401D01*
X0203783Y0134799D02*
X0197236Y0134799D01*
X0196282Y0130604D02*
X0156114Y0130604D01*
X0156583Y0129205D02*
X0195212Y0129205D01*
X0194683Y0127807D02*
X0156544Y0127807D01*
X0156544Y0126408D02*
X0194491Y0126408D01*
X0193093Y0125010D02*
X0178358Y0125010D01*
X0178566Y0123611D02*
X0191694Y0123611D01*
X0178566Y0116618D02*
X0216383Y0116618D01*
X0216383Y0115220D02*
X0178566Y0115220D01*
X0168879Y0115220D02*
X0158487Y0115220D01*
X0158487Y0116618D02*
X0168879Y0116618D01*
X0168879Y0118017D02*
X0158487Y0118017D01*
X0158487Y0119415D02*
X0168879Y0119415D01*
X0168879Y0120814D02*
X0158487Y0120814D01*
X0158487Y0122212D02*
X0168879Y0122212D01*
X0168879Y0123611D02*
X0158487Y0123611D01*
X0158280Y0125010D02*
X0169086Y0125010D01*
X0152199Y0113821D02*
X0216383Y0113821D01*
X0216383Y0112423D02*
X0150800Y0112423D01*
X0149402Y0111024D02*
X0216383Y0111024D01*
X0216383Y0109626D02*
X0148003Y0109626D01*
X0146983Y0108227D02*
X0216383Y0108227D01*
X0216383Y0106829D02*
X0146983Y0106829D01*
X0146983Y0105430D02*
X0216383Y0105430D01*
X0216383Y0104032D02*
X0146983Y0104032D01*
X0141467Y0112423D02*
X0134744Y0112423D01*
X0135720Y0113821D02*
X0142865Y0113821D01*
X0144264Y0115220D02*
X0136183Y0115220D01*
X0136183Y0116618D02*
X0145662Y0116618D01*
X0147061Y0118017D02*
X0135732Y0118017D01*
X0134772Y0119415D02*
X0148459Y0119415D01*
X0137464Y0133401D02*
X0135546Y0133401D01*
X0136125Y0134799D02*
X0138862Y0134799D01*
X0140261Y0136198D02*
X0136183Y0136198D01*
X0135906Y0137596D02*
X0141659Y0137596D01*
X0143058Y0138995D02*
X0135193Y0138995D01*
X0122456Y0140393D02*
X0121061Y0140393D01*
X0118305Y0140393D02*
X0087830Y0140393D01*
X0085193Y0138995D02*
X0117092Y0138995D01*
X0116883Y0137596D02*
X0085906Y0137596D01*
X0086183Y0136198D02*
X0117459Y0136198D01*
X0127594Y0119415D02*
X0084772Y0119415D01*
X0085732Y0118017D02*
X0126634Y0118017D01*
X0126183Y0116618D02*
X0086183Y0116618D01*
X0086183Y0115220D02*
X0126183Y0115220D01*
X0126646Y0113821D02*
X0085720Y0113821D01*
X0084744Y0112423D02*
X0127622Y0112423D01*
X0146983Y0091445D02*
X0230083Y0091445D01*
X0230083Y0090047D02*
X0146983Y0090047D01*
X0146983Y0088648D02*
X0230083Y0088648D01*
X0230083Y0087250D02*
X0146983Y0087250D01*
X0146983Y0085851D02*
X0230083Y0085851D01*
X0229526Y0084453D02*
X0146983Y0084453D01*
X0146983Y0083054D02*
X0228127Y0083054D01*
X0226729Y0081656D02*
X0146726Y0081656D01*
X0145674Y0080257D02*
X0225330Y0080257D01*
X0223932Y0078859D02*
X0144276Y0078859D01*
X0142877Y0077460D02*
X0222533Y0077460D01*
X0216383Y0120814D02*
X0215251Y0120814D01*
X0215583Y0122212D02*
X0216383Y0122212D01*
X0215934Y0123611D02*
X0215583Y0123611D01*
X0218983Y0144589D02*
X0220106Y0144589D01*
X0218983Y0152304D02*
X0218983Y0155562D01*
X0219851Y0154694D01*
X0221688Y0153933D01*
X0223678Y0153933D01*
X0221688Y0153933D01*
X0219851Y0153172D01*
X0218983Y0152304D01*
X0218983Y0152980D02*
X0219659Y0152980D01*
X0218983Y0154378D02*
X0220614Y0154378D01*
X0219448Y0162769D02*
X0218983Y0162769D01*
X0218983Y0164168D02*
X0221122Y0164168D01*
X0219238Y0172559D02*
X0218983Y0172559D01*
X0212383Y0172559D02*
X0203664Y0172559D01*
X0203664Y0173957D02*
X0212383Y0173957D01*
X0212383Y0175356D02*
X0203664Y0175356D01*
X0203539Y0176754D02*
X0212383Y0176754D01*
X0212383Y0178153D02*
X0203083Y0178153D01*
X0203083Y0179551D02*
X0212383Y0179551D01*
X0212383Y0180950D02*
X0203326Y0180950D01*
X0203802Y0182348D02*
X0212383Y0182348D01*
X0212383Y0183747D02*
X0203802Y0183747D01*
X0203802Y0185145D02*
X0212383Y0185145D01*
X0212383Y0186544D02*
X0203698Y0186544D01*
X0196975Y0186544D02*
X0196391Y0186544D01*
X0196019Y0180950D02*
X0197347Y0180950D01*
X0199283Y0179551D02*
X0190583Y0179551D01*
X0189590Y0178153D02*
X0199283Y0178153D01*
X0198827Y0176754D02*
X0198539Y0176754D01*
X0198664Y0176629D02*
X0197903Y0177391D01*
X0194463Y0177391D01*
X0193702Y0176629D01*
X0193702Y0166891D01*
X0194463Y0166129D01*
X0197903Y0166129D01*
X0198664Y0166891D01*
X0198664Y0176629D01*
X0198664Y0175356D02*
X0198702Y0175356D01*
X0198664Y0173957D02*
X0198702Y0173957D01*
X0198664Y0172559D02*
X0198702Y0172559D01*
X0198664Y0171160D02*
X0198702Y0171160D01*
X0198664Y0169762D02*
X0198702Y0169762D01*
X0198664Y0168363D02*
X0198702Y0168363D01*
X0198664Y0166965D02*
X0198702Y0166965D01*
X0193702Y0166965D02*
X0189083Y0166965D01*
X0189083Y0168363D02*
X0193702Y0168363D01*
X0193702Y0169762D02*
X0189083Y0169762D01*
X0189083Y0171160D02*
X0193702Y0171160D01*
X0193702Y0172559D02*
X0189083Y0172559D01*
X0189083Y0173957D02*
X0193702Y0173957D01*
X0193702Y0175356D02*
X0189083Y0175356D01*
X0189083Y0176754D02*
X0193827Y0176754D01*
X0203664Y0171160D02*
X0212383Y0171160D01*
X0212383Y0169762D02*
X0203664Y0169762D01*
X0203664Y0168363D02*
X0212383Y0168363D01*
X0212383Y0166965D02*
X0203664Y0166965D01*
X0206698Y0158574D02*
X0189083Y0158574D01*
X0189083Y0159972D02*
X0212383Y0159972D01*
X0212383Y0161371D02*
X0189083Y0161371D01*
X0189083Y0162769D02*
X0212383Y0162769D01*
X0212383Y0164168D02*
X0189083Y0164168D01*
X0189083Y0165566D02*
X0212383Y0165566D01*
X0206415Y0157175D02*
X0189083Y0157175D01*
X0194526Y0155777D02*
X0206415Y0155777D01*
X0206415Y0154378D02*
X0203664Y0154378D01*
X0203664Y0152980D02*
X0206415Y0152980D01*
X0206415Y0151581D02*
X0203664Y0151581D01*
X0203664Y0150183D02*
X0204963Y0150183D01*
X0198702Y0150183D02*
X0198664Y0150183D01*
X0198664Y0151581D02*
X0198702Y0151581D01*
X0198664Y0152980D02*
X0198702Y0152980D01*
X0198664Y0154378D02*
X0198702Y0154378D01*
X0198664Y0148784D02*
X0198702Y0148784D01*
X0198664Y0147386D02*
X0198702Y0147386D01*
X0190583Y0187943D02*
X0212383Y0187943D01*
X0212383Y0189341D02*
X0190583Y0189341D01*
X0190583Y0190740D02*
X0212383Y0190740D01*
X0212383Y0192138D02*
X0190583Y0192138D01*
X0190583Y0193537D02*
X0212383Y0193537D01*
X0212383Y0194935D02*
X0190583Y0194935D01*
X0190583Y0196334D02*
X0212383Y0196334D01*
X0212383Y0197732D02*
X0190583Y0197732D01*
X0190583Y0199131D02*
X0212383Y0199131D01*
X0212383Y0200529D02*
X0189774Y0200529D01*
X0187109Y0210319D02*
X0212383Y0210319D01*
X0212383Y0211717D02*
X0189038Y0211717D01*
X0189842Y0213116D02*
X0212383Y0213116D01*
X0212383Y0214514D02*
X0190183Y0214514D01*
X0190183Y0215913D02*
X0212383Y0215913D01*
X0212682Y0217311D02*
X0189610Y0217311D01*
X0188477Y0218710D02*
X0213793Y0218710D01*
X0212383Y0208920D02*
X0181857Y0208920D01*
X0180459Y0207522D02*
X0212383Y0207522D01*
X0183258Y0210319D02*
X0183256Y0210319D01*
X0178762Y0211199D02*
X0178762Y0211199D01*
X0146783Y0182348D02*
X0145785Y0182348D01*
X0146783Y0180950D02*
X0144387Y0180950D01*
X0142988Y0179551D02*
X0146783Y0179551D01*
X0150597Y0171160D02*
X0150783Y0171160D01*
X0150783Y0169762D02*
X0149199Y0169762D01*
X0147800Y0168363D02*
X0150783Y0168363D01*
X0150783Y0166965D02*
X0146402Y0166965D01*
X0145003Y0165566D02*
X0150783Y0165566D01*
X0150783Y0164168D02*
X0143605Y0164168D01*
X0142206Y0162769D02*
X0150783Y0162769D01*
X0150783Y0161371D02*
X0140808Y0161371D01*
X0139409Y0159972D02*
X0150783Y0159972D01*
X0127212Y0159033D02*
X0126944Y0158765D01*
X0126558Y0157833D01*
X0089896Y0157833D01*
X0086896Y0154833D01*
X0086258Y0154833D01*
X0086483Y0155376D01*
X0086483Y0156490D01*
X0086057Y0157519D01*
X0085269Y0158307D01*
X0084240Y0158733D01*
X0083570Y0158733D01*
X0076183Y0166120D01*
X0076183Y0166928D01*
X0075422Y0168765D01*
X0075154Y0169033D01*
X0085823Y0169033D01*
X0085309Y0168519D01*
X0084883Y0167490D01*
X0084883Y0166376D01*
X0085309Y0165347D01*
X0086097Y0164559D01*
X0087126Y0164133D01*
X0087796Y0164133D01*
X0092896Y0159033D01*
X0127212Y0159033D01*
X0126865Y0158574D02*
X0084625Y0158574D01*
X0086199Y0157175D02*
X0089238Y0157175D01*
X0087840Y0155777D02*
X0086483Y0155777D01*
X0090558Y0161371D02*
X0080932Y0161371D01*
X0079534Y0162769D02*
X0089160Y0162769D01*
X0087042Y0164168D02*
X0078135Y0164168D01*
X0076737Y0165566D02*
X0085218Y0165566D01*
X0084883Y0166965D02*
X0076168Y0166965D01*
X0075588Y0168363D02*
X0085245Y0168363D01*
X0089543Y0169033D02*
X0127212Y0169033D01*
X0126944Y0168765D01*
X0126183Y0166928D01*
X0126183Y0164938D01*
X0126944Y0163101D01*
X0127212Y0162833D01*
X0094470Y0162833D01*
X0090483Y0166820D01*
X0090483Y0167490D01*
X0090057Y0168519D01*
X0089543Y0169033D01*
X0090121Y0168363D02*
X0126778Y0168363D01*
X0126198Y0166965D02*
X0090483Y0166965D01*
X0091737Y0165566D02*
X0126183Y0165566D01*
X0126502Y0164168D02*
X0093135Y0164168D01*
X0091957Y0159972D02*
X0082331Y0159972D01*
X0077551Y0154378D02*
X0075951Y0154378D01*
X0076183Y0154938D02*
X0076183Y0155746D01*
X0080896Y0151033D01*
X0087883Y0151033D01*
X0087883Y0150376D01*
X0088309Y0149347D01*
X0088783Y0148873D01*
X0088783Y0146720D01*
X0084896Y0142833D01*
X0075154Y0142833D01*
X0075422Y0143101D01*
X0076183Y0144938D01*
X0076183Y0146928D01*
X0075604Y0148325D01*
X0077883Y0146046D01*
X0077883Y0145376D01*
X0078309Y0144347D01*
X0079097Y0143559D01*
X0080126Y0143133D01*
X0081240Y0143133D01*
X0082269Y0143559D01*
X0083057Y0144347D01*
X0083483Y0145376D01*
X0083483Y0146490D01*
X0083057Y0147519D01*
X0082269Y0148307D01*
X0081240Y0148733D01*
X0080570Y0148733D01*
X0075650Y0153653D01*
X0076183Y0154938D01*
X0076323Y0152980D02*
X0078949Y0152980D01*
X0077722Y0151581D02*
X0080348Y0151581D01*
X0079120Y0150183D02*
X0087963Y0150183D01*
X0088783Y0148784D02*
X0080519Y0148784D01*
X0083112Y0147386D02*
X0088783Y0147386D01*
X0088050Y0145987D02*
X0083483Y0145987D01*
X0083157Y0144589D02*
X0086652Y0144589D01*
X0085253Y0143190D02*
X0081378Y0143190D01*
X0079988Y0143190D02*
X0075459Y0143190D01*
X0076038Y0144589D02*
X0078209Y0144589D01*
X0077883Y0145987D02*
X0076183Y0145987D01*
X0075993Y0147386D02*
X0076543Y0147386D01*
X0077212Y0139033D02*
X0076944Y0138765D01*
X0076183Y0136928D01*
X0076183Y0134938D01*
X0075943Y0134360D01*
X0076762Y0133541D01*
X0076183Y0134938D01*
X0076183Y0136928D01*
X0075422Y0138765D01*
X0075154Y0139033D01*
X0077212Y0139033D01*
X0077174Y0138995D02*
X0075193Y0138995D01*
X0075906Y0137596D02*
X0076460Y0137596D01*
X0076183Y0136198D02*
X0076183Y0136198D01*
X0076125Y0134799D02*
X0076241Y0134799D01*
X0073463Y0131466D02*
X0074783Y0130146D01*
X0075896Y0129033D01*
X0077212Y0129033D01*
X0076944Y0128765D01*
X0076183Y0126928D01*
X0076183Y0124938D01*
X0076183Y0126928D01*
X0075422Y0128765D01*
X0074015Y0130172D01*
X0072178Y0130933D01*
X0073463Y0131466D01*
X0072973Y0130604D02*
X0074326Y0130604D01*
X0074982Y0129205D02*
X0075724Y0129205D01*
X0075819Y0127807D02*
X0076547Y0127807D01*
X0076183Y0126408D02*
X0076183Y0126408D01*
X0076183Y0125010D02*
X0076183Y0125010D01*
X0075633Y0123611D02*
X0076733Y0123611D01*
X0077833Y0122212D02*
X0074534Y0122212D01*
X0072465Y0120814D02*
X0079901Y0120814D01*
X0077594Y0119415D02*
X0074772Y0119415D01*
X0075732Y0118017D02*
X0076634Y0118017D01*
X0076183Y0116618D02*
X0076183Y0116618D01*
X0076183Y0115220D02*
X0076183Y0115220D01*
X0075720Y0113821D02*
X0076646Y0113821D01*
X0077622Y0112423D02*
X0074744Y0112423D01*
X0069968Y0111024D02*
X0036845Y0111024D01*
X0029712Y0109833D02*
X0027083Y0109833D01*
X0027083Y0116846D01*
X0028069Y0115860D01*
X0027683Y0114928D01*
X0027683Y0112938D01*
X0028444Y0111101D01*
X0029712Y0109833D01*
X0028521Y0111024D02*
X0027083Y0111024D01*
X0027083Y0112423D02*
X0027897Y0112423D01*
X0027683Y0113821D02*
X0027083Y0113821D01*
X0027083Y0115220D02*
X0027804Y0115220D01*
X0027311Y0116618D02*
X0027083Y0116618D01*
X0029888Y0119415D02*
X0030524Y0119415D01*
X0029851Y0119694D02*
X0031688Y0118933D01*
X0033678Y0118933D01*
X0031688Y0118933D01*
X0030756Y0118547D01*
X0029583Y0119720D01*
X0029583Y0119962D01*
X0029851Y0119694D01*
X0034842Y0119415D02*
X0057281Y0119415D01*
X0056883Y0120814D02*
X0036635Y0120814D01*
X0037382Y0122212D02*
X0057182Y0122212D01*
X0067083Y0128904D02*
X0067083Y0132962D01*
X0068351Y0131694D01*
X0070188Y0130933D01*
X0072178Y0130933D01*
X0070188Y0130933D01*
X0068351Y0130172D01*
X0067083Y0128904D01*
X0067083Y0129205D02*
X0067384Y0129205D01*
X0067083Y0130604D02*
X0069393Y0130604D01*
X0068043Y0132002D02*
X0067083Y0132002D01*
X0064583Y0160520D02*
X0064583Y0167133D01*
X0065240Y0167133D01*
X0066269Y0167559D01*
X0066569Y0167859D01*
X0066183Y0166928D01*
X0066183Y0164938D01*
X0066944Y0163101D01*
X0067212Y0162833D01*
X0066896Y0162833D01*
X0065783Y0161720D01*
X0064896Y0160833D01*
X0064583Y0160520D01*
X0064896Y0160833D02*
X0064896Y0160833D01*
X0064583Y0161371D02*
X0065434Y0161371D01*
X0065783Y0161720D02*
X0065783Y0161720D01*
X0066832Y0162769D02*
X0064583Y0162769D01*
X0064583Y0164168D02*
X0066502Y0164168D01*
X0066183Y0165566D02*
X0064583Y0165566D01*
X0064583Y0166965D02*
X0066198Y0166965D01*
X0066183Y0176120D02*
X0065583Y0176720D01*
X0065583Y0180346D01*
X0066896Y0179033D01*
X0067212Y0179033D01*
X0066944Y0178765D01*
X0066183Y0176928D01*
X0066183Y0176120D01*
X0066183Y0176754D02*
X0065583Y0176754D01*
X0065583Y0178153D02*
X0066691Y0178153D01*
X0066378Y0179551D02*
X0065583Y0179551D01*
X0067583Y0189404D02*
X0067583Y0192462D01*
X0068351Y0191694D01*
X0070188Y0190933D01*
X0072178Y0190933D01*
X0070188Y0190933D01*
X0068351Y0190172D01*
X0067583Y0189404D01*
X0067583Y0190740D02*
X0069721Y0190740D01*
X0067907Y0192138D02*
X0067583Y0192138D01*
X0072645Y0190740D02*
X0073303Y0190740D01*
X0074459Y0192138D02*
X0074701Y0192138D01*
X0076970Y0189033D02*
X0127212Y0189033D01*
X0126944Y0188765D01*
X0126183Y0186928D01*
X0126183Y0184938D01*
X0126944Y0183101D01*
X0127212Y0182833D01*
X0075154Y0182833D01*
X0075422Y0183101D01*
X0076183Y0184938D01*
X0076183Y0186928D01*
X0075797Y0187860D01*
X0076970Y0189033D01*
X0075880Y0187943D02*
X0126603Y0187943D01*
X0126183Y0186544D02*
X0076183Y0186544D01*
X0076183Y0185145D02*
X0126183Y0185145D01*
X0126677Y0183747D02*
X0075690Y0183747D01*
X0075154Y0179033D02*
X0127212Y0179033D01*
X0126944Y0178765D01*
X0126183Y0176928D01*
X0126183Y0174938D01*
X0126944Y0173101D01*
X0127212Y0172833D01*
X0075154Y0172833D01*
X0075422Y0173101D01*
X0076183Y0174938D01*
X0076183Y0176928D01*
X0075422Y0178765D01*
X0075154Y0179033D01*
X0075676Y0178153D02*
X0126691Y0178153D01*
X0126183Y0176754D02*
X0076183Y0176754D01*
X0076183Y0175356D02*
X0126183Y0175356D01*
X0126589Y0173957D02*
X0075777Y0173957D01*
X0092596Y0152980D02*
X0127065Y0152980D01*
X0141778Y0189341D02*
X0144783Y0189341D01*
X0144783Y0190740D02*
X0143177Y0190740D01*
X0144575Y0192138D02*
X0144783Y0192138D01*
X0128328Y0211717D02*
X0124038Y0211717D01*
X0125428Y0213116D02*
X0126938Y0213116D01*
X0126359Y0214514D02*
X0126007Y0214514D01*
X0126183Y0215913D02*
X0126183Y0215913D01*
X0126024Y0217311D02*
X0126342Y0217311D01*
X0126921Y0218710D02*
X0125445Y0218710D01*
X0124079Y0220108D02*
X0128287Y0220108D01*
X0129283Y0221507D02*
X0123358Y0221507D01*
X0124757Y0222905D02*
X0129968Y0222905D01*
X0131367Y0224304D02*
X0126155Y0224304D01*
X0127554Y0225702D02*
X0132765Y0225702D01*
X0134164Y0227101D02*
X0128952Y0227101D01*
X0130351Y0228499D02*
X0134783Y0228499D01*
X0131880Y0229898D02*
X0131749Y0229898D01*
X0118287Y0220108D02*
X0114083Y0220108D01*
X0115445Y0218710D02*
X0116921Y0218710D01*
X0116342Y0217311D02*
X0116024Y0217311D01*
X0116183Y0215913D02*
X0116183Y0215913D01*
X0116007Y0214514D02*
X0116359Y0214514D01*
X0116938Y0213116D02*
X0115428Y0213116D01*
X0114038Y0211717D02*
X0118328Y0211717D01*
X0098265Y0225702D02*
X0089601Y0225702D01*
X0090999Y0224304D02*
X0096867Y0224304D01*
X0095468Y0222905D02*
X0092398Y0222905D01*
X0093083Y0221507D02*
X0094283Y0221507D01*
X0094283Y0220108D02*
X0094079Y0220108D01*
X0089283Y0220558D02*
X0088351Y0220172D01*
X0086944Y0218765D01*
X0086183Y0216928D01*
X0086183Y0214938D01*
X0086183Y0216928D01*
X0085422Y0218765D01*
X0084015Y0220172D01*
X0083083Y0220558D01*
X0083083Y0222220D01*
X0081270Y0224033D01*
X0085896Y0224033D01*
X0089283Y0220646D01*
X0089283Y0220558D01*
X0088287Y0220108D02*
X0084079Y0220108D01*
X0083083Y0221507D02*
X0088422Y0221507D01*
X0087024Y0222905D02*
X0082398Y0222905D01*
X0085445Y0218710D02*
X0086921Y0218710D01*
X0086342Y0217311D02*
X0086024Y0217311D01*
X0086183Y0215913D02*
X0086183Y0215913D01*
X0086007Y0214514D02*
X0086359Y0214514D01*
X0086938Y0213116D02*
X0085428Y0213116D01*
X0084038Y0211717D02*
X0088328Y0211717D01*
X0094038Y0211717D02*
X0094283Y0211717D01*
X0099283Y0227101D02*
X0088202Y0227101D01*
X0090623Y0231296D02*
X0078003Y0231296D01*
X0078582Y0232695D02*
X0090383Y0232695D01*
X0090884Y0234093D02*
X0078683Y0234093D01*
X0078449Y0235492D02*
X0091283Y0235492D01*
X0091283Y0236890D02*
X0077797Y0236890D01*
X0076233Y0238289D02*
X0091283Y0238289D01*
X0089856Y0239687D02*
X0051583Y0239687D01*
X0051583Y0238289D02*
X0061133Y0238289D01*
X0059569Y0236890D02*
X0051583Y0236890D01*
X0051583Y0235492D02*
X0058917Y0235492D01*
X0058683Y0234093D02*
X0051583Y0234093D01*
X0051583Y0232695D02*
X0058784Y0232695D01*
X0059363Y0231296D02*
X0051583Y0231296D01*
X0051583Y0229898D02*
X0060647Y0229898D01*
X0061783Y0228499D02*
X0051583Y0228499D01*
X0051583Y0227101D02*
X0061783Y0227101D01*
X0062227Y0225702D02*
X0051583Y0225702D01*
X0051583Y0224304D02*
X0063625Y0224304D01*
X0065024Y0222905D02*
X0050342Y0222905D01*
X0062280Y0211717D02*
X0027083Y0211717D01*
X0027083Y0210319D02*
X0060882Y0210319D01*
X0060896Y0210333D02*
X0060896Y0210333D01*
X0063679Y0213116D02*
X0027083Y0213116D01*
X0027083Y0214514D02*
X0030285Y0214514D01*
X0028632Y0215913D02*
X0027083Y0215913D01*
X0027083Y0217311D02*
X0027943Y0217311D01*
X0027683Y0218710D02*
X0027083Y0218710D01*
X0027083Y0220108D02*
X0027758Y0220108D01*
X0028337Y0221507D02*
X0027083Y0221507D01*
X0027083Y0222905D02*
X0029584Y0222905D01*
X0051583Y0241086D02*
X0089856Y0241086D01*
X0089856Y0242484D02*
X0051583Y0242484D01*
X0051583Y0243883D02*
X0089856Y0243883D01*
X0089856Y0245281D02*
X0051583Y0245281D01*
X0051583Y0246680D02*
X0089856Y0246680D01*
X0089856Y0248079D02*
X0051583Y0248079D01*
X0051583Y0249477D02*
X0089856Y0249477D01*
X0089856Y0250876D02*
X0051583Y0250876D01*
X0066233Y0238289D02*
X0071133Y0238289D01*
X0069569Y0236890D02*
X0067797Y0236890D01*
X0068449Y0235492D02*
X0068917Y0235492D01*
X0068683Y0234093D02*
X0068683Y0234093D01*
X0068582Y0232695D02*
X0068784Y0232695D01*
X0069363Y0231296D02*
X0068003Y0231296D01*
X0066719Y0229898D02*
X0070647Y0229898D01*
X0071783Y0228499D02*
X0065583Y0228499D01*
X0066202Y0227101D02*
X0071828Y0227101D01*
X0075804Y0228499D02*
X0094246Y0228499D01*
X0091987Y0229898D02*
X0076719Y0229898D01*
X0099083Y0231456D02*
X0099283Y0230973D01*
X0099283Y0238657D01*
X0099083Y0238657D01*
X0099083Y0231456D01*
X0099149Y0231296D02*
X0099283Y0231296D01*
X0099283Y0232695D02*
X0099083Y0232695D01*
X0099083Y0234093D02*
X0099283Y0234093D01*
X0099283Y0235492D02*
X0099083Y0235492D01*
X0099083Y0236890D02*
X0099283Y0236890D01*
X0099283Y0238289D02*
X0099083Y0238289D01*
X0106583Y0238289D02*
X0110783Y0238289D01*
X0099283Y0228499D02*
X0099120Y0228499D01*
X0059783Y0206123D02*
X0053453Y0206123D01*
X0054386Y0204725D02*
X0059783Y0204725D01*
X0059783Y0203326D02*
X0054462Y0203326D01*
X0053637Y0201928D02*
X0059783Y0201928D01*
X0055486Y0276049D02*
X0091224Y0276049D01*
X0091224Y0277447D02*
X0056884Y0277447D01*
X0058283Y0278846D02*
X0091224Y0278846D01*
X0091104Y0283041D02*
X0035646Y0283041D01*
X0034901Y0284440D02*
X0092503Y0284440D01*
X0093901Y0285838D02*
X0036659Y0285838D01*
X0036973Y0281643D02*
X0055706Y0281643D01*
X0074453Y0297026D02*
X0079056Y0297026D01*
X0078983Y0298425D02*
X0075852Y0298425D01*
X0077250Y0299823D02*
X0078983Y0299823D01*
X0079214Y0301222D02*
X0078649Y0301222D01*
X0079635Y0295628D02*
X0028055Y0295628D01*
X0026656Y0294229D02*
X0080215Y0294229D01*
X0029720Y0283041D02*
X0029478Y0283041D01*
X0025283Y0106146D02*
X0025396Y0106033D01*
X0027479Y0106033D01*
X0025308Y0103861D01*
X0025283Y0103802D01*
X0025283Y0106146D01*
X0025283Y0105430D02*
X0026877Y0105430D01*
X0025478Y0104032D02*
X0025283Y0104032D01*
X0025283Y0092844D02*
X0026469Y0092844D01*
X0025283Y0091445D02*
X0028026Y0091445D01*
X0025283Y0090047D02*
X0068226Y0090047D01*
X0066896Y0088648D02*
X0025283Y0088648D01*
X0025283Y0087250D02*
X0066316Y0087250D01*
X0066183Y0085851D02*
X0025283Y0085851D01*
X0025840Y0084453D02*
X0066384Y0084453D01*
X0066991Y0083054D02*
X0027239Y0083054D01*
X0028637Y0081656D02*
X0068444Y0081656D01*
X0077883Y0091445D02*
X0037340Y0091445D01*
X0084483Y0088648D02*
X0140383Y0088648D01*
X0140383Y0087250D02*
X0084483Y0087250D01*
X0084483Y0085851D02*
X0140383Y0085851D01*
X0140383Y0084453D02*
X0084830Y0084453D01*
X0086229Y0083054D02*
X0139137Y0083054D01*
X0137739Y0081656D02*
X0087627Y0081656D01*
X0223799Y0243883D02*
X0226783Y0243883D01*
X0226783Y0245281D02*
X0226103Y0245281D01*
X0226203Y0242484D02*
X0226783Y0242484D01*
X0226783Y0252274D02*
X0226413Y0252274D01*
X0226783Y0253673D02*
X0224307Y0253673D01*
X0225892Y0255071D02*
X0226783Y0255071D01*
D30*
X0222683Y0218933D02*
X0218683Y0218933D01*
X0215683Y0215933D01*
X0215683Y0130933D01*
X0219683Y0126933D01*
X0219683Y0101933D01*
X0214683Y0096933D01*
X0197683Y0096933D01*
X0192683Y0119933D02*
X0199683Y0126933D01*
X0192683Y0119933D02*
X0173722Y0119933D01*
X0153644Y0119933D02*
X0143683Y0109972D01*
X0143683Y0082933D01*
X0138683Y0077933D01*
X0086683Y0077933D01*
X0081183Y0083433D01*
X0081183Y0095933D01*
X0132494Y0245173D02*
X0132494Y0262299D01*
X0124620Y0262299D01*
X0132494Y0262299D02*
X0132494Y0274744D01*
X0142983Y0285233D01*
X0146483Y0285233D01*
X0146683Y0285433D01*
X0165683Y0283933D02*
X0165683Y0292933D01*
X0165683Y0283933D02*
X0171683Y0277933D01*
X0171683Y0268933D01*
D31*
X0148583Y0296933D02*
X0145683Y0296933D01*
X0145083Y0296933D02*
X0145083Y0299933D01*
X0146683Y0299933D01*
X0148583Y0299933D02*
X0148583Y0297933D01*
X0180030Y0151933D02*
X0185683Y0151933D01*
D32*
X0196183Y0150106D02*
X0196183Y0145433D01*
X0197683Y0143933D01*
X0203683Y0143933D01*
X0205683Y0145933D01*
X0205683Y0147933D01*
X0207030Y0149280D01*
X0209683Y0149280D01*
X0209683Y0155587D01*
D33*
X0148783Y0283933D02*
X0144883Y0283933D01*
X0144883Y0285433D01*
X0146683Y0285433D01*
X0148783Y0285433D01*
X0148783Y0286933D01*
X0144883Y0286933D01*
X0144883Y0285433D01*
X0148783Y0285433D02*
X0148783Y0283933D01*
X0148583Y0296933D02*
X0148583Y0297933D01*
X0145683Y0297933D01*
X0144943Y0297051D02*
X0144843Y0299693D01*
X0145083Y0299933D01*
X0146683Y0299933D02*
X0148583Y0299933D01*
M02*
