G75*
%MOIN*%
%OFA0B0*%
%FSLAX25Y25*%
%IPPOS*%
%LPD*%
%AMOC8*
5,1,8,0,0,1.08239X$1,22.5*
%
%ADD10C,0.00800*%
%ADD11C,0.00500*%
%ADD12C,0.01100*%
%ADD13C,0.00000*%
D10*
X0032683Y0073933D02*
X0222683Y0073933D01*
X0232683Y0083933D01*
X0232683Y0298933D01*
X0222683Y0298933D01*
X0212683Y0308933D01*
X0082683Y0308933D01*
X0072683Y0298933D01*
X0027683Y0298933D01*
X0022683Y0293933D01*
X0022683Y0083933D01*
X0032683Y0073933D01*
X0166838Y0080836D02*
X0169640Y0078034D01*
X0169640Y0077333D01*
X0171441Y0077333D02*
X0174244Y0077333D01*
X0172843Y0077333D02*
X0172843Y0081537D01*
X0174244Y0080135D01*
X0176045Y0080836D02*
X0178848Y0078034D01*
X0178147Y0077333D01*
X0176746Y0077333D01*
X0176045Y0078034D01*
X0176045Y0080836D01*
X0176746Y0081537D01*
X0178147Y0081537D01*
X0178848Y0080836D01*
X0178848Y0078034D01*
X0180649Y0077333D02*
X0183452Y0077333D01*
X0180649Y0080135D01*
X0180649Y0080836D01*
X0181350Y0081537D01*
X0182751Y0081537D01*
X0183452Y0080836D01*
X0185253Y0081537D02*
X0188056Y0077333D01*
X0189857Y0077333D02*
X0192660Y0077333D01*
X0189857Y0080135D01*
X0189857Y0080836D01*
X0190558Y0081537D01*
X0191959Y0081537D01*
X0192660Y0080836D01*
X0195862Y0081537D02*
X0195862Y0077333D01*
X0197263Y0077333D02*
X0194461Y0077333D01*
X0197263Y0080135D02*
X0195862Y0081537D01*
X0199065Y0079435D02*
X0201867Y0079435D01*
X0203669Y0080836D02*
X0204370Y0081537D01*
X0205771Y0081537D01*
X0206471Y0080836D01*
X0206471Y0078034D01*
X0205771Y0077333D01*
X0204370Y0077333D01*
X0203669Y0078034D01*
X0208273Y0080135D02*
X0209674Y0077333D01*
X0211075Y0080135D01*
X0212877Y0079435D02*
X0212877Y0078734D01*
X0215679Y0078734D01*
X0215679Y0078034D02*
X0215679Y0079435D01*
X0214979Y0080135D01*
X0213577Y0080135D01*
X0212877Y0079435D01*
X0213577Y0077333D02*
X0214979Y0077333D01*
X0215679Y0078034D01*
X0217481Y0077333D02*
X0218882Y0078734D01*
X0218181Y0078734D02*
X0220283Y0078734D01*
X0220283Y0077333D02*
X0220283Y0081537D01*
X0218181Y0081537D01*
X0217481Y0080836D01*
X0217481Y0079435D01*
X0218181Y0078734D01*
X0218882Y0085333D02*
X0218181Y0086034D01*
X0218181Y0089537D01*
X0217481Y0089537D02*
X0218882Y0089537D01*
X0220283Y0086034D02*
X0219582Y0085333D01*
X0218882Y0085333D01*
X0215679Y0086034D02*
X0214979Y0085333D01*
X0212877Y0085333D01*
X0212877Y0088135D01*
X0210375Y0088135D02*
X0208973Y0088135D01*
X0208273Y0087435D01*
X0208273Y0085333D01*
X0210375Y0085333D01*
X0211075Y0086034D01*
X0210375Y0086734D01*
X0208273Y0086734D01*
X0206471Y0085333D02*
X0206471Y0088135D01*
X0204370Y0088135D01*
X0203669Y0087435D01*
X0203669Y0085333D01*
X0197263Y0086034D02*
X0196563Y0085333D01*
X0195162Y0085333D01*
X0194461Y0086034D01*
X0192660Y0085333D02*
X0192660Y0089537D01*
X0191959Y0088135D02*
X0190558Y0088135D01*
X0189857Y0087435D01*
X0189857Y0085333D01*
X0188056Y0086034D02*
X0188056Y0087435D01*
X0187355Y0088135D01*
X0185954Y0088135D01*
X0185253Y0087435D01*
X0185253Y0086034D01*
X0185954Y0085333D01*
X0187355Y0085333D01*
X0188056Y0086034D01*
X0183452Y0085333D02*
X0183452Y0088135D01*
X0181350Y0088135D01*
X0180649Y0087435D01*
X0180649Y0085333D01*
X0178848Y0086034D02*
X0178848Y0087435D01*
X0178147Y0088135D01*
X0176045Y0088135D01*
X0176045Y0084632D01*
X0176746Y0083932D01*
X0177447Y0083932D01*
X0178147Y0085333D02*
X0176045Y0085333D01*
X0178147Y0085333D02*
X0178848Y0086034D01*
X0169640Y0081537D02*
X0166838Y0081537D01*
X0166838Y0080836D01*
X0191959Y0088135D02*
X0192660Y0087435D01*
X0194461Y0088836D02*
X0195162Y0089537D01*
X0196563Y0089537D01*
X0197263Y0088836D01*
X0197263Y0086034D01*
X0215679Y0086034D02*
X0215679Y0088135D01*
D11*
X0136183Y0080933D02*
X0066183Y0080933D01*
X0066183Y0220933D01*
X0136183Y0220933D01*
X0136183Y0080933D01*
X0125935Y0082794D02*
X0125485Y0082344D01*
X0123683Y0082344D01*
X0123233Y0082794D01*
X0123233Y0083695D01*
X0123683Y0084145D01*
X0124584Y0084145D01*
X0124584Y0083244D01*
X0125485Y0084145D02*
X0125935Y0083695D01*
X0125935Y0082794D01*
X0125935Y0085290D02*
X0123233Y0085290D01*
X0123233Y0087092D02*
X0125935Y0087092D01*
X0125935Y0088237D02*
X0125935Y0089588D01*
X0125485Y0090038D01*
X0123683Y0090038D01*
X0123233Y0089588D01*
X0123233Y0088237D01*
X0125935Y0088237D01*
X0123233Y0087092D02*
X0125935Y0085290D01*
X0125485Y0094487D02*
X0123683Y0094487D01*
X0125485Y0096288D01*
X0123683Y0096288D01*
X0123233Y0095838D01*
X0123233Y0094937D01*
X0123683Y0094487D01*
X0125485Y0094487D02*
X0125935Y0094937D01*
X0125935Y0095838D01*
X0125485Y0096288D01*
X0125035Y0104487D02*
X0125935Y0105387D01*
X0123233Y0105387D01*
X0123233Y0104487D02*
X0123233Y0106288D01*
X0123233Y0114487D02*
X0125035Y0116288D01*
X0125485Y0116288D01*
X0125935Y0115838D01*
X0125935Y0114937D01*
X0125485Y0114487D01*
X0123233Y0114487D02*
X0123233Y0116288D01*
X0123683Y0124487D02*
X0123233Y0124937D01*
X0123233Y0125838D01*
X0123683Y0126288D01*
X0124134Y0126288D01*
X0124584Y0125838D01*
X0124584Y0125387D01*
X0124584Y0125838D02*
X0125035Y0126288D01*
X0125485Y0126288D01*
X0125935Y0125838D01*
X0125935Y0124937D01*
X0125485Y0124487D01*
X0124584Y0134487D02*
X0124584Y0136288D01*
X0123233Y0135838D02*
X0125935Y0135838D01*
X0124584Y0134487D01*
X0124584Y0144487D02*
X0125035Y0145387D01*
X0125035Y0145838D01*
X0124584Y0146288D01*
X0123683Y0146288D01*
X0123233Y0145838D01*
X0123233Y0144937D01*
X0123683Y0144487D01*
X0124584Y0144487D02*
X0125935Y0144487D01*
X0125935Y0146288D01*
X0124584Y0154487D02*
X0123683Y0154487D01*
X0123233Y0154937D01*
X0123233Y0155838D01*
X0123683Y0156288D01*
X0124134Y0156288D01*
X0124584Y0155838D01*
X0124584Y0154487D01*
X0125485Y0155387D01*
X0125935Y0156288D01*
X0125935Y0165737D02*
X0125935Y0167538D01*
X0125485Y0167538D01*
X0123683Y0165737D01*
X0123233Y0165737D01*
X0123683Y0174487D02*
X0124134Y0174487D01*
X0124584Y0174937D01*
X0124584Y0175838D01*
X0124134Y0176288D01*
X0123683Y0176288D01*
X0123233Y0175838D01*
X0123233Y0174937D01*
X0123683Y0174487D01*
X0124584Y0174937D02*
X0125035Y0174487D01*
X0125485Y0174487D01*
X0125935Y0174937D01*
X0125935Y0175838D01*
X0125485Y0176288D01*
X0125035Y0176288D01*
X0124584Y0175838D01*
X0125035Y0184487D02*
X0124584Y0184937D01*
X0124584Y0186288D01*
X0123683Y0186288D02*
X0125485Y0186288D01*
X0125935Y0185838D01*
X0125935Y0184937D01*
X0125485Y0184487D01*
X0125035Y0184487D01*
X0123683Y0184487D02*
X0123233Y0184937D01*
X0123233Y0185838D01*
X0123683Y0186288D01*
X0123233Y0192790D02*
X0123233Y0194592D01*
X0123233Y0193691D02*
X0125935Y0193691D01*
X0125035Y0192790D01*
X0125485Y0195737D02*
X0123683Y0195737D01*
X0125485Y0197538D01*
X0123683Y0197538D01*
X0123233Y0197088D01*
X0123233Y0196187D01*
X0123683Y0195737D01*
X0125485Y0195737D02*
X0125935Y0196187D01*
X0125935Y0197088D01*
X0125485Y0197538D01*
X0122185Y0198147D02*
X0120384Y0198147D01*
X0119483Y0199048D01*
X0120384Y0199949D01*
X0122185Y0199949D01*
X0122185Y0201094D02*
X0122185Y0202445D01*
X0121735Y0202895D01*
X0121285Y0202895D01*
X0120834Y0202445D01*
X0120834Y0201094D01*
X0120834Y0202445D02*
X0120384Y0202895D01*
X0119933Y0202895D01*
X0119483Y0202445D01*
X0119483Y0201094D01*
X0122185Y0201094D01*
X0123233Y0202790D02*
X0123233Y0204592D01*
X0123233Y0203691D02*
X0125935Y0203691D01*
X0125035Y0202790D01*
X0125035Y0205737D02*
X0125935Y0206637D01*
X0123233Y0206637D01*
X0123233Y0205737D02*
X0123233Y0207538D01*
X0122185Y0207887D02*
X0119483Y0207887D01*
X0119483Y0205842D02*
X0121285Y0205842D01*
X0122185Y0204941D01*
X0121285Y0204040D01*
X0119483Y0204040D01*
X0120834Y0204040D02*
X0120834Y0205842D01*
X0122185Y0206987D02*
X0122185Y0208788D01*
X0112185Y0208788D02*
X0110384Y0208788D01*
X0109483Y0207887D01*
X0110384Y0206987D01*
X0112185Y0206987D01*
X0111735Y0205842D02*
X0111285Y0205842D01*
X0110834Y0205391D01*
X0110384Y0205842D01*
X0109933Y0205842D01*
X0109483Y0205391D01*
X0109483Y0204490D01*
X0109933Y0204040D01*
X0109933Y0203017D02*
X0109483Y0203017D01*
X0109483Y0202567D01*
X0109933Y0202567D01*
X0109933Y0203017D01*
X0109933Y0201422D02*
X0109483Y0200971D01*
X0109483Y0200071D01*
X0109933Y0199620D01*
X0110834Y0200521D02*
X0110834Y0200971D01*
X0110384Y0201422D01*
X0109933Y0201422D01*
X0110834Y0200971D02*
X0111285Y0201422D01*
X0111735Y0201422D01*
X0112185Y0200971D01*
X0112185Y0200071D01*
X0111735Y0199620D01*
X0111735Y0204040D02*
X0112185Y0204490D01*
X0112185Y0205391D01*
X0111735Y0205842D01*
X0110834Y0205391D02*
X0110834Y0204941D01*
X0102185Y0205842D02*
X0099483Y0205842D01*
X0102185Y0204040D01*
X0099483Y0204040D01*
X0099933Y0202895D02*
X0099483Y0202445D01*
X0099483Y0201544D01*
X0099933Y0201094D01*
X0101735Y0201094D01*
X0102185Y0201544D01*
X0102185Y0202445D01*
X0101735Y0202895D01*
X0100834Y0202895D02*
X0100834Y0201994D01*
X0100834Y0202895D02*
X0099933Y0202895D01*
X0099483Y0206987D02*
X0099483Y0208338D01*
X0099933Y0208788D01*
X0101735Y0208788D01*
X0102185Y0208338D01*
X0102185Y0206987D01*
X0099483Y0206987D01*
X0093435Y0207437D02*
X0092985Y0206987D01*
X0091183Y0206987D01*
X0090733Y0207437D01*
X0090733Y0208338D01*
X0091183Y0208788D01*
X0092084Y0208788D01*
X0092084Y0207887D01*
X0092985Y0208788D02*
X0093435Y0208338D01*
X0093435Y0207437D01*
X0092985Y0205842D02*
X0093435Y0205391D01*
X0093435Y0204490D01*
X0092985Y0204040D01*
X0091183Y0204040D01*
X0090733Y0204490D01*
X0090733Y0205391D01*
X0091183Y0205842D01*
X0092985Y0205842D01*
X0092985Y0202895D02*
X0092084Y0202895D01*
X0091634Y0202445D01*
X0091634Y0201094D01*
X0091634Y0201994D02*
X0090733Y0202895D01*
X0090733Y0201094D02*
X0093435Y0201094D01*
X0093435Y0202445D01*
X0092985Y0202895D01*
X0092985Y0199949D02*
X0092084Y0199949D01*
X0091634Y0199498D01*
X0091634Y0198147D01*
X0090733Y0198147D02*
X0093435Y0198147D01*
X0093435Y0199498D01*
X0092985Y0199949D01*
X0083435Y0201994D02*
X0082535Y0202895D01*
X0080733Y0202895D01*
X0080733Y0204040D02*
X0080733Y0205842D01*
X0080733Y0204941D02*
X0083435Y0204941D01*
X0082535Y0204040D01*
X0082084Y0202895D02*
X0082084Y0201094D01*
X0082535Y0201094D02*
X0083435Y0201994D01*
X0082535Y0201094D02*
X0080733Y0201094D01*
X0078785Y0203683D02*
X0079685Y0204584D01*
X0078785Y0205485D01*
X0076983Y0205485D01*
X0077433Y0206630D02*
X0079235Y0208431D01*
X0077433Y0208431D01*
X0076983Y0207981D01*
X0076983Y0207080D01*
X0077433Y0206630D01*
X0079235Y0206630D01*
X0079685Y0207080D01*
X0079685Y0207981D01*
X0079235Y0208431D01*
X0080733Y0208338D02*
X0083435Y0208338D01*
X0082084Y0206987D01*
X0082084Y0208788D01*
X0078334Y0205485D02*
X0078334Y0203683D01*
X0078785Y0203683D02*
X0076983Y0203683D01*
X0076983Y0198431D02*
X0076983Y0196630D01*
X0076983Y0197530D02*
X0079685Y0197530D01*
X0078785Y0196630D01*
X0078785Y0195485D02*
X0076983Y0195485D01*
X0078334Y0195485D02*
X0078334Y0193683D01*
X0078785Y0193683D02*
X0079685Y0194584D01*
X0078785Y0195485D01*
X0078785Y0193683D02*
X0076983Y0193683D01*
X0076983Y0188431D02*
X0076983Y0186630D01*
X0078785Y0188431D01*
X0079235Y0188431D01*
X0079685Y0187981D01*
X0079685Y0187080D01*
X0079235Y0186630D01*
X0078785Y0185485D02*
X0076983Y0185485D01*
X0078334Y0185485D02*
X0078334Y0183683D01*
X0078785Y0183683D02*
X0079685Y0184584D01*
X0078785Y0185485D01*
X0078785Y0183683D02*
X0076983Y0183683D01*
X0077433Y0178431D02*
X0076983Y0177981D01*
X0076983Y0177080D01*
X0077433Y0176630D01*
X0076983Y0175485D02*
X0078785Y0175485D01*
X0079685Y0174584D01*
X0078785Y0173683D01*
X0076983Y0173683D01*
X0078334Y0173683D02*
X0078334Y0175485D01*
X0079235Y0176630D02*
X0079685Y0177080D01*
X0079685Y0177981D01*
X0079235Y0178431D01*
X0078785Y0178431D01*
X0078334Y0177981D01*
X0077884Y0178431D01*
X0077433Y0178431D01*
X0078334Y0177981D02*
X0078334Y0177530D01*
X0078334Y0168431D02*
X0078334Y0166630D01*
X0079685Y0167981D01*
X0076983Y0167981D01*
X0076983Y0165485D02*
X0078785Y0165485D01*
X0079685Y0164584D01*
X0078785Y0163683D01*
X0076983Y0163683D01*
X0078334Y0163683D02*
X0078334Y0165485D01*
X0078334Y0158431D02*
X0077433Y0158431D01*
X0076983Y0157981D01*
X0076983Y0157080D01*
X0077433Y0156630D01*
X0078334Y0156630D02*
X0078785Y0157530D01*
X0078785Y0157981D01*
X0078334Y0158431D01*
X0079685Y0158431D02*
X0079685Y0156630D01*
X0078334Y0156630D01*
X0078334Y0155485D02*
X0078334Y0153683D01*
X0078785Y0153683D02*
X0079685Y0154584D01*
X0078785Y0155485D01*
X0076983Y0155485D01*
X0076983Y0153683D02*
X0078785Y0153683D01*
X0079685Y0148431D02*
X0079235Y0147530D01*
X0078334Y0146630D01*
X0078334Y0147981D01*
X0077884Y0148431D01*
X0077433Y0148431D01*
X0076983Y0147981D01*
X0076983Y0147080D01*
X0077433Y0146630D01*
X0078334Y0146630D01*
X0078334Y0145485D02*
X0078334Y0143683D01*
X0078785Y0143683D02*
X0079685Y0144584D01*
X0078785Y0145485D01*
X0076983Y0145485D01*
X0076983Y0143683D02*
X0078785Y0143683D01*
X0086983Y0140128D02*
X0086983Y0138326D01*
X0086983Y0139227D02*
X0089685Y0139227D01*
X0088785Y0138326D01*
X0086983Y0137181D02*
X0086983Y0135380D01*
X0086983Y0136280D02*
X0089685Y0136280D01*
X0088785Y0135380D01*
X0088785Y0134235D02*
X0086983Y0134235D01*
X0088334Y0134235D02*
X0088334Y0132433D01*
X0088785Y0132433D02*
X0086983Y0132433D01*
X0088785Y0132433D02*
X0089685Y0133334D01*
X0088785Y0134235D01*
X0089235Y0128878D02*
X0087433Y0128878D01*
X0086983Y0128427D01*
X0086983Y0127526D01*
X0087433Y0127076D01*
X0089235Y0128878D01*
X0089685Y0128427D01*
X0089685Y0127526D01*
X0089235Y0127076D01*
X0087433Y0127076D01*
X0086983Y0125931D02*
X0086983Y0124130D01*
X0086983Y0125030D02*
X0089685Y0125030D01*
X0088785Y0124130D01*
X0088785Y0122985D02*
X0086983Y0122985D01*
X0088334Y0122985D02*
X0088334Y0121183D01*
X0088785Y0121183D02*
X0086983Y0121183D01*
X0088785Y0121183D02*
X0089685Y0122084D01*
X0088785Y0122985D01*
X0089685Y0119324D02*
X0089685Y0117523D01*
X0086983Y0117523D01*
X0086983Y0116378D02*
X0086983Y0114576D01*
X0089685Y0114576D01*
X0089685Y0116378D01*
X0088334Y0115477D02*
X0088334Y0114576D01*
X0088334Y0113431D02*
X0087884Y0112981D01*
X0087884Y0111630D01*
X0087884Y0112530D02*
X0086983Y0113431D01*
X0088334Y0113431D02*
X0089235Y0113431D01*
X0089685Y0112981D01*
X0089685Y0111630D01*
X0086983Y0111630D01*
X0086983Y0110485D02*
X0088785Y0110485D01*
X0089685Y0109584D01*
X0088785Y0108683D01*
X0086983Y0108683D01*
X0088334Y0108683D02*
X0088334Y0110485D01*
X0088334Y0117523D02*
X0088334Y0118423D01*
X0079685Y0109145D02*
X0076983Y0109145D01*
X0079685Y0107344D01*
X0076983Y0107344D01*
X0076983Y0106280D02*
X0076983Y0105380D01*
X0076983Y0105830D02*
X0079685Y0105830D01*
X0079685Y0105380D02*
X0079685Y0106280D01*
X0079685Y0104235D02*
X0077884Y0104235D01*
X0076983Y0103334D01*
X0077884Y0102433D01*
X0079685Y0102433D01*
X0086983Y0101374D02*
X0086983Y0100023D01*
X0089685Y0100023D01*
X0089685Y0101374D01*
X0089235Y0101824D01*
X0088785Y0101824D01*
X0088334Y0101374D01*
X0088334Y0100023D01*
X0087884Y0098878D02*
X0087433Y0098878D01*
X0086983Y0098427D01*
X0086983Y0097526D01*
X0087433Y0097076D01*
X0088334Y0097526D02*
X0088334Y0098427D01*
X0087884Y0098878D01*
X0089235Y0098878D02*
X0089685Y0098427D01*
X0089685Y0097526D01*
X0089235Y0097076D01*
X0088785Y0097076D01*
X0088334Y0097526D01*
X0087433Y0095931D02*
X0089685Y0095931D01*
X0089685Y0094130D02*
X0087433Y0094130D01*
X0086983Y0094580D01*
X0086983Y0095481D01*
X0087433Y0095931D01*
X0087884Y0092985D02*
X0089685Y0092985D01*
X0087884Y0092985D02*
X0086983Y0092084D01*
X0087884Y0091183D01*
X0089685Y0091183D01*
X0088334Y0101374D02*
X0087884Y0101824D01*
X0087433Y0101824D01*
X0086983Y0101374D01*
X0079685Y0089145D02*
X0076983Y0089145D01*
X0079685Y0087344D01*
X0076983Y0087344D01*
X0076983Y0086280D02*
X0076983Y0085380D01*
X0076983Y0085830D02*
X0079685Y0085830D01*
X0079685Y0085380D02*
X0079685Y0086280D01*
X0079685Y0084235D02*
X0077884Y0084235D01*
X0076983Y0083334D01*
X0077884Y0082433D01*
X0079685Y0082433D01*
X0064685Y0090298D02*
X0063785Y0089397D01*
X0061983Y0089397D01*
X0063334Y0089397D02*
X0063334Y0091199D01*
X0063785Y0091199D02*
X0061983Y0091199D01*
X0062433Y0092344D02*
X0061983Y0092794D01*
X0061983Y0093695D01*
X0062433Y0094145D01*
X0063334Y0094145D01*
X0063334Y0093244D01*
X0064235Y0092344D02*
X0062433Y0092344D01*
X0063785Y0091199D02*
X0064685Y0090298D01*
X0064235Y0092344D02*
X0064685Y0092794D01*
X0064685Y0093695D01*
X0064235Y0094145D01*
X0064685Y0095290D02*
X0061983Y0097092D01*
X0064685Y0097092D01*
X0064685Y0098237D02*
X0064685Y0099588D01*
X0064235Y0100038D01*
X0062433Y0100038D01*
X0061983Y0099588D01*
X0061983Y0098237D01*
X0064685Y0098237D01*
X0064685Y0095290D02*
X0061983Y0095290D01*
X0062433Y0104040D02*
X0061983Y0104490D01*
X0061983Y0105391D01*
X0062433Y0105842D01*
X0062884Y0105842D01*
X0063334Y0105391D01*
X0063334Y0104941D01*
X0063334Y0105391D02*
X0063785Y0105842D01*
X0064235Y0105842D01*
X0064685Y0105391D01*
X0064685Y0104490D01*
X0064235Y0104040D01*
X0064685Y0106987D02*
X0062884Y0106987D01*
X0061983Y0107887D01*
X0062884Y0108788D01*
X0064685Y0108788D01*
X0063785Y0114040D02*
X0061983Y0114040D01*
X0063334Y0114040D02*
X0063334Y0115842D01*
X0063785Y0115842D02*
X0061983Y0115842D01*
X0062433Y0116987D02*
X0061983Y0117437D01*
X0061983Y0118338D01*
X0062433Y0118788D01*
X0064235Y0118788D01*
X0064685Y0118338D01*
X0064685Y0117437D01*
X0064235Y0116987D01*
X0063785Y0116987D01*
X0063334Y0117437D01*
X0063334Y0118788D01*
X0063785Y0115842D02*
X0064685Y0114941D01*
X0063785Y0114040D01*
X0063785Y0124040D02*
X0061983Y0124040D01*
X0063334Y0124040D02*
X0063334Y0125842D01*
X0063785Y0125842D02*
X0061983Y0125842D01*
X0062433Y0126987D02*
X0062884Y0126987D01*
X0063334Y0127437D01*
X0063334Y0128338D01*
X0062884Y0128788D01*
X0062433Y0128788D01*
X0061983Y0128338D01*
X0061983Y0127437D01*
X0062433Y0126987D01*
X0063334Y0127437D02*
X0063785Y0126987D01*
X0064235Y0126987D01*
X0064685Y0127437D01*
X0064685Y0128338D01*
X0064235Y0128788D01*
X0063785Y0128788D01*
X0063334Y0128338D01*
X0063785Y0125842D02*
X0064685Y0124941D01*
X0063785Y0124040D01*
X0063785Y0134040D02*
X0061983Y0134040D01*
X0063334Y0134040D02*
X0063334Y0135842D01*
X0063785Y0135842D02*
X0061983Y0135842D01*
X0061983Y0136987D02*
X0062433Y0136987D01*
X0064235Y0138788D01*
X0064685Y0138788D01*
X0064685Y0136987D01*
X0063785Y0135842D02*
X0064685Y0134941D01*
X0063785Y0134040D01*
X0063785Y0212790D02*
X0064685Y0213691D01*
X0061983Y0213691D01*
X0061983Y0212790D02*
X0061983Y0214592D01*
X0062433Y0215737D02*
X0061983Y0216187D01*
X0061983Y0217088D01*
X0062433Y0217538D01*
X0062884Y0217538D01*
X0063334Y0217088D01*
X0063334Y0216637D01*
X0063334Y0217088D02*
X0063785Y0217538D01*
X0064235Y0217538D01*
X0064685Y0217088D01*
X0064685Y0216187D01*
X0064235Y0215737D01*
X0064034Y0241183D02*
X0064034Y0242985D01*
X0064485Y0242985D02*
X0062683Y0242985D01*
X0062683Y0244130D02*
X0062683Y0245931D01*
X0062683Y0245030D02*
X0065385Y0245030D01*
X0064485Y0244130D01*
X0064485Y0242985D02*
X0065385Y0242084D01*
X0064485Y0241183D01*
X0062683Y0241183D01*
X0064034Y0247076D02*
X0064034Y0248878D01*
X0062683Y0248427D02*
X0065385Y0248427D01*
X0064034Y0247076D01*
X0072683Y0247526D02*
X0072683Y0248427D01*
X0073133Y0248878D01*
X0074935Y0248878D01*
X0075385Y0248427D01*
X0075385Y0247526D01*
X0074935Y0247076D01*
X0073133Y0247076D01*
X0072683Y0247526D01*
X0072683Y0245931D02*
X0073584Y0245030D01*
X0073584Y0245481D02*
X0073584Y0244130D01*
X0072683Y0244130D02*
X0075385Y0244130D01*
X0075385Y0245481D01*
X0074935Y0245931D01*
X0074034Y0245931D01*
X0073584Y0245481D01*
X0074034Y0242985D02*
X0073584Y0242534D01*
X0073584Y0241183D01*
X0072683Y0241183D02*
X0075385Y0241183D01*
X0075385Y0242534D01*
X0074935Y0242985D01*
X0074034Y0242985D01*
X0073133Y0250023D02*
X0072683Y0250473D01*
X0072683Y0251374D01*
X0073133Y0251824D01*
X0074034Y0251824D01*
X0074034Y0250923D01*
X0074935Y0250023D02*
X0073133Y0250023D01*
X0074935Y0250023D02*
X0075385Y0250473D01*
X0075385Y0251374D01*
X0074935Y0251824D01*
X0137683Y0218431D02*
X0137683Y0216630D01*
X0139485Y0218431D01*
X0139935Y0218431D01*
X0140385Y0217981D01*
X0140385Y0217080D01*
X0139935Y0216630D01*
X0140385Y0214584D02*
X0137683Y0214584D01*
X0137683Y0213683D02*
X0137683Y0215485D01*
X0139485Y0213683D02*
X0140385Y0214584D01*
X0183933Y0208338D02*
X0183933Y0207437D01*
X0184383Y0206987D01*
X0186185Y0206987D01*
X0186635Y0207437D01*
X0186635Y0208338D01*
X0186185Y0208788D01*
X0184383Y0208788D02*
X0183933Y0208338D01*
X0186635Y0205842D02*
X0186635Y0204040D01*
X0186635Y0204941D02*
X0183933Y0204941D01*
X0183933Y0202895D02*
X0184834Y0201994D01*
X0184834Y0202445D02*
X0184834Y0201094D01*
X0183933Y0201094D02*
X0186635Y0201094D01*
X0186635Y0202445D01*
X0186185Y0202895D01*
X0185284Y0202895D01*
X0184834Y0202445D01*
X0193683Y0202695D02*
X0193683Y0201794D01*
X0194133Y0201344D01*
X0195935Y0201344D01*
X0196385Y0201794D01*
X0196385Y0202695D01*
X0195935Y0203145D01*
X0195034Y0203145D02*
X0195034Y0202244D01*
X0195034Y0203145D02*
X0194133Y0203145D01*
X0193683Y0202695D01*
X0193683Y0204290D02*
X0196385Y0204290D01*
X0193683Y0206092D01*
X0196385Y0206092D01*
X0196385Y0207237D02*
X0196385Y0208588D01*
X0195935Y0209038D01*
X0194133Y0209038D01*
X0193683Y0208588D01*
X0193683Y0207237D01*
X0196385Y0207237D01*
D12*
X0196623Y0279483D02*
X0195639Y0279483D01*
X0195639Y0280467D01*
X0196623Y0280467D01*
X0196623Y0279483D01*
X0199132Y0280467D02*
X0200116Y0279483D01*
X0202084Y0279483D01*
X0203068Y0280467D01*
X0201100Y0282436D02*
X0200116Y0282436D01*
X0199132Y0281451D01*
X0199132Y0280467D01*
X0200116Y0282436D02*
X0199132Y0283420D01*
X0199132Y0284404D01*
X0200116Y0285388D01*
X0202084Y0285388D01*
X0203068Y0284404D01*
X0193400Y0284404D02*
X0192416Y0285388D01*
X0190448Y0285388D01*
X0189463Y0284404D01*
X0189463Y0283420D01*
X0190448Y0282436D01*
X0189463Y0281451D01*
X0189463Y0280467D01*
X0190448Y0279483D01*
X0192416Y0279483D01*
X0193400Y0280467D01*
X0191432Y0282436D02*
X0190448Y0282436D01*
X0186955Y0281451D02*
X0186955Y0285388D01*
X0186955Y0281451D02*
X0184986Y0279483D01*
X0183018Y0281451D01*
X0183018Y0285388D01*
X0174064Y0284404D02*
X0174064Y0280467D01*
X0173079Y0279483D01*
X0171111Y0279483D01*
X0170127Y0280467D01*
X0170127Y0284404D01*
X0171111Y0285388D01*
X0173079Y0285388D01*
X0174064Y0284404D01*
X0167618Y0285388D02*
X0167618Y0279483D01*
X0163681Y0279483D02*
X0163681Y0285388D01*
X0161173Y0285388D02*
X0161173Y0279483D01*
X0157236Y0279483D01*
X0152759Y0279483D02*
X0152759Y0282436D01*
X0150790Y0284404D01*
X0150790Y0285388D01*
X0148282Y0286372D02*
X0148282Y0282436D01*
X0148282Y0280467D02*
X0148282Y0279483D01*
X0152759Y0282436D02*
X0154727Y0284404D01*
X0154727Y0285388D01*
X0163681Y0279483D02*
X0167618Y0285388D01*
X0165181Y0300483D02*
X0165181Y0304420D01*
X0167149Y0302451D02*
X0163212Y0302451D01*
X0177788Y0302436D02*
X0181724Y0302436D01*
D13*
X0201183Y0298933D02*
X0201185Y0299094D01*
X0201191Y0299254D01*
X0201201Y0299415D01*
X0201215Y0299575D01*
X0201233Y0299735D01*
X0201254Y0299894D01*
X0201280Y0300053D01*
X0201310Y0300211D01*
X0201343Y0300368D01*
X0201381Y0300525D01*
X0201422Y0300680D01*
X0201467Y0300834D01*
X0201516Y0300987D01*
X0201569Y0301139D01*
X0201625Y0301290D01*
X0201686Y0301439D01*
X0201749Y0301587D01*
X0201817Y0301733D01*
X0201888Y0301877D01*
X0201962Y0302019D01*
X0202040Y0302160D01*
X0202122Y0302298D01*
X0202207Y0302435D01*
X0202295Y0302569D01*
X0202387Y0302701D01*
X0202482Y0302831D01*
X0202580Y0302959D01*
X0202681Y0303084D01*
X0202785Y0303206D01*
X0202892Y0303326D01*
X0203002Y0303443D01*
X0203115Y0303558D01*
X0203231Y0303669D01*
X0203350Y0303778D01*
X0203471Y0303883D01*
X0203595Y0303986D01*
X0203721Y0304086D01*
X0203849Y0304182D01*
X0203980Y0304275D01*
X0204114Y0304365D01*
X0204249Y0304452D01*
X0204387Y0304535D01*
X0204526Y0304615D01*
X0204668Y0304691D01*
X0204811Y0304764D01*
X0204956Y0304833D01*
X0205103Y0304899D01*
X0205251Y0304961D01*
X0205401Y0305019D01*
X0205552Y0305074D01*
X0205705Y0305125D01*
X0205859Y0305172D01*
X0206014Y0305215D01*
X0206170Y0305254D01*
X0206326Y0305290D01*
X0206484Y0305321D01*
X0206642Y0305349D01*
X0206801Y0305373D01*
X0206961Y0305393D01*
X0207121Y0305409D01*
X0207281Y0305421D01*
X0207442Y0305429D01*
X0207603Y0305433D01*
X0207763Y0305433D01*
X0207924Y0305429D01*
X0208085Y0305421D01*
X0208245Y0305409D01*
X0208405Y0305393D01*
X0208565Y0305373D01*
X0208724Y0305349D01*
X0208882Y0305321D01*
X0209040Y0305290D01*
X0209196Y0305254D01*
X0209352Y0305215D01*
X0209507Y0305172D01*
X0209661Y0305125D01*
X0209814Y0305074D01*
X0209965Y0305019D01*
X0210115Y0304961D01*
X0210263Y0304899D01*
X0210410Y0304833D01*
X0210555Y0304764D01*
X0210698Y0304691D01*
X0210840Y0304615D01*
X0210979Y0304535D01*
X0211117Y0304452D01*
X0211252Y0304365D01*
X0211386Y0304275D01*
X0211517Y0304182D01*
X0211645Y0304086D01*
X0211771Y0303986D01*
X0211895Y0303883D01*
X0212016Y0303778D01*
X0212135Y0303669D01*
X0212251Y0303558D01*
X0212364Y0303443D01*
X0212474Y0303326D01*
X0212581Y0303206D01*
X0212685Y0303084D01*
X0212786Y0302959D01*
X0212884Y0302831D01*
X0212979Y0302701D01*
X0213071Y0302569D01*
X0213159Y0302435D01*
X0213244Y0302298D01*
X0213326Y0302160D01*
X0213404Y0302019D01*
X0213478Y0301877D01*
X0213549Y0301733D01*
X0213617Y0301587D01*
X0213680Y0301439D01*
X0213741Y0301290D01*
X0213797Y0301139D01*
X0213850Y0300987D01*
X0213899Y0300834D01*
X0213944Y0300680D01*
X0213985Y0300525D01*
X0214023Y0300368D01*
X0214056Y0300211D01*
X0214086Y0300053D01*
X0214112Y0299894D01*
X0214133Y0299735D01*
X0214151Y0299575D01*
X0214165Y0299415D01*
X0214175Y0299254D01*
X0214181Y0299094D01*
X0214183Y0298933D01*
X0214181Y0298772D01*
X0214175Y0298612D01*
X0214165Y0298451D01*
X0214151Y0298291D01*
X0214133Y0298131D01*
X0214112Y0297972D01*
X0214086Y0297813D01*
X0214056Y0297655D01*
X0214023Y0297498D01*
X0213985Y0297341D01*
X0213944Y0297186D01*
X0213899Y0297032D01*
X0213850Y0296879D01*
X0213797Y0296727D01*
X0213741Y0296576D01*
X0213680Y0296427D01*
X0213617Y0296279D01*
X0213549Y0296133D01*
X0213478Y0295989D01*
X0213404Y0295847D01*
X0213326Y0295706D01*
X0213244Y0295568D01*
X0213159Y0295431D01*
X0213071Y0295297D01*
X0212979Y0295165D01*
X0212884Y0295035D01*
X0212786Y0294907D01*
X0212685Y0294782D01*
X0212581Y0294660D01*
X0212474Y0294540D01*
X0212364Y0294423D01*
X0212251Y0294308D01*
X0212135Y0294197D01*
X0212016Y0294088D01*
X0211895Y0293983D01*
X0211771Y0293880D01*
X0211645Y0293780D01*
X0211517Y0293684D01*
X0211386Y0293591D01*
X0211252Y0293501D01*
X0211117Y0293414D01*
X0210979Y0293331D01*
X0210840Y0293251D01*
X0210698Y0293175D01*
X0210555Y0293102D01*
X0210410Y0293033D01*
X0210263Y0292967D01*
X0210115Y0292905D01*
X0209965Y0292847D01*
X0209814Y0292792D01*
X0209661Y0292741D01*
X0209507Y0292694D01*
X0209352Y0292651D01*
X0209196Y0292612D01*
X0209040Y0292576D01*
X0208882Y0292545D01*
X0208724Y0292517D01*
X0208565Y0292493D01*
X0208405Y0292473D01*
X0208245Y0292457D01*
X0208085Y0292445D01*
X0207924Y0292437D01*
X0207763Y0292433D01*
X0207603Y0292433D01*
X0207442Y0292437D01*
X0207281Y0292445D01*
X0207121Y0292457D01*
X0206961Y0292473D01*
X0206801Y0292493D01*
X0206642Y0292517D01*
X0206484Y0292545D01*
X0206326Y0292576D01*
X0206170Y0292612D01*
X0206014Y0292651D01*
X0205859Y0292694D01*
X0205705Y0292741D01*
X0205552Y0292792D01*
X0205401Y0292847D01*
X0205251Y0292905D01*
X0205103Y0292967D01*
X0204956Y0293033D01*
X0204811Y0293102D01*
X0204668Y0293175D01*
X0204526Y0293251D01*
X0204387Y0293331D01*
X0204249Y0293414D01*
X0204114Y0293501D01*
X0203980Y0293591D01*
X0203849Y0293684D01*
X0203721Y0293780D01*
X0203595Y0293880D01*
X0203471Y0293983D01*
X0203350Y0294088D01*
X0203231Y0294197D01*
X0203115Y0294308D01*
X0203002Y0294423D01*
X0202892Y0294540D01*
X0202785Y0294660D01*
X0202681Y0294782D01*
X0202580Y0294907D01*
X0202482Y0295035D01*
X0202387Y0295165D01*
X0202295Y0295297D01*
X0202207Y0295431D01*
X0202122Y0295568D01*
X0202040Y0295706D01*
X0201962Y0295847D01*
X0201888Y0295989D01*
X0201817Y0296133D01*
X0201749Y0296279D01*
X0201686Y0296427D01*
X0201625Y0296576D01*
X0201569Y0296727D01*
X0201516Y0296879D01*
X0201467Y0297032D01*
X0201422Y0297186D01*
X0201381Y0297341D01*
X0201343Y0297498D01*
X0201310Y0297655D01*
X0201280Y0297813D01*
X0201254Y0297972D01*
X0201233Y0298131D01*
X0201215Y0298291D01*
X0201201Y0298451D01*
X0201191Y0298612D01*
X0201185Y0298772D01*
X0201183Y0298933D01*
X0081183Y0298933D02*
X0081185Y0299094D01*
X0081191Y0299254D01*
X0081201Y0299415D01*
X0081215Y0299575D01*
X0081233Y0299735D01*
X0081254Y0299894D01*
X0081280Y0300053D01*
X0081310Y0300211D01*
X0081343Y0300368D01*
X0081381Y0300525D01*
X0081422Y0300680D01*
X0081467Y0300834D01*
X0081516Y0300987D01*
X0081569Y0301139D01*
X0081625Y0301290D01*
X0081686Y0301439D01*
X0081749Y0301587D01*
X0081817Y0301733D01*
X0081888Y0301877D01*
X0081962Y0302019D01*
X0082040Y0302160D01*
X0082122Y0302298D01*
X0082207Y0302435D01*
X0082295Y0302569D01*
X0082387Y0302701D01*
X0082482Y0302831D01*
X0082580Y0302959D01*
X0082681Y0303084D01*
X0082785Y0303206D01*
X0082892Y0303326D01*
X0083002Y0303443D01*
X0083115Y0303558D01*
X0083231Y0303669D01*
X0083350Y0303778D01*
X0083471Y0303883D01*
X0083595Y0303986D01*
X0083721Y0304086D01*
X0083849Y0304182D01*
X0083980Y0304275D01*
X0084114Y0304365D01*
X0084249Y0304452D01*
X0084387Y0304535D01*
X0084526Y0304615D01*
X0084668Y0304691D01*
X0084811Y0304764D01*
X0084956Y0304833D01*
X0085103Y0304899D01*
X0085251Y0304961D01*
X0085401Y0305019D01*
X0085552Y0305074D01*
X0085705Y0305125D01*
X0085859Y0305172D01*
X0086014Y0305215D01*
X0086170Y0305254D01*
X0086326Y0305290D01*
X0086484Y0305321D01*
X0086642Y0305349D01*
X0086801Y0305373D01*
X0086961Y0305393D01*
X0087121Y0305409D01*
X0087281Y0305421D01*
X0087442Y0305429D01*
X0087603Y0305433D01*
X0087763Y0305433D01*
X0087924Y0305429D01*
X0088085Y0305421D01*
X0088245Y0305409D01*
X0088405Y0305393D01*
X0088565Y0305373D01*
X0088724Y0305349D01*
X0088882Y0305321D01*
X0089040Y0305290D01*
X0089196Y0305254D01*
X0089352Y0305215D01*
X0089507Y0305172D01*
X0089661Y0305125D01*
X0089814Y0305074D01*
X0089965Y0305019D01*
X0090115Y0304961D01*
X0090263Y0304899D01*
X0090410Y0304833D01*
X0090555Y0304764D01*
X0090698Y0304691D01*
X0090840Y0304615D01*
X0090979Y0304535D01*
X0091117Y0304452D01*
X0091252Y0304365D01*
X0091386Y0304275D01*
X0091517Y0304182D01*
X0091645Y0304086D01*
X0091771Y0303986D01*
X0091895Y0303883D01*
X0092016Y0303778D01*
X0092135Y0303669D01*
X0092251Y0303558D01*
X0092364Y0303443D01*
X0092474Y0303326D01*
X0092581Y0303206D01*
X0092685Y0303084D01*
X0092786Y0302959D01*
X0092884Y0302831D01*
X0092979Y0302701D01*
X0093071Y0302569D01*
X0093159Y0302435D01*
X0093244Y0302298D01*
X0093326Y0302160D01*
X0093404Y0302019D01*
X0093478Y0301877D01*
X0093549Y0301733D01*
X0093617Y0301587D01*
X0093680Y0301439D01*
X0093741Y0301290D01*
X0093797Y0301139D01*
X0093850Y0300987D01*
X0093899Y0300834D01*
X0093944Y0300680D01*
X0093985Y0300525D01*
X0094023Y0300368D01*
X0094056Y0300211D01*
X0094086Y0300053D01*
X0094112Y0299894D01*
X0094133Y0299735D01*
X0094151Y0299575D01*
X0094165Y0299415D01*
X0094175Y0299254D01*
X0094181Y0299094D01*
X0094183Y0298933D01*
X0094181Y0298772D01*
X0094175Y0298612D01*
X0094165Y0298451D01*
X0094151Y0298291D01*
X0094133Y0298131D01*
X0094112Y0297972D01*
X0094086Y0297813D01*
X0094056Y0297655D01*
X0094023Y0297498D01*
X0093985Y0297341D01*
X0093944Y0297186D01*
X0093899Y0297032D01*
X0093850Y0296879D01*
X0093797Y0296727D01*
X0093741Y0296576D01*
X0093680Y0296427D01*
X0093617Y0296279D01*
X0093549Y0296133D01*
X0093478Y0295989D01*
X0093404Y0295847D01*
X0093326Y0295706D01*
X0093244Y0295568D01*
X0093159Y0295431D01*
X0093071Y0295297D01*
X0092979Y0295165D01*
X0092884Y0295035D01*
X0092786Y0294907D01*
X0092685Y0294782D01*
X0092581Y0294660D01*
X0092474Y0294540D01*
X0092364Y0294423D01*
X0092251Y0294308D01*
X0092135Y0294197D01*
X0092016Y0294088D01*
X0091895Y0293983D01*
X0091771Y0293880D01*
X0091645Y0293780D01*
X0091517Y0293684D01*
X0091386Y0293591D01*
X0091252Y0293501D01*
X0091117Y0293414D01*
X0090979Y0293331D01*
X0090840Y0293251D01*
X0090698Y0293175D01*
X0090555Y0293102D01*
X0090410Y0293033D01*
X0090263Y0292967D01*
X0090115Y0292905D01*
X0089965Y0292847D01*
X0089814Y0292792D01*
X0089661Y0292741D01*
X0089507Y0292694D01*
X0089352Y0292651D01*
X0089196Y0292612D01*
X0089040Y0292576D01*
X0088882Y0292545D01*
X0088724Y0292517D01*
X0088565Y0292493D01*
X0088405Y0292473D01*
X0088245Y0292457D01*
X0088085Y0292445D01*
X0087924Y0292437D01*
X0087763Y0292433D01*
X0087603Y0292433D01*
X0087442Y0292437D01*
X0087281Y0292445D01*
X0087121Y0292457D01*
X0086961Y0292473D01*
X0086801Y0292493D01*
X0086642Y0292517D01*
X0086484Y0292545D01*
X0086326Y0292576D01*
X0086170Y0292612D01*
X0086014Y0292651D01*
X0085859Y0292694D01*
X0085705Y0292741D01*
X0085552Y0292792D01*
X0085401Y0292847D01*
X0085251Y0292905D01*
X0085103Y0292967D01*
X0084956Y0293033D01*
X0084811Y0293102D01*
X0084668Y0293175D01*
X0084526Y0293251D01*
X0084387Y0293331D01*
X0084249Y0293414D01*
X0084114Y0293501D01*
X0083980Y0293591D01*
X0083849Y0293684D01*
X0083721Y0293780D01*
X0083595Y0293880D01*
X0083471Y0293983D01*
X0083350Y0294088D01*
X0083231Y0294197D01*
X0083115Y0294308D01*
X0083002Y0294423D01*
X0082892Y0294540D01*
X0082785Y0294660D01*
X0082681Y0294782D01*
X0082580Y0294907D01*
X0082482Y0295035D01*
X0082387Y0295165D01*
X0082295Y0295297D01*
X0082207Y0295431D01*
X0082122Y0295568D01*
X0082040Y0295706D01*
X0081962Y0295847D01*
X0081888Y0295989D01*
X0081817Y0296133D01*
X0081749Y0296279D01*
X0081686Y0296427D01*
X0081625Y0296576D01*
X0081569Y0296727D01*
X0081516Y0296879D01*
X0081467Y0297032D01*
X0081422Y0297186D01*
X0081381Y0297341D01*
X0081343Y0297498D01*
X0081310Y0297655D01*
X0081280Y0297813D01*
X0081254Y0297972D01*
X0081233Y0298131D01*
X0081215Y0298291D01*
X0081201Y0298451D01*
X0081191Y0298612D01*
X0081185Y0298772D01*
X0081183Y0298933D01*
X0026183Y0098933D02*
X0026185Y0099094D01*
X0026191Y0099254D01*
X0026201Y0099415D01*
X0026215Y0099575D01*
X0026233Y0099735D01*
X0026254Y0099894D01*
X0026280Y0100053D01*
X0026310Y0100211D01*
X0026343Y0100368D01*
X0026381Y0100525D01*
X0026422Y0100680D01*
X0026467Y0100834D01*
X0026516Y0100987D01*
X0026569Y0101139D01*
X0026625Y0101290D01*
X0026686Y0101439D01*
X0026749Y0101587D01*
X0026817Y0101733D01*
X0026888Y0101877D01*
X0026962Y0102019D01*
X0027040Y0102160D01*
X0027122Y0102298D01*
X0027207Y0102435D01*
X0027295Y0102569D01*
X0027387Y0102701D01*
X0027482Y0102831D01*
X0027580Y0102959D01*
X0027681Y0103084D01*
X0027785Y0103206D01*
X0027892Y0103326D01*
X0028002Y0103443D01*
X0028115Y0103558D01*
X0028231Y0103669D01*
X0028350Y0103778D01*
X0028471Y0103883D01*
X0028595Y0103986D01*
X0028721Y0104086D01*
X0028849Y0104182D01*
X0028980Y0104275D01*
X0029114Y0104365D01*
X0029249Y0104452D01*
X0029387Y0104535D01*
X0029526Y0104615D01*
X0029668Y0104691D01*
X0029811Y0104764D01*
X0029956Y0104833D01*
X0030103Y0104899D01*
X0030251Y0104961D01*
X0030401Y0105019D01*
X0030552Y0105074D01*
X0030705Y0105125D01*
X0030859Y0105172D01*
X0031014Y0105215D01*
X0031170Y0105254D01*
X0031326Y0105290D01*
X0031484Y0105321D01*
X0031642Y0105349D01*
X0031801Y0105373D01*
X0031961Y0105393D01*
X0032121Y0105409D01*
X0032281Y0105421D01*
X0032442Y0105429D01*
X0032603Y0105433D01*
X0032763Y0105433D01*
X0032924Y0105429D01*
X0033085Y0105421D01*
X0033245Y0105409D01*
X0033405Y0105393D01*
X0033565Y0105373D01*
X0033724Y0105349D01*
X0033882Y0105321D01*
X0034040Y0105290D01*
X0034196Y0105254D01*
X0034352Y0105215D01*
X0034507Y0105172D01*
X0034661Y0105125D01*
X0034814Y0105074D01*
X0034965Y0105019D01*
X0035115Y0104961D01*
X0035263Y0104899D01*
X0035410Y0104833D01*
X0035555Y0104764D01*
X0035698Y0104691D01*
X0035840Y0104615D01*
X0035979Y0104535D01*
X0036117Y0104452D01*
X0036252Y0104365D01*
X0036386Y0104275D01*
X0036517Y0104182D01*
X0036645Y0104086D01*
X0036771Y0103986D01*
X0036895Y0103883D01*
X0037016Y0103778D01*
X0037135Y0103669D01*
X0037251Y0103558D01*
X0037364Y0103443D01*
X0037474Y0103326D01*
X0037581Y0103206D01*
X0037685Y0103084D01*
X0037786Y0102959D01*
X0037884Y0102831D01*
X0037979Y0102701D01*
X0038071Y0102569D01*
X0038159Y0102435D01*
X0038244Y0102298D01*
X0038326Y0102160D01*
X0038404Y0102019D01*
X0038478Y0101877D01*
X0038549Y0101733D01*
X0038617Y0101587D01*
X0038680Y0101439D01*
X0038741Y0101290D01*
X0038797Y0101139D01*
X0038850Y0100987D01*
X0038899Y0100834D01*
X0038944Y0100680D01*
X0038985Y0100525D01*
X0039023Y0100368D01*
X0039056Y0100211D01*
X0039086Y0100053D01*
X0039112Y0099894D01*
X0039133Y0099735D01*
X0039151Y0099575D01*
X0039165Y0099415D01*
X0039175Y0099254D01*
X0039181Y0099094D01*
X0039183Y0098933D01*
X0039181Y0098772D01*
X0039175Y0098612D01*
X0039165Y0098451D01*
X0039151Y0098291D01*
X0039133Y0098131D01*
X0039112Y0097972D01*
X0039086Y0097813D01*
X0039056Y0097655D01*
X0039023Y0097498D01*
X0038985Y0097341D01*
X0038944Y0097186D01*
X0038899Y0097032D01*
X0038850Y0096879D01*
X0038797Y0096727D01*
X0038741Y0096576D01*
X0038680Y0096427D01*
X0038617Y0096279D01*
X0038549Y0096133D01*
X0038478Y0095989D01*
X0038404Y0095847D01*
X0038326Y0095706D01*
X0038244Y0095568D01*
X0038159Y0095431D01*
X0038071Y0095297D01*
X0037979Y0095165D01*
X0037884Y0095035D01*
X0037786Y0094907D01*
X0037685Y0094782D01*
X0037581Y0094660D01*
X0037474Y0094540D01*
X0037364Y0094423D01*
X0037251Y0094308D01*
X0037135Y0094197D01*
X0037016Y0094088D01*
X0036895Y0093983D01*
X0036771Y0093880D01*
X0036645Y0093780D01*
X0036517Y0093684D01*
X0036386Y0093591D01*
X0036252Y0093501D01*
X0036117Y0093414D01*
X0035979Y0093331D01*
X0035840Y0093251D01*
X0035698Y0093175D01*
X0035555Y0093102D01*
X0035410Y0093033D01*
X0035263Y0092967D01*
X0035115Y0092905D01*
X0034965Y0092847D01*
X0034814Y0092792D01*
X0034661Y0092741D01*
X0034507Y0092694D01*
X0034352Y0092651D01*
X0034196Y0092612D01*
X0034040Y0092576D01*
X0033882Y0092545D01*
X0033724Y0092517D01*
X0033565Y0092493D01*
X0033405Y0092473D01*
X0033245Y0092457D01*
X0033085Y0092445D01*
X0032924Y0092437D01*
X0032763Y0092433D01*
X0032603Y0092433D01*
X0032442Y0092437D01*
X0032281Y0092445D01*
X0032121Y0092457D01*
X0031961Y0092473D01*
X0031801Y0092493D01*
X0031642Y0092517D01*
X0031484Y0092545D01*
X0031326Y0092576D01*
X0031170Y0092612D01*
X0031014Y0092651D01*
X0030859Y0092694D01*
X0030705Y0092741D01*
X0030552Y0092792D01*
X0030401Y0092847D01*
X0030251Y0092905D01*
X0030103Y0092967D01*
X0029956Y0093033D01*
X0029811Y0093102D01*
X0029668Y0093175D01*
X0029526Y0093251D01*
X0029387Y0093331D01*
X0029249Y0093414D01*
X0029114Y0093501D01*
X0028980Y0093591D01*
X0028849Y0093684D01*
X0028721Y0093780D01*
X0028595Y0093880D01*
X0028471Y0093983D01*
X0028350Y0094088D01*
X0028231Y0094197D01*
X0028115Y0094308D01*
X0028002Y0094423D01*
X0027892Y0094540D01*
X0027785Y0094660D01*
X0027681Y0094782D01*
X0027580Y0094907D01*
X0027482Y0095035D01*
X0027387Y0095165D01*
X0027295Y0095297D01*
X0027207Y0095431D01*
X0027122Y0095568D01*
X0027040Y0095706D01*
X0026962Y0095847D01*
X0026888Y0095989D01*
X0026817Y0096133D01*
X0026749Y0096279D01*
X0026686Y0096427D01*
X0026625Y0096576D01*
X0026569Y0096727D01*
X0026516Y0096879D01*
X0026467Y0097032D01*
X0026422Y0097186D01*
X0026381Y0097341D01*
X0026343Y0097498D01*
X0026310Y0097655D01*
X0026280Y0097813D01*
X0026254Y0097972D01*
X0026233Y0098131D01*
X0026215Y0098291D01*
X0026201Y0098451D01*
X0026191Y0098612D01*
X0026185Y0098772D01*
X0026183Y0098933D01*
M02*
