%
M48
M72
T01C0.01600
T02C0.04000
T03C0.04724
T04C0.13000
%
T01
X41683Y107933
X59683Y120933
X80683Y145933
X90683Y150933
X83683Y155933
X87683Y166933
X64683Y169933
X58683Y163933
X58683Y159933
X62683Y154933
X51683Y173933
X51683Y183933
X51683Y193933
X51683Y203933
X47683Y218933
X46683Y228933
X45683Y238933
X43683Y248933
X41683Y258933
X49683Y276933
X93183Y232433
X96683Y229933
X108683Y231933
X112683Y228933
X118683Y228933
X116683Y235933
X120683Y235933
X124683Y235933
X135683Y231933
X147683Y216933
X152683Y216933
X165683Y203933
X170683Y203933
X170683Y208933
X183683Y205933
X187683Y205933
X191683Y205933
X200683Y201933
X200683Y197933
X200683Y193933
X181683Y187933
X181683Y183933
X176683Y183933
X176683Y187933
X195683Y232933
X191683Y233933
X195683Y259933
X209683Y281933
X153683Y269933
X148183Y272933
X144683Y278433
X140183Y273933
X129683Y281933
X107683Y280933
X117683Y253933
X121683Y253933
X125683Y253933
X119683Y137933
X153683Y128933
X228683Y193933
T02
X71183Y85933
X71183Y95933
X71183Y105933
X71183Y115933
X71183Y125933
X71183Y135933
X71183Y145933
X71183Y155933
X71183Y165933
X71183Y175933
X71183Y185933
X71183Y195933
X71183Y205933
X71183Y215933
X81183Y215933
X91183Y215933
X101183Y215933
X111183Y215933
X121183Y215933
X131183Y215933
X131183Y205933
X131183Y195933
X131183Y185933
X131183Y175933
X131183Y165933
X131183Y155933
X131183Y145933
X131183Y135933
X131183Y125933
X131183Y115933
X131183Y105933
X131183Y95933
X131183Y85933
X81183Y95933
X81183Y115933
X81183Y125933
X81183Y135933
X32683Y133933
X32683Y143933
X32683Y153933
X32683Y163933
X32683Y173933
X32683Y183933
X32683Y193933
X32683Y203933
X32683Y218933
X32683Y228933
X32683Y238933
X32683Y248933
X32683Y258933
X32683Y268933
X32683Y278933
X32683Y288933
X63683Y233933
X73683Y233933
X112683Y288933
X112683Y298933
X122683Y298933
X122683Y288933
X132683Y288933
X132683Y298933
X171683Y268933
X171683Y258933
X171683Y248933
X185183Y214933
X195183Y214933
X222683Y218933
X222683Y208933
X222683Y198933
X222683Y188933
X222683Y178933
X222683Y168933
X222683Y158933
X222683Y148933
X219683Y126933
X209683Y126933
X199683Y126933
X222683Y238933
X222683Y248933
X222683Y258933
X222683Y268933
X222683Y278933
X222683Y288933
X32683Y123933
X32683Y113933
T03
X183904Y96933
X197683Y96933
X179463Y292933
X165683Y292933
T04
X207683Y298933
X87683Y298933
X32683Y98933
M30
